M48
INCH,TZ
T1C0.028
T2C0.039
T3C0.040
%
G90
G05
T1
X6.6216Y-2.4819
X6.6216Y-2.5607
X6.6216Y-2.6393
X6.6216Y-2.7181
X6.6216Y-3.2819
X6.6216Y-3.3607
X6.6216Y-3.4393
X6.6216Y-3.5181
X6.9216Y-3.2819
X6.9216Y-3.3607
X6.9216Y-3.4393
X6.9216Y-3.5181
X7.2216Y-3.2819
X7.2216Y-3.3607
X7.2216Y-3.4393
X7.2216Y-3.5181
X7.5216Y-3.2819
X7.5216Y-3.3607
X7.5216Y-3.4393
X7.5216Y-3.5181
X7.8216Y-2.4819
X7.8216Y-2.5607
X7.8216Y-2.6393
X7.8216Y-2.7181
X7.8216Y-3.2819
X7.8216Y-3.3607
X7.8216Y-3.4393
X7.8216Y-3.5181
X8.1216Y-2.4819
X8.1216Y-2.5607
X8.1216Y-2.6393
X8.1216Y-2.7181
X8.1216Y-3.2819
X8.1216Y-3.3607
X8.1216Y-3.4393
X8.1216Y-3.5181
T2
X6.2Y-2.55
X6.2Y-2.65
T3
X6.52Y-2.04
X6.62Y-2.04
X6.72Y-2.04
X6.82Y-2.04
X6.88Y-3.94
X6.92Y-2.04
X6.98Y-3.94
X7.02Y-2.04
X7.08Y-3.94
X7.12Y-2.04
X7.18Y-3.94
X7.22Y-2.04
X7.28Y-3.94
X7.32Y-2.04
X7.38Y-3.94
X7.42Y-2.04
X7.48Y-3.94
X7.58Y-2.04
X7.58Y-3.94
X7.68Y-2.04
X7.78Y-2.04
X7.78Y-3.94
X7.88Y-2.04
X7.88Y-3.94
X7.98Y-2.04
X7.98Y-3.94
X8.08Y-2.04
X8.08Y-3.94
X8.18Y-2.04
X8.18Y-3.94
X8.28Y-2.04
X8.28Y-3.94
X8.285Y-2.84
X8.285Y-2.94
X8.285Y-3.04
X8.385Y-2.84
X8.385Y-2.94
X8.385Y-3.04
T0
M30
