G04 #@! TF.FileFunction,Copper,L2,Bot,Signal*
%FSLAX46Y46*%
G04 Gerber Fmt 4.6, Leading zero omitted, Abs format (unit mm)*
G04 Created by KiCad (PCBNEW 4.0.7) date 05/06/19 16:36:02*
%MOMM*%
%LPD*%
G01*
G04 APERTURE LIST*
%ADD10C,0.100000*%
%ADD11R,1.700000X1.700000*%
%ADD12O,1.700000X1.700000*%
%ADD13O,1.727200X1.727200*%
%ADD14C,0.500000*%
%ADD15C,0.250000*%
%ADD16C,0.254000*%
G04 APERTURE END LIST*
D10*
D11*
X157480000Y-67310000D03*
D12*
X157480000Y-64770000D03*
D11*
X205740000Y-91440000D03*
D12*
X205740000Y-88900000D03*
X205740000Y-86360000D03*
X205740000Y-83820000D03*
D11*
X205740000Y-68580000D03*
D12*
X205740000Y-66040000D03*
X205740000Y-63500000D03*
X205740000Y-60960000D03*
D11*
X198120000Y-68580000D03*
D12*
X198120000Y-66040000D03*
X198120000Y-63500000D03*
X198120000Y-60960000D03*
D11*
X167640000Y-68580000D03*
D12*
X167640000Y-66040000D03*
X167640000Y-63500000D03*
X167640000Y-60960000D03*
D11*
X167640000Y-91440000D03*
D12*
X167640000Y-88900000D03*
X167640000Y-86360000D03*
X167640000Y-83820000D03*
D11*
X175260000Y-91440000D03*
D12*
X175260000Y-88900000D03*
X175260000Y-86360000D03*
X175260000Y-83820000D03*
D11*
X182880000Y-91440000D03*
D12*
X182880000Y-88900000D03*
X182880000Y-86360000D03*
X182880000Y-83820000D03*
D11*
X190500000Y-91440000D03*
D12*
X190500000Y-88900000D03*
X190500000Y-86360000D03*
X190500000Y-83820000D03*
D11*
X198120000Y-91440000D03*
D12*
X198120000Y-88900000D03*
X198120000Y-86360000D03*
X198120000Y-83820000D03*
D13*
X210439000Y-77216000D03*
X212979000Y-77216000D03*
X212979000Y-74676000D03*
X210439000Y-74676000D03*
X212979000Y-72136000D03*
X197612000Y-100076000D03*
X192532000Y-100076000D03*
X189992000Y-100076000D03*
X187452000Y-100076000D03*
X184912000Y-100076000D03*
X182372000Y-100076000D03*
X179832000Y-100076000D03*
X177292000Y-100076000D03*
X210312000Y-51816000D03*
X207772000Y-51816000D03*
X205232000Y-51816000D03*
X202692000Y-51816000D03*
X200152000Y-51816000D03*
X197612000Y-51816000D03*
X195072000Y-51816000D03*
X192532000Y-51816000D03*
X173228000Y-51816000D03*
X188468000Y-51816000D03*
X185928000Y-51816000D03*
X183388000Y-51816000D03*
X165608000Y-51816000D03*
X168148000Y-51816000D03*
X170688000Y-51816000D03*
X175768000Y-51816000D03*
X178308000Y-51816000D03*
X180848000Y-51816000D03*
X174752000Y-100076000D03*
X200152000Y-100076000D03*
X202692000Y-100076000D03*
X205232000Y-100076000D03*
X207772000Y-100076000D03*
X210312000Y-100076000D03*
X210439000Y-72136000D03*
D14*
X198120000Y-68580000D02*
X199470000Y-68580000D01*
X199470000Y-68580000D02*
X205740000Y-68580000D01*
X198120000Y-91440000D02*
X205740000Y-91440000D01*
X198120000Y-88900000D02*
X205740000Y-88900000D01*
X190500000Y-88900000D02*
X191702081Y-88900000D01*
X191702081Y-88900000D02*
X198120000Y-88900000D01*
X190500000Y-91440000D02*
X191850000Y-91440000D01*
X191850000Y-91440000D02*
X198120000Y-91440000D01*
X175260000Y-91440000D02*
X182880000Y-91440000D01*
X175260000Y-88900000D02*
X176462081Y-88900000D01*
X176462081Y-88900000D02*
X182880000Y-88900000D01*
X167640000Y-88900000D02*
X168842081Y-88900000D01*
X168842081Y-88900000D02*
X175260000Y-88900000D01*
X167640000Y-91440000D02*
X168990000Y-91440000D01*
X168990000Y-91440000D02*
X175260000Y-91440000D01*
X198120000Y-66040000D02*
X205740000Y-66040000D01*
X198120000Y-66040000D02*
X195072000Y-66040000D01*
X195072000Y-66040000D02*
X187706000Y-73406000D01*
X184912000Y-96012000D02*
X184912000Y-100076000D01*
X187706000Y-73406000D02*
X187706000Y-93218000D01*
X187706000Y-93218000D02*
X184912000Y-96012000D01*
D15*
X178308000Y-51816000D02*
X178308000Y-53848000D01*
X178308000Y-53848000D02*
X171196000Y-60960000D01*
X171196000Y-60960000D02*
X170180000Y-60960000D01*
X170180000Y-60960000D02*
X167640000Y-60960000D01*
X197612000Y-51816000D02*
X178308000Y-71120000D01*
X178308000Y-71120000D02*
X163830000Y-71120000D01*
X163830000Y-71120000D02*
X162814000Y-70104000D01*
X162814000Y-70104000D02*
X157480000Y-64770000D01*
D16*
G36*
X160158364Y-50548321D02*
X159817389Y-51369481D01*
X159816613Y-52258619D01*
X160156155Y-53080372D01*
X160784321Y-53709636D01*
X161605481Y-54050611D01*
X162494619Y-54051387D01*
X163316372Y-53711845D01*
X163945636Y-53083679D01*
X164218645Y-52426200D01*
X164518971Y-52875670D01*
X165005152Y-53200526D01*
X165578641Y-53314600D01*
X165637359Y-53314600D01*
X166210848Y-53200526D01*
X166697029Y-52875670D01*
X166878000Y-52604828D01*
X167058971Y-52875670D01*
X167545152Y-53200526D01*
X168118641Y-53314600D01*
X168177359Y-53314600D01*
X168750848Y-53200526D01*
X169237029Y-52875670D01*
X169418000Y-52604828D01*
X169598971Y-52875670D01*
X170085152Y-53200526D01*
X170658641Y-53314600D01*
X170717359Y-53314600D01*
X171290848Y-53200526D01*
X171777029Y-52875670D01*
X171957992Y-52604839D01*
X172339510Y-53022821D01*
X172868973Y-53270968D01*
X173101000Y-53150469D01*
X173101000Y-51943000D01*
X173081000Y-51943000D01*
X173081000Y-51689000D01*
X173101000Y-51689000D01*
X173101000Y-50481531D01*
X172868973Y-50361032D01*
X172339510Y-50609179D01*
X171957992Y-51027161D01*
X171777029Y-50756330D01*
X171290848Y-50431474D01*
X170717359Y-50317400D01*
X170658641Y-50317400D01*
X170085152Y-50431474D01*
X169598971Y-50756330D01*
X169418000Y-51027172D01*
X169237029Y-50756330D01*
X168750848Y-50431474D01*
X168177359Y-50317400D01*
X168118641Y-50317400D01*
X167545152Y-50431474D01*
X167058971Y-50756330D01*
X166878000Y-51027172D01*
X166697029Y-50756330D01*
X166210848Y-50431474D01*
X165637359Y-50317400D01*
X165578641Y-50317400D01*
X165005152Y-50431474D01*
X164518971Y-50756330D01*
X164218335Y-51206263D01*
X163947845Y-50551628D01*
X163383204Y-49986000D01*
X211033908Y-49986000D01*
X212142000Y-51094091D01*
X212142000Y-61976000D01*
X212196046Y-62247705D01*
X212349954Y-62478046D01*
X214682000Y-64810091D01*
X214682000Y-65725668D01*
X214119679Y-65162364D01*
X213298519Y-64821389D01*
X212409381Y-64820613D01*
X211587628Y-65160155D01*
X210958364Y-65788321D01*
X210617389Y-66609481D01*
X210616613Y-67498619D01*
X210956155Y-68320372D01*
X211584321Y-68949636D01*
X212405481Y-69290611D01*
X213294619Y-69291387D01*
X214116372Y-68951845D01*
X214682000Y-68387204D01*
X214682000Y-93665668D01*
X214119679Y-93102364D01*
X213298519Y-92761389D01*
X212409381Y-92760613D01*
X211587628Y-93100155D01*
X210958364Y-93728321D01*
X210617389Y-94549481D01*
X210616613Y-95438619D01*
X210956155Y-96260372D01*
X211584321Y-96889636D01*
X212405481Y-97230611D01*
X213294619Y-97231387D01*
X214116372Y-96891845D01*
X214682000Y-96327204D01*
X214682000Y-98511909D01*
X212349954Y-100843954D01*
X212196046Y-101074295D01*
X212142000Y-101346000D01*
X212142000Y-101906000D01*
X162112332Y-101906000D01*
X162675636Y-101343679D01*
X163016611Y-100522519D01*
X163017000Y-100076000D01*
X173224041Y-100076000D01*
X173338115Y-100649489D01*
X173662971Y-101135670D01*
X174149152Y-101460526D01*
X174722641Y-101574600D01*
X174781359Y-101574600D01*
X175354848Y-101460526D01*
X175841029Y-101135670D01*
X176022000Y-100864828D01*
X176202971Y-101135670D01*
X176689152Y-101460526D01*
X177262641Y-101574600D01*
X177321359Y-101574600D01*
X177894848Y-101460526D01*
X178381029Y-101135670D01*
X178562000Y-100864828D01*
X178742971Y-101135670D01*
X179229152Y-101460526D01*
X179802641Y-101574600D01*
X179861359Y-101574600D01*
X180434848Y-101460526D01*
X180921029Y-101135670D01*
X181102000Y-100864828D01*
X181282971Y-101135670D01*
X181769152Y-101460526D01*
X182342641Y-101574600D01*
X182401359Y-101574600D01*
X182974848Y-101460526D01*
X183461029Y-101135670D01*
X183642000Y-100864828D01*
X183822971Y-101135670D01*
X184309152Y-101460526D01*
X184882641Y-101574600D01*
X184941359Y-101574600D01*
X185514848Y-101460526D01*
X186001029Y-101135670D01*
X186181992Y-100864839D01*
X186563510Y-101282821D01*
X187092973Y-101530968D01*
X187325000Y-101410469D01*
X187325000Y-100203000D01*
X187579000Y-100203000D01*
X187579000Y-101410469D01*
X187811027Y-101530968D01*
X188340490Y-101282821D01*
X188722000Y-100864848D01*
X189103510Y-101282821D01*
X189632973Y-101530968D01*
X189865000Y-101410469D01*
X189865000Y-100203000D01*
X187579000Y-100203000D01*
X187325000Y-100203000D01*
X187305000Y-100203000D01*
X187305000Y-99949000D01*
X187325000Y-99949000D01*
X187325000Y-98741531D01*
X187579000Y-98741531D01*
X187579000Y-99949000D01*
X189865000Y-99949000D01*
X189865000Y-98741531D01*
X190119000Y-98741531D01*
X190119000Y-99949000D01*
X190139000Y-99949000D01*
X190139000Y-100203000D01*
X190119000Y-100203000D01*
X190119000Y-101410469D01*
X190351027Y-101530968D01*
X190880490Y-101282821D01*
X191262008Y-100864839D01*
X191442971Y-101135670D01*
X191929152Y-101460526D01*
X192502641Y-101574600D01*
X192561359Y-101574600D01*
X193134848Y-101460526D01*
X193621029Y-101135670D01*
X193945885Y-100649489D01*
X194059959Y-100076000D01*
X196084041Y-100076000D01*
X196198115Y-100649489D01*
X196522971Y-101135670D01*
X197009152Y-101460526D01*
X197582641Y-101574600D01*
X197641359Y-101574600D01*
X198214848Y-101460526D01*
X198701029Y-101135670D01*
X198882000Y-100864828D01*
X199062971Y-101135670D01*
X199549152Y-101460526D01*
X200122641Y-101574600D01*
X200181359Y-101574600D01*
X200754848Y-101460526D01*
X201241029Y-101135670D01*
X201422000Y-100864828D01*
X201602971Y-101135670D01*
X202089152Y-101460526D01*
X202662641Y-101574600D01*
X202721359Y-101574600D01*
X203294848Y-101460526D01*
X203781029Y-101135670D01*
X203962000Y-100864828D01*
X204142971Y-101135670D01*
X204629152Y-101460526D01*
X205202641Y-101574600D01*
X205261359Y-101574600D01*
X205834848Y-101460526D01*
X206321029Y-101135670D01*
X206502000Y-100864828D01*
X206682971Y-101135670D01*
X207169152Y-101460526D01*
X207742641Y-101574600D01*
X207801359Y-101574600D01*
X208374848Y-101460526D01*
X208861029Y-101135670D01*
X209042000Y-100864828D01*
X209222971Y-101135670D01*
X209709152Y-101460526D01*
X210282641Y-101574600D01*
X210341359Y-101574600D01*
X210914848Y-101460526D01*
X211401029Y-101135670D01*
X211725885Y-100649489D01*
X211839959Y-100076000D01*
X211725885Y-99502511D01*
X211401029Y-99016330D01*
X210914848Y-98691474D01*
X210341359Y-98577400D01*
X210282641Y-98577400D01*
X209709152Y-98691474D01*
X209222971Y-99016330D01*
X209042000Y-99287172D01*
X208861029Y-99016330D01*
X208374848Y-98691474D01*
X207801359Y-98577400D01*
X207742641Y-98577400D01*
X207169152Y-98691474D01*
X206682971Y-99016330D01*
X206502000Y-99287172D01*
X206321029Y-99016330D01*
X205834848Y-98691474D01*
X205261359Y-98577400D01*
X205202641Y-98577400D01*
X204629152Y-98691474D01*
X204142971Y-99016330D01*
X203962000Y-99287172D01*
X203781029Y-99016330D01*
X203294848Y-98691474D01*
X202721359Y-98577400D01*
X202662641Y-98577400D01*
X202089152Y-98691474D01*
X201602971Y-99016330D01*
X201422000Y-99287172D01*
X201241029Y-99016330D01*
X200754848Y-98691474D01*
X200181359Y-98577400D01*
X200122641Y-98577400D01*
X199549152Y-98691474D01*
X199062971Y-99016330D01*
X198882000Y-99287172D01*
X198701029Y-99016330D01*
X198214848Y-98691474D01*
X197641359Y-98577400D01*
X197582641Y-98577400D01*
X197009152Y-98691474D01*
X196522971Y-99016330D01*
X196198115Y-99502511D01*
X196084041Y-100076000D01*
X194059959Y-100076000D01*
X193945885Y-99502511D01*
X193621029Y-99016330D01*
X193134848Y-98691474D01*
X192561359Y-98577400D01*
X192502641Y-98577400D01*
X191929152Y-98691474D01*
X191442971Y-99016330D01*
X191262008Y-99287161D01*
X190880490Y-98869179D01*
X190351027Y-98621032D01*
X190119000Y-98741531D01*
X189865000Y-98741531D01*
X189632973Y-98621032D01*
X189103510Y-98869179D01*
X188722000Y-99287152D01*
X188340490Y-98869179D01*
X187811027Y-98621032D01*
X187579000Y-98741531D01*
X187325000Y-98741531D01*
X187092973Y-98621032D01*
X186563510Y-98869179D01*
X186181992Y-99287161D01*
X186001029Y-99016330D01*
X185797000Y-98880002D01*
X185797000Y-96378580D01*
X188331787Y-93843792D01*
X188331790Y-93843790D01*
X188523633Y-93556675D01*
X188534810Y-93500484D01*
X188591001Y-93218000D01*
X188591000Y-93217995D01*
X188591000Y-91725750D01*
X189015000Y-91725750D01*
X189015000Y-92416310D01*
X189111673Y-92649699D01*
X189290302Y-92828327D01*
X189523691Y-92925000D01*
X190214250Y-92925000D01*
X190373000Y-92766250D01*
X190373000Y-91567000D01*
X190627000Y-91567000D01*
X190627000Y-92766250D01*
X190785750Y-92925000D01*
X191476309Y-92925000D01*
X191709698Y-92828327D01*
X191888327Y-92649699D01*
X191985000Y-92416310D01*
X191985000Y-91725750D01*
X196635000Y-91725750D01*
X196635000Y-92416310D01*
X196731673Y-92649699D01*
X196910302Y-92828327D01*
X197143691Y-92925000D01*
X197834250Y-92925000D01*
X197993000Y-92766250D01*
X197993000Y-91567000D01*
X198247000Y-91567000D01*
X198247000Y-92766250D01*
X198405750Y-92925000D01*
X199096309Y-92925000D01*
X199329698Y-92828327D01*
X199508327Y-92649699D01*
X199605000Y-92416310D01*
X199605000Y-91725750D01*
X204255000Y-91725750D01*
X204255000Y-92416310D01*
X204351673Y-92649699D01*
X204530302Y-92828327D01*
X204763691Y-92925000D01*
X205454250Y-92925000D01*
X205613000Y-92766250D01*
X205613000Y-91567000D01*
X205867000Y-91567000D01*
X205867000Y-92766250D01*
X206025750Y-92925000D01*
X206716309Y-92925000D01*
X206949698Y-92828327D01*
X207128327Y-92649699D01*
X207225000Y-92416310D01*
X207225000Y-91725750D01*
X207066250Y-91567000D01*
X205867000Y-91567000D01*
X205613000Y-91567000D01*
X204413750Y-91567000D01*
X204255000Y-91725750D01*
X199605000Y-91725750D01*
X199446250Y-91567000D01*
X198247000Y-91567000D01*
X197993000Y-91567000D01*
X196793750Y-91567000D01*
X196635000Y-91725750D01*
X191985000Y-91725750D01*
X191826250Y-91567000D01*
X190627000Y-91567000D01*
X190373000Y-91567000D01*
X189173750Y-91567000D01*
X189015000Y-91725750D01*
X188591000Y-91725750D01*
X188591000Y-90463690D01*
X189015000Y-90463690D01*
X189015000Y-91154250D01*
X189173750Y-91313000D01*
X190373000Y-91313000D01*
X190373000Y-89027000D01*
X190627000Y-89027000D01*
X190627000Y-91313000D01*
X191826250Y-91313000D01*
X191985000Y-91154250D01*
X191985000Y-90463690D01*
X196635000Y-90463690D01*
X196635000Y-91154250D01*
X196793750Y-91313000D01*
X197993000Y-91313000D01*
X197993000Y-89027000D01*
X198247000Y-89027000D01*
X198247000Y-91313000D01*
X199446250Y-91313000D01*
X199605000Y-91154250D01*
X199605000Y-90463690D01*
X204255000Y-90463690D01*
X204255000Y-91154250D01*
X204413750Y-91313000D01*
X205613000Y-91313000D01*
X205613000Y-89027000D01*
X205867000Y-89027000D01*
X205867000Y-91313000D01*
X207066250Y-91313000D01*
X207225000Y-91154250D01*
X207225000Y-90463690D01*
X207128327Y-90230301D01*
X206949698Y-90051673D01*
X206740122Y-89964864D01*
X207011645Y-89666924D01*
X207181476Y-89256890D01*
X207060155Y-89027000D01*
X205867000Y-89027000D01*
X205613000Y-89027000D01*
X204419845Y-89027000D01*
X204298524Y-89256890D01*
X204468355Y-89666924D01*
X204739878Y-89964864D01*
X204530302Y-90051673D01*
X204351673Y-90230301D01*
X204255000Y-90463690D01*
X199605000Y-90463690D01*
X199508327Y-90230301D01*
X199329698Y-90051673D01*
X199120122Y-89964864D01*
X199391645Y-89666924D01*
X199561476Y-89256890D01*
X199440155Y-89027000D01*
X198247000Y-89027000D01*
X197993000Y-89027000D01*
X196799845Y-89027000D01*
X196678524Y-89256890D01*
X196848355Y-89666924D01*
X197119878Y-89964864D01*
X196910302Y-90051673D01*
X196731673Y-90230301D01*
X196635000Y-90463690D01*
X191985000Y-90463690D01*
X191888327Y-90230301D01*
X191709698Y-90051673D01*
X191500122Y-89964864D01*
X191771645Y-89666924D01*
X191941476Y-89256890D01*
X191820155Y-89027000D01*
X190627000Y-89027000D01*
X190373000Y-89027000D01*
X189179845Y-89027000D01*
X189058524Y-89256890D01*
X189228355Y-89666924D01*
X189499878Y-89964864D01*
X189290302Y-90051673D01*
X189111673Y-90230301D01*
X189015000Y-90463690D01*
X188591000Y-90463690D01*
X188591000Y-83820000D01*
X188985907Y-83820000D01*
X189098946Y-84388285D01*
X189420853Y-84870054D01*
X189750026Y-85090000D01*
X189420853Y-85309946D01*
X189098946Y-85791715D01*
X188985907Y-86360000D01*
X189098946Y-86928285D01*
X189420853Y-87410054D01*
X189761553Y-87637702D01*
X189618642Y-87704817D01*
X189228355Y-88133076D01*
X189058524Y-88543110D01*
X189179845Y-88773000D01*
X190373000Y-88773000D01*
X190373000Y-88753000D01*
X190627000Y-88753000D01*
X190627000Y-88773000D01*
X191820155Y-88773000D01*
X191941476Y-88543110D01*
X191771645Y-88133076D01*
X191381358Y-87704817D01*
X191238447Y-87637702D01*
X191579147Y-87410054D01*
X191901054Y-86928285D01*
X192014093Y-86360000D01*
X191901054Y-85791715D01*
X191579147Y-85309946D01*
X191249974Y-85090000D01*
X191579147Y-84870054D01*
X191901054Y-84388285D01*
X192014093Y-83820000D01*
X196605907Y-83820000D01*
X196718946Y-84388285D01*
X197040853Y-84870054D01*
X197370026Y-85090000D01*
X197040853Y-85309946D01*
X196718946Y-85791715D01*
X196605907Y-86360000D01*
X196718946Y-86928285D01*
X197040853Y-87410054D01*
X197381553Y-87637702D01*
X197238642Y-87704817D01*
X196848355Y-88133076D01*
X196678524Y-88543110D01*
X196799845Y-88773000D01*
X197993000Y-88773000D01*
X197993000Y-88753000D01*
X198247000Y-88753000D01*
X198247000Y-88773000D01*
X199440155Y-88773000D01*
X199561476Y-88543110D01*
X199391645Y-88133076D01*
X199001358Y-87704817D01*
X198858447Y-87637702D01*
X199199147Y-87410054D01*
X199521054Y-86928285D01*
X199634093Y-86360000D01*
X199521054Y-85791715D01*
X199199147Y-85309946D01*
X198869974Y-85090000D01*
X199199147Y-84870054D01*
X199521054Y-84388285D01*
X199634093Y-83820000D01*
X204225907Y-83820000D01*
X204338946Y-84388285D01*
X204660853Y-84870054D01*
X204990026Y-85090000D01*
X204660853Y-85309946D01*
X204338946Y-85791715D01*
X204225907Y-86360000D01*
X204338946Y-86928285D01*
X204660853Y-87410054D01*
X205001553Y-87637702D01*
X204858642Y-87704817D01*
X204468355Y-88133076D01*
X204298524Y-88543110D01*
X204419845Y-88773000D01*
X205613000Y-88773000D01*
X205613000Y-88753000D01*
X205867000Y-88753000D01*
X205867000Y-88773000D01*
X207060155Y-88773000D01*
X207181476Y-88543110D01*
X207011645Y-88133076D01*
X206621358Y-87704817D01*
X206478447Y-87637702D01*
X206819147Y-87410054D01*
X207141054Y-86928285D01*
X207254093Y-86360000D01*
X207141054Y-85791715D01*
X206819147Y-85309946D01*
X206489974Y-85090000D01*
X206819147Y-84870054D01*
X207141054Y-84388285D01*
X207254093Y-83820000D01*
X207141054Y-83251715D01*
X206819147Y-82769946D01*
X206337378Y-82448039D01*
X205769093Y-82335000D01*
X205710907Y-82335000D01*
X205142622Y-82448039D01*
X204660853Y-82769946D01*
X204338946Y-83251715D01*
X204225907Y-83820000D01*
X199634093Y-83820000D01*
X199521054Y-83251715D01*
X199199147Y-82769946D01*
X198717378Y-82448039D01*
X198149093Y-82335000D01*
X198090907Y-82335000D01*
X197522622Y-82448039D01*
X197040853Y-82769946D01*
X196718946Y-83251715D01*
X196605907Y-83820000D01*
X192014093Y-83820000D01*
X191901054Y-83251715D01*
X191579147Y-82769946D01*
X191097378Y-82448039D01*
X190529093Y-82335000D01*
X190470907Y-82335000D01*
X189902622Y-82448039D01*
X189420853Y-82769946D01*
X189098946Y-83251715D01*
X188985907Y-83820000D01*
X188591000Y-83820000D01*
X188591000Y-73772580D01*
X190227579Y-72136000D01*
X208911041Y-72136000D01*
X209025115Y-72709489D01*
X209349971Y-73195670D01*
X209664752Y-73406000D01*
X209349971Y-73616330D01*
X209025115Y-74102511D01*
X208911041Y-74676000D01*
X209025115Y-75249489D01*
X209349971Y-75735670D01*
X209664752Y-75946000D01*
X209349971Y-76156330D01*
X209025115Y-76642511D01*
X208911041Y-77216000D01*
X209025115Y-77789489D01*
X209349971Y-78275670D01*
X209836152Y-78600526D01*
X210409641Y-78714600D01*
X210468359Y-78714600D01*
X211041848Y-78600526D01*
X211528029Y-78275670D01*
X211709000Y-78004828D01*
X211889971Y-78275670D01*
X212376152Y-78600526D01*
X212949641Y-78714600D01*
X213008359Y-78714600D01*
X213581848Y-78600526D01*
X214068029Y-78275670D01*
X214392885Y-77789489D01*
X214506959Y-77216000D01*
X214392885Y-76642511D01*
X214068029Y-76156330D01*
X213753248Y-75946000D01*
X214068029Y-75735670D01*
X214392885Y-75249489D01*
X214506959Y-74676000D01*
X214392885Y-74102511D01*
X214068029Y-73616330D01*
X213753248Y-73406000D01*
X214068029Y-73195670D01*
X214392885Y-72709489D01*
X214506959Y-72136000D01*
X214392885Y-71562511D01*
X214068029Y-71076330D01*
X213581848Y-70751474D01*
X213008359Y-70637400D01*
X212949641Y-70637400D01*
X212376152Y-70751474D01*
X211889971Y-71076330D01*
X211709000Y-71347172D01*
X211528029Y-71076330D01*
X211041848Y-70751474D01*
X210468359Y-70637400D01*
X210409641Y-70637400D01*
X209836152Y-70751474D01*
X209349971Y-71076330D01*
X209025115Y-71562511D01*
X208911041Y-72136000D01*
X190227579Y-72136000D01*
X193497829Y-68865750D01*
X196635000Y-68865750D01*
X196635000Y-69556310D01*
X196731673Y-69789699D01*
X196910302Y-69968327D01*
X197143691Y-70065000D01*
X197834250Y-70065000D01*
X197993000Y-69906250D01*
X197993000Y-68707000D01*
X198247000Y-68707000D01*
X198247000Y-69906250D01*
X198405750Y-70065000D01*
X199096309Y-70065000D01*
X199329698Y-69968327D01*
X199508327Y-69789699D01*
X199605000Y-69556310D01*
X199605000Y-68865750D01*
X204255000Y-68865750D01*
X204255000Y-69556310D01*
X204351673Y-69789699D01*
X204530302Y-69968327D01*
X204763691Y-70065000D01*
X205454250Y-70065000D01*
X205613000Y-69906250D01*
X205613000Y-68707000D01*
X205867000Y-68707000D01*
X205867000Y-69906250D01*
X206025750Y-70065000D01*
X206716309Y-70065000D01*
X206949698Y-69968327D01*
X207128327Y-69789699D01*
X207225000Y-69556310D01*
X207225000Y-68865750D01*
X207066250Y-68707000D01*
X205867000Y-68707000D01*
X205613000Y-68707000D01*
X204413750Y-68707000D01*
X204255000Y-68865750D01*
X199605000Y-68865750D01*
X199446250Y-68707000D01*
X198247000Y-68707000D01*
X197993000Y-68707000D01*
X196793750Y-68707000D01*
X196635000Y-68865750D01*
X193497829Y-68865750D01*
X195438579Y-66925000D01*
X196930568Y-66925000D01*
X197040853Y-67090054D01*
X197084777Y-67119403D01*
X196910302Y-67191673D01*
X196731673Y-67370301D01*
X196635000Y-67603690D01*
X196635000Y-68294250D01*
X196793750Y-68453000D01*
X197993000Y-68453000D01*
X197993000Y-68433000D01*
X198247000Y-68433000D01*
X198247000Y-68453000D01*
X199446250Y-68453000D01*
X199605000Y-68294250D01*
X199605000Y-67603690D01*
X199508327Y-67370301D01*
X199329698Y-67191673D01*
X199155223Y-67119403D01*
X199199147Y-67090054D01*
X199309432Y-66925000D01*
X204550568Y-66925000D01*
X204660853Y-67090054D01*
X204704777Y-67119403D01*
X204530302Y-67191673D01*
X204351673Y-67370301D01*
X204255000Y-67603690D01*
X204255000Y-68294250D01*
X204413750Y-68453000D01*
X205613000Y-68453000D01*
X205613000Y-68433000D01*
X205867000Y-68433000D01*
X205867000Y-68453000D01*
X207066250Y-68453000D01*
X207225000Y-68294250D01*
X207225000Y-67603690D01*
X207128327Y-67370301D01*
X206949698Y-67191673D01*
X206775223Y-67119403D01*
X206819147Y-67090054D01*
X207141054Y-66608285D01*
X207254093Y-66040000D01*
X207141054Y-65471715D01*
X206819147Y-64989946D01*
X206489974Y-64770000D01*
X206819147Y-64550054D01*
X207141054Y-64068285D01*
X207254093Y-63500000D01*
X207141054Y-62931715D01*
X206819147Y-62449946D01*
X206489974Y-62230000D01*
X206819147Y-62010054D01*
X207141054Y-61528285D01*
X207254093Y-60960000D01*
X207141054Y-60391715D01*
X206819147Y-59909946D01*
X206337378Y-59588039D01*
X205769093Y-59475000D01*
X205710907Y-59475000D01*
X205142622Y-59588039D01*
X204660853Y-59909946D01*
X204338946Y-60391715D01*
X204225907Y-60960000D01*
X204338946Y-61528285D01*
X204660853Y-62010054D01*
X204990026Y-62230000D01*
X204660853Y-62449946D01*
X204338946Y-62931715D01*
X204225907Y-63500000D01*
X204338946Y-64068285D01*
X204660853Y-64550054D01*
X204990026Y-64770000D01*
X204660853Y-64989946D01*
X204550568Y-65155000D01*
X199309432Y-65155000D01*
X199199147Y-64989946D01*
X198869974Y-64770000D01*
X199199147Y-64550054D01*
X199521054Y-64068285D01*
X199634093Y-63500000D01*
X199521054Y-62931715D01*
X199199147Y-62449946D01*
X198869974Y-62230000D01*
X199199147Y-62010054D01*
X199521054Y-61528285D01*
X199634093Y-60960000D01*
X199521054Y-60391715D01*
X199199147Y-59909946D01*
X198717378Y-59588039D01*
X198149093Y-59475000D01*
X198090907Y-59475000D01*
X197522622Y-59588039D01*
X197040853Y-59909946D01*
X196718946Y-60391715D01*
X196605907Y-60960000D01*
X196718946Y-61528285D01*
X197040853Y-62010054D01*
X197370026Y-62230000D01*
X197040853Y-62449946D01*
X196718946Y-62931715D01*
X196605907Y-63500000D01*
X196718946Y-64068285D01*
X197040853Y-64550054D01*
X197370026Y-64770000D01*
X197040853Y-64989946D01*
X196930568Y-65155000D01*
X195072005Y-65155000D01*
X195072000Y-65154999D01*
X194733325Y-65222367D01*
X194446210Y-65414210D01*
X194446208Y-65414213D01*
X187080210Y-72780210D01*
X186888367Y-73067325D01*
X186888367Y-73067326D01*
X186820999Y-73406000D01*
X186821000Y-73406005D01*
X186821000Y-92851421D01*
X184286210Y-95386210D01*
X184094367Y-95673325D01*
X184094367Y-95673326D01*
X184026999Y-96012000D01*
X184027000Y-96012005D01*
X184027000Y-98880002D01*
X183822971Y-99016330D01*
X183642000Y-99287172D01*
X183461029Y-99016330D01*
X182974848Y-98691474D01*
X182401359Y-98577400D01*
X182342641Y-98577400D01*
X181769152Y-98691474D01*
X181282971Y-99016330D01*
X181102000Y-99287172D01*
X180921029Y-99016330D01*
X180434848Y-98691474D01*
X179861359Y-98577400D01*
X179802641Y-98577400D01*
X179229152Y-98691474D01*
X178742971Y-99016330D01*
X178562000Y-99287172D01*
X178381029Y-99016330D01*
X177894848Y-98691474D01*
X177321359Y-98577400D01*
X177262641Y-98577400D01*
X176689152Y-98691474D01*
X176202971Y-99016330D01*
X176022000Y-99287172D01*
X175841029Y-99016330D01*
X175354848Y-98691474D01*
X174781359Y-98577400D01*
X174722641Y-98577400D01*
X174149152Y-98691474D01*
X173662971Y-99016330D01*
X173338115Y-99502511D01*
X173224041Y-100076000D01*
X163017000Y-100076000D01*
X163017387Y-99633381D01*
X162677845Y-98811628D01*
X162049679Y-98182364D01*
X161228519Y-97841389D01*
X160339381Y-97840613D01*
X159517628Y-98180155D01*
X158888364Y-98808321D01*
X158547389Y-99629481D01*
X158546613Y-100518619D01*
X158886155Y-101340372D01*
X159450796Y-101906000D01*
X147522000Y-101906000D01*
X147522000Y-91725750D01*
X166155000Y-91725750D01*
X166155000Y-92416310D01*
X166251673Y-92649699D01*
X166430302Y-92828327D01*
X166663691Y-92925000D01*
X167354250Y-92925000D01*
X167513000Y-92766250D01*
X167513000Y-91567000D01*
X167767000Y-91567000D01*
X167767000Y-92766250D01*
X167925750Y-92925000D01*
X168616309Y-92925000D01*
X168849698Y-92828327D01*
X169028327Y-92649699D01*
X169125000Y-92416310D01*
X169125000Y-91725750D01*
X173775000Y-91725750D01*
X173775000Y-92416310D01*
X173871673Y-92649699D01*
X174050302Y-92828327D01*
X174283691Y-92925000D01*
X174974250Y-92925000D01*
X175133000Y-92766250D01*
X175133000Y-91567000D01*
X175387000Y-91567000D01*
X175387000Y-92766250D01*
X175545750Y-92925000D01*
X176236309Y-92925000D01*
X176469698Y-92828327D01*
X176648327Y-92649699D01*
X176745000Y-92416310D01*
X176745000Y-91725750D01*
X181395000Y-91725750D01*
X181395000Y-92416310D01*
X181491673Y-92649699D01*
X181670302Y-92828327D01*
X181903691Y-92925000D01*
X182594250Y-92925000D01*
X182753000Y-92766250D01*
X182753000Y-91567000D01*
X183007000Y-91567000D01*
X183007000Y-92766250D01*
X183165750Y-92925000D01*
X183856309Y-92925000D01*
X184089698Y-92828327D01*
X184268327Y-92649699D01*
X184365000Y-92416310D01*
X184365000Y-91725750D01*
X184206250Y-91567000D01*
X183007000Y-91567000D01*
X182753000Y-91567000D01*
X181553750Y-91567000D01*
X181395000Y-91725750D01*
X176745000Y-91725750D01*
X176586250Y-91567000D01*
X175387000Y-91567000D01*
X175133000Y-91567000D01*
X173933750Y-91567000D01*
X173775000Y-91725750D01*
X169125000Y-91725750D01*
X168966250Y-91567000D01*
X167767000Y-91567000D01*
X167513000Y-91567000D01*
X166313750Y-91567000D01*
X166155000Y-91725750D01*
X147522000Y-91725750D01*
X147522000Y-90463690D01*
X166155000Y-90463690D01*
X166155000Y-91154250D01*
X166313750Y-91313000D01*
X167513000Y-91313000D01*
X167513000Y-89027000D01*
X167767000Y-89027000D01*
X167767000Y-91313000D01*
X168966250Y-91313000D01*
X169125000Y-91154250D01*
X169125000Y-90463690D01*
X173775000Y-90463690D01*
X173775000Y-91154250D01*
X173933750Y-91313000D01*
X175133000Y-91313000D01*
X175133000Y-89027000D01*
X175387000Y-89027000D01*
X175387000Y-91313000D01*
X176586250Y-91313000D01*
X176745000Y-91154250D01*
X176745000Y-90463690D01*
X181395000Y-90463690D01*
X181395000Y-91154250D01*
X181553750Y-91313000D01*
X182753000Y-91313000D01*
X182753000Y-89027000D01*
X183007000Y-89027000D01*
X183007000Y-91313000D01*
X184206250Y-91313000D01*
X184365000Y-91154250D01*
X184365000Y-90463690D01*
X184268327Y-90230301D01*
X184089698Y-90051673D01*
X183880122Y-89964864D01*
X184151645Y-89666924D01*
X184321476Y-89256890D01*
X184200155Y-89027000D01*
X183007000Y-89027000D01*
X182753000Y-89027000D01*
X181559845Y-89027000D01*
X181438524Y-89256890D01*
X181608355Y-89666924D01*
X181879878Y-89964864D01*
X181670302Y-90051673D01*
X181491673Y-90230301D01*
X181395000Y-90463690D01*
X176745000Y-90463690D01*
X176648327Y-90230301D01*
X176469698Y-90051673D01*
X176260122Y-89964864D01*
X176531645Y-89666924D01*
X176701476Y-89256890D01*
X176580155Y-89027000D01*
X175387000Y-89027000D01*
X175133000Y-89027000D01*
X173939845Y-89027000D01*
X173818524Y-89256890D01*
X173988355Y-89666924D01*
X174259878Y-89964864D01*
X174050302Y-90051673D01*
X173871673Y-90230301D01*
X173775000Y-90463690D01*
X169125000Y-90463690D01*
X169028327Y-90230301D01*
X168849698Y-90051673D01*
X168640122Y-89964864D01*
X168911645Y-89666924D01*
X169081476Y-89256890D01*
X168960155Y-89027000D01*
X167767000Y-89027000D01*
X167513000Y-89027000D01*
X166319845Y-89027000D01*
X166198524Y-89256890D01*
X166368355Y-89666924D01*
X166639878Y-89964864D01*
X166430302Y-90051673D01*
X166251673Y-90230301D01*
X166155000Y-90463690D01*
X147522000Y-90463690D01*
X147522000Y-83820000D01*
X166125907Y-83820000D01*
X166238946Y-84388285D01*
X166560853Y-84870054D01*
X166890026Y-85090000D01*
X166560853Y-85309946D01*
X166238946Y-85791715D01*
X166125907Y-86360000D01*
X166238946Y-86928285D01*
X166560853Y-87410054D01*
X166901553Y-87637702D01*
X166758642Y-87704817D01*
X166368355Y-88133076D01*
X166198524Y-88543110D01*
X166319845Y-88773000D01*
X167513000Y-88773000D01*
X167513000Y-88753000D01*
X167767000Y-88753000D01*
X167767000Y-88773000D01*
X168960155Y-88773000D01*
X169081476Y-88543110D01*
X168911645Y-88133076D01*
X168521358Y-87704817D01*
X168378447Y-87637702D01*
X168719147Y-87410054D01*
X169041054Y-86928285D01*
X169154093Y-86360000D01*
X169041054Y-85791715D01*
X168719147Y-85309946D01*
X168389974Y-85090000D01*
X168719147Y-84870054D01*
X169041054Y-84388285D01*
X169154093Y-83820000D01*
X173745907Y-83820000D01*
X173858946Y-84388285D01*
X174180853Y-84870054D01*
X174510026Y-85090000D01*
X174180853Y-85309946D01*
X173858946Y-85791715D01*
X173745907Y-86360000D01*
X173858946Y-86928285D01*
X174180853Y-87410054D01*
X174521553Y-87637702D01*
X174378642Y-87704817D01*
X173988355Y-88133076D01*
X173818524Y-88543110D01*
X173939845Y-88773000D01*
X175133000Y-88773000D01*
X175133000Y-88753000D01*
X175387000Y-88753000D01*
X175387000Y-88773000D01*
X176580155Y-88773000D01*
X176701476Y-88543110D01*
X176531645Y-88133076D01*
X176141358Y-87704817D01*
X175998447Y-87637702D01*
X176339147Y-87410054D01*
X176661054Y-86928285D01*
X176774093Y-86360000D01*
X176661054Y-85791715D01*
X176339147Y-85309946D01*
X176009974Y-85090000D01*
X176339147Y-84870054D01*
X176661054Y-84388285D01*
X176774093Y-83820000D01*
X181365907Y-83820000D01*
X181478946Y-84388285D01*
X181800853Y-84870054D01*
X182130026Y-85090000D01*
X181800853Y-85309946D01*
X181478946Y-85791715D01*
X181365907Y-86360000D01*
X181478946Y-86928285D01*
X181800853Y-87410054D01*
X182141553Y-87637702D01*
X181998642Y-87704817D01*
X181608355Y-88133076D01*
X181438524Y-88543110D01*
X181559845Y-88773000D01*
X182753000Y-88773000D01*
X182753000Y-88753000D01*
X183007000Y-88753000D01*
X183007000Y-88773000D01*
X184200155Y-88773000D01*
X184321476Y-88543110D01*
X184151645Y-88133076D01*
X183761358Y-87704817D01*
X183618447Y-87637702D01*
X183959147Y-87410054D01*
X184281054Y-86928285D01*
X184394093Y-86360000D01*
X184281054Y-85791715D01*
X183959147Y-85309946D01*
X183629974Y-85090000D01*
X183959147Y-84870054D01*
X184281054Y-84388285D01*
X184394093Y-83820000D01*
X184281054Y-83251715D01*
X183959147Y-82769946D01*
X183477378Y-82448039D01*
X182909093Y-82335000D01*
X182850907Y-82335000D01*
X182282622Y-82448039D01*
X181800853Y-82769946D01*
X181478946Y-83251715D01*
X181365907Y-83820000D01*
X176774093Y-83820000D01*
X176661054Y-83251715D01*
X176339147Y-82769946D01*
X175857378Y-82448039D01*
X175289093Y-82335000D01*
X175230907Y-82335000D01*
X174662622Y-82448039D01*
X174180853Y-82769946D01*
X173858946Y-83251715D01*
X173745907Y-83820000D01*
X169154093Y-83820000D01*
X169041054Y-83251715D01*
X168719147Y-82769946D01*
X168237378Y-82448039D01*
X167669093Y-82335000D01*
X167610907Y-82335000D01*
X167042622Y-82448039D01*
X166560853Y-82769946D01*
X166238946Y-83251715D01*
X166125907Y-83820000D01*
X147522000Y-83820000D01*
X147522000Y-67595750D01*
X155995000Y-67595750D01*
X155995000Y-68286310D01*
X156091673Y-68519699D01*
X156270302Y-68698327D01*
X156503691Y-68795000D01*
X157194250Y-68795000D01*
X157353000Y-68636250D01*
X157353000Y-67437000D01*
X156153750Y-67437000D01*
X155995000Y-67595750D01*
X147522000Y-67595750D01*
X147522000Y-64770000D01*
X155965907Y-64770000D01*
X156078946Y-65338285D01*
X156400853Y-65820054D01*
X156444777Y-65849403D01*
X156270302Y-65921673D01*
X156091673Y-66100301D01*
X155995000Y-66333690D01*
X155995000Y-67024250D01*
X156153750Y-67183000D01*
X157353000Y-67183000D01*
X157353000Y-67163000D01*
X157607000Y-67163000D01*
X157607000Y-67183000D01*
X157627000Y-67183000D01*
X157627000Y-67437000D01*
X157607000Y-67437000D01*
X157607000Y-68636250D01*
X157765750Y-68795000D01*
X158456309Y-68795000D01*
X158689698Y-68698327D01*
X158868327Y-68519699D01*
X158965000Y-68286310D01*
X158965000Y-67595750D01*
X158806252Y-67437002D01*
X158965000Y-67437002D01*
X158965000Y-67329802D01*
X163292599Y-71657401D01*
X163539161Y-71822148D01*
X163830000Y-71880000D01*
X178308000Y-71880000D01*
X178598839Y-71822148D01*
X178845401Y-71657401D01*
X197253644Y-53249158D01*
X197582641Y-53314600D01*
X197641359Y-53314600D01*
X198214848Y-53200526D01*
X198701029Y-52875670D01*
X198882000Y-52604828D01*
X199062971Y-52875670D01*
X199549152Y-53200526D01*
X200122641Y-53314600D01*
X200181359Y-53314600D01*
X200754848Y-53200526D01*
X201241029Y-52875670D01*
X201422000Y-52604828D01*
X201602971Y-52875670D01*
X202089152Y-53200526D01*
X202662641Y-53314600D01*
X202721359Y-53314600D01*
X203294848Y-53200526D01*
X203781029Y-52875670D01*
X203962000Y-52604828D01*
X204142971Y-52875670D01*
X204629152Y-53200526D01*
X205202641Y-53314600D01*
X205261359Y-53314600D01*
X205834848Y-53200526D01*
X206321029Y-52875670D01*
X206502000Y-52604828D01*
X206682971Y-52875670D01*
X207169152Y-53200526D01*
X207742641Y-53314600D01*
X207801359Y-53314600D01*
X208374848Y-53200526D01*
X208861029Y-52875670D01*
X209042000Y-52604828D01*
X209222971Y-52875670D01*
X209709152Y-53200526D01*
X210282641Y-53314600D01*
X210341359Y-53314600D01*
X210914848Y-53200526D01*
X211401029Y-52875670D01*
X211725885Y-52389489D01*
X211839959Y-51816000D01*
X211725885Y-51242511D01*
X211401029Y-50756330D01*
X210914848Y-50431474D01*
X210341359Y-50317400D01*
X210282641Y-50317400D01*
X209709152Y-50431474D01*
X209222971Y-50756330D01*
X209042000Y-51027172D01*
X208861029Y-50756330D01*
X208374848Y-50431474D01*
X207801359Y-50317400D01*
X207742641Y-50317400D01*
X207169152Y-50431474D01*
X206682971Y-50756330D01*
X206502000Y-51027172D01*
X206321029Y-50756330D01*
X205834848Y-50431474D01*
X205261359Y-50317400D01*
X205202641Y-50317400D01*
X204629152Y-50431474D01*
X204142971Y-50756330D01*
X203962000Y-51027172D01*
X203781029Y-50756330D01*
X203294848Y-50431474D01*
X202721359Y-50317400D01*
X202662641Y-50317400D01*
X202089152Y-50431474D01*
X201602971Y-50756330D01*
X201422000Y-51027172D01*
X201241029Y-50756330D01*
X200754848Y-50431474D01*
X200181359Y-50317400D01*
X200122641Y-50317400D01*
X199549152Y-50431474D01*
X199062971Y-50756330D01*
X198882000Y-51027172D01*
X198701029Y-50756330D01*
X198214848Y-50431474D01*
X197641359Y-50317400D01*
X197582641Y-50317400D01*
X197009152Y-50431474D01*
X196522971Y-50756330D01*
X196342000Y-51027172D01*
X196161029Y-50756330D01*
X195674848Y-50431474D01*
X195101359Y-50317400D01*
X195042641Y-50317400D01*
X194469152Y-50431474D01*
X193982971Y-50756330D01*
X193802000Y-51027172D01*
X193621029Y-50756330D01*
X193134848Y-50431474D01*
X192561359Y-50317400D01*
X192502641Y-50317400D01*
X191929152Y-50431474D01*
X191442971Y-50756330D01*
X191118115Y-51242511D01*
X191004041Y-51816000D01*
X191118115Y-52389489D01*
X191442971Y-52875670D01*
X191929152Y-53200526D01*
X192502641Y-53314600D01*
X192561359Y-53314600D01*
X193134848Y-53200526D01*
X193621029Y-52875670D01*
X193802000Y-52604828D01*
X193982971Y-52875670D01*
X194469152Y-53200526D01*
X195039269Y-53313929D01*
X177993198Y-70360000D01*
X164144802Y-70360000D01*
X162650552Y-68865750D01*
X166155000Y-68865750D01*
X166155000Y-69556310D01*
X166251673Y-69789699D01*
X166430302Y-69968327D01*
X166663691Y-70065000D01*
X167354250Y-70065000D01*
X167513000Y-69906250D01*
X167513000Y-68707000D01*
X167767000Y-68707000D01*
X167767000Y-69906250D01*
X167925750Y-70065000D01*
X168616309Y-70065000D01*
X168849698Y-69968327D01*
X169028327Y-69789699D01*
X169125000Y-69556310D01*
X169125000Y-68865750D01*
X168966250Y-68707000D01*
X167767000Y-68707000D01*
X167513000Y-68707000D01*
X166313750Y-68707000D01*
X166155000Y-68865750D01*
X162650552Y-68865750D01*
X161388492Y-67603690D01*
X166155000Y-67603690D01*
X166155000Y-68294250D01*
X166313750Y-68453000D01*
X167513000Y-68453000D01*
X167513000Y-66167000D01*
X167767000Y-66167000D01*
X167767000Y-68453000D01*
X168966250Y-68453000D01*
X169125000Y-68294250D01*
X169125000Y-67603690D01*
X169028327Y-67370301D01*
X168849698Y-67191673D01*
X168640122Y-67104864D01*
X168911645Y-66806924D01*
X169081476Y-66396890D01*
X168960155Y-66167000D01*
X167767000Y-66167000D01*
X167513000Y-66167000D01*
X166319845Y-66167000D01*
X166198524Y-66396890D01*
X166368355Y-66806924D01*
X166639878Y-67104864D01*
X166430302Y-67191673D01*
X166251673Y-67370301D01*
X166155000Y-67603690D01*
X161388492Y-67603690D01*
X158921210Y-65136408D01*
X158994093Y-64770000D01*
X158881054Y-64201715D01*
X158559147Y-63719946D01*
X158077378Y-63398039D01*
X157509093Y-63285000D01*
X157450907Y-63285000D01*
X156882622Y-63398039D01*
X156400853Y-63719946D01*
X156078946Y-64201715D01*
X155965907Y-64770000D01*
X147522000Y-64770000D01*
X147522000Y-60960000D01*
X166125907Y-60960000D01*
X166238946Y-61528285D01*
X166560853Y-62010054D01*
X166890026Y-62230000D01*
X166560853Y-62449946D01*
X166238946Y-62931715D01*
X166125907Y-63500000D01*
X166238946Y-64068285D01*
X166560853Y-64550054D01*
X166901553Y-64777702D01*
X166758642Y-64844817D01*
X166368355Y-65273076D01*
X166198524Y-65683110D01*
X166319845Y-65913000D01*
X167513000Y-65913000D01*
X167513000Y-65893000D01*
X167767000Y-65893000D01*
X167767000Y-65913000D01*
X168960155Y-65913000D01*
X169081476Y-65683110D01*
X168911645Y-65273076D01*
X168521358Y-64844817D01*
X168378447Y-64777702D01*
X168719147Y-64550054D01*
X169041054Y-64068285D01*
X169154093Y-63500000D01*
X169041054Y-62931715D01*
X168719147Y-62449946D01*
X168389974Y-62230000D01*
X168719147Y-62010054D01*
X168912954Y-61720000D01*
X171196000Y-61720000D01*
X171486839Y-61662148D01*
X171733401Y-61497401D01*
X178845401Y-54385401D01*
X179010148Y-54138839D01*
X179068000Y-53848000D01*
X179068000Y-53095520D01*
X179397029Y-52875670D01*
X179578000Y-52604828D01*
X179758971Y-52875670D01*
X180245152Y-53200526D01*
X180818641Y-53314600D01*
X180877359Y-53314600D01*
X181450848Y-53200526D01*
X181937029Y-52875670D01*
X182118000Y-52604828D01*
X182298971Y-52875670D01*
X182785152Y-53200526D01*
X183358641Y-53314600D01*
X183417359Y-53314600D01*
X183990848Y-53200526D01*
X184477029Y-52875670D01*
X184658000Y-52604828D01*
X184838971Y-52875670D01*
X185325152Y-53200526D01*
X185898641Y-53314600D01*
X185957359Y-53314600D01*
X186530848Y-53200526D01*
X187017029Y-52875670D01*
X187198000Y-52604828D01*
X187378971Y-52875670D01*
X187865152Y-53200526D01*
X188438641Y-53314600D01*
X188497359Y-53314600D01*
X189070848Y-53200526D01*
X189557029Y-52875670D01*
X189881885Y-52389489D01*
X189995959Y-51816000D01*
X189881885Y-51242511D01*
X189557029Y-50756330D01*
X189070848Y-50431474D01*
X188497359Y-50317400D01*
X188438641Y-50317400D01*
X187865152Y-50431474D01*
X187378971Y-50756330D01*
X187198000Y-51027172D01*
X187017029Y-50756330D01*
X186530848Y-50431474D01*
X185957359Y-50317400D01*
X185898641Y-50317400D01*
X185325152Y-50431474D01*
X184838971Y-50756330D01*
X184658000Y-51027172D01*
X184477029Y-50756330D01*
X183990848Y-50431474D01*
X183417359Y-50317400D01*
X183358641Y-50317400D01*
X182785152Y-50431474D01*
X182298971Y-50756330D01*
X182118000Y-51027172D01*
X181937029Y-50756330D01*
X181450848Y-50431474D01*
X180877359Y-50317400D01*
X180818641Y-50317400D01*
X180245152Y-50431474D01*
X179758971Y-50756330D01*
X179578000Y-51027172D01*
X179397029Y-50756330D01*
X178910848Y-50431474D01*
X178337359Y-50317400D01*
X178278641Y-50317400D01*
X177705152Y-50431474D01*
X177218971Y-50756330D01*
X177038000Y-51027172D01*
X176857029Y-50756330D01*
X176370848Y-50431474D01*
X175797359Y-50317400D01*
X175738641Y-50317400D01*
X175165152Y-50431474D01*
X174678971Y-50756330D01*
X174498008Y-51027161D01*
X174116490Y-50609179D01*
X173587027Y-50361032D01*
X173355000Y-50481531D01*
X173355000Y-51689000D01*
X173375000Y-51689000D01*
X173375000Y-51943000D01*
X173355000Y-51943000D01*
X173355000Y-53150469D01*
X173587027Y-53270968D01*
X174116490Y-53022821D01*
X174498008Y-52604839D01*
X174678971Y-52875670D01*
X175165152Y-53200526D01*
X175738641Y-53314600D01*
X175797359Y-53314600D01*
X176370848Y-53200526D01*
X176857029Y-52875670D01*
X177038000Y-52604828D01*
X177218971Y-52875670D01*
X177548000Y-53095520D01*
X177548000Y-53533198D01*
X170881198Y-60200000D01*
X168912954Y-60200000D01*
X168719147Y-59909946D01*
X168237378Y-59588039D01*
X167669093Y-59475000D01*
X167610907Y-59475000D01*
X167042622Y-59588039D01*
X166560853Y-59909946D01*
X166238946Y-60391715D01*
X166125907Y-60960000D01*
X147522000Y-60960000D01*
X147522000Y-59222092D01*
X148630091Y-58114000D01*
X156464000Y-58114000D01*
X156735705Y-58059954D01*
X156966046Y-57906046D01*
X158490043Y-56382048D01*
X158490046Y-56382046D01*
X158643954Y-56151705D01*
X158698000Y-55880000D01*
X158698000Y-51094092D01*
X159806091Y-49986000D01*
X160721668Y-49986000D01*
X160158364Y-50548321D01*
X160158364Y-50548321D01*
G37*
X160158364Y-50548321D02*
X159817389Y-51369481D01*
X159816613Y-52258619D01*
X160156155Y-53080372D01*
X160784321Y-53709636D01*
X161605481Y-54050611D01*
X162494619Y-54051387D01*
X163316372Y-53711845D01*
X163945636Y-53083679D01*
X164218645Y-52426200D01*
X164518971Y-52875670D01*
X165005152Y-53200526D01*
X165578641Y-53314600D01*
X165637359Y-53314600D01*
X166210848Y-53200526D01*
X166697029Y-52875670D01*
X166878000Y-52604828D01*
X167058971Y-52875670D01*
X167545152Y-53200526D01*
X168118641Y-53314600D01*
X168177359Y-53314600D01*
X168750848Y-53200526D01*
X169237029Y-52875670D01*
X169418000Y-52604828D01*
X169598971Y-52875670D01*
X170085152Y-53200526D01*
X170658641Y-53314600D01*
X170717359Y-53314600D01*
X171290848Y-53200526D01*
X171777029Y-52875670D01*
X171957992Y-52604839D01*
X172339510Y-53022821D01*
X172868973Y-53270968D01*
X173101000Y-53150469D01*
X173101000Y-51943000D01*
X173081000Y-51943000D01*
X173081000Y-51689000D01*
X173101000Y-51689000D01*
X173101000Y-50481531D01*
X172868973Y-50361032D01*
X172339510Y-50609179D01*
X171957992Y-51027161D01*
X171777029Y-50756330D01*
X171290848Y-50431474D01*
X170717359Y-50317400D01*
X170658641Y-50317400D01*
X170085152Y-50431474D01*
X169598971Y-50756330D01*
X169418000Y-51027172D01*
X169237029Y-50756330D01*
X168750848Y-50431474D01*
X168177359Y-50317400D01*
X168118641Y-50317400D01*
X167545152Y-50431474D01*
X167058971Y-50756330D01*
X166878000Y-51027172D01*
X166697029Y-50756330D01*
X166210848Y-50431474D01*
X165637359Y-50317400D01*
X165578641Y-50317400D01*
X165005152Y-50431474D01*
X164518971Y-50756330D01*
X164218335Y-51206263D01*
X163947845Y-50551628D01*
X163383204Y-49986000D01*
X211033908Y-49986000D01*
X212142000Y-51094091D01*
X212142000Y-61976000D01*
X212196046Y-62247705D01*
X212349954Y-62478046D01*
X214682000Y-64810091D01*
X214682000Y-65725668D01*
X214119679Y-65162364D01*
X213298519Y-64821389D01*
X212409381Y-64820613D01*
X211587628Y-65160155D01*
X210958364Y-65788321D01*
X210617389Y-66609481D01*
X210616613Y-67498619D01*
X210956155Y-68320372D01*
X211584321Y-68949636D01*
X212405481Y-69290611D01*
X213294619Y-69291387D01*
X214116372Y-68951845D01*
X214682000Y-68387204D01*
X214682000Y-93665668D01*
X214119679Y-93102364D01*
X213298519Y-92761389D01*
X212409381Y-92760613D01*
X211587628Y-93100155D01*
X210958364Y-93728321D01*
X210617389Y-94549481D01*
X210616613Y-95438619D01*
X210956155Y-96260372D01*
X211584321Y-96889636D01*
X212405481Y-97230611D01*
X213294619Y-97231387D01*
X214116372Y-96891845D01*
X214682000Y-96327204D01*
X214682000Y-98511909D01*
X212349954Y-100843954D01*
X212196046Y-101074295D01*
X212142000Y-101346000D01*
X212142000Y-101906000D01*
X162112332Y-101906000D01*
X162675636Y-101343679D01*
X163016611Y-100522519D01*
X163017000Y-100076000D01*
X173224041Y-100076000D01*
X173338115Y-100649489D01*
X173662971Y-101135670D01*
X174149152Y-101460526D01*
X174722641Y-101574600D01*
X174781359Y-101574600D01*
X175354848Y-101460526D01*
X175841029Y-101135670D01*
X176022000Y-100864828D01*
X176202971Y-101135670D01*
X176689152Y-101460526D01*
X177262641Y-101574600D01*
X177321359Y-101574600D01*
X177894848Y-101460526D01*
X178381029Y-101135670D01*
X178562000Y-100864828D01*
X178742971Y-101135670D01*
X179229152Y-101460526D01*
X179802641Y-101574600D01*
X179861359Y-101574600D01*
X180434848Y-101460526D01*
X180921029Y-101135670D01*
X181102000Y-100864828D01*
X181282971Y-101135670D01*
X181769152Y-101460526D01*
X182342641Y-101574600D01*
X182401359Y-101574600D01*
X182974848Y-101460526D01*
X183461029Y-101135670D01*
X183642000Y-100864828D01*
X183822971Y-101135670D01*
X184309152Y-101460526D01*
X184882641Y-101574600D01*
X184941359Y-101574600D01*
X185514848Y-101460526D01*
X186001029Y-101135670D01*
X186181992Y-100864839D01*
X186563510Y-101282821D01*
X187092973Y-101530968D01*
X187325000Y-101410469D01*
X187325000Y-100203000D01*
X187579000Y-100203000D01*
X187579000Y-101410469D01*
X187811027Y-101530968D01*
X188340490Y-101282821D01*
X188722000Y-100864848D01*
X189103510Y-101282821D01*
X189632973Y-101530968D01*
X189865000Y-101410469D01*
X189865000Y-100203000D01*
X187579000Y-100203000D01*
X187325000Y-100203000D01*
X187305000Y-100203000D01*
X187305000Y-99949000D01*
X187325000Y-99949000D01*
X187325000Y-98741531D01*
X187579000Y-98741531D01*
X187579000Y-99949000D01*
X189865000Y-99949000D01*
X189865000Y-98741531D01*
X190119000Y-98741531D01*
X190119000Y-99949000D01*
X190139000Y-99949000D01*
X190139000Y-100203000D01*
X190119000Y-100203000D01*
X190119000Y-101410469D01*
X190351027Y-101530968D01*
X190880490Y-101282821D01*
X191262008Y-100864839D01*
X191442971Y-101135670D01*
X191929152Y-101460526D01*
X192502641Y-101574600D01*
X192561359Y-101574600D01*
X193134848Y-101460526D01*
X193621029Y-101135670D01*
X193945885Y-100649489D01*
X194059959Y-100076000D01*
X196084041Y-100076000D01*
X196198115Y-100649489D01*
X196522971Y-101135670D01*
X197009152Y-101460526D01*
X197582641Y-101574600D01*
X197641359Y-101574600D01*
X198214848Y-101460526D01*
X198701029Y-101135670D01*
X198882000Y-100864828D01*
X199062971Y-101135670D01*
X199549152Y-101460526D01*
X200122641Y-101574600D01*
X200181359Y-101574600D01*
X200754848Y-101460526D01*
X201241029Y-101135670D01*
X201422000Y-100864828D01*
X201602971Y-101135670D01*
X202089152Y-101460526D01*
X202662641Y-101574600D01*
X202721359Y-101574600D01*
X203294848Y-101460526D01*
X203781029Y-101135670D01*
X203962000Y-100864828D01*
X204142971Y-101135670D01*
X204629152Y-101460526D01*
X205202641Y-101574600D01*
X205261359Y-101574600D01*
X205834848Y-101460526D01*
X206321029Y-101135670D01*
X206502000Y-100864828D01*
X206682971Y-101135670D01*
X207169152Y-101460526D01*
X207742641Y-101574600D01*
X207801359Y-101574600D01*
X208374848Y-101460526D01*
X208861029Y-101135670D01*
X209042000Y-100864828D01*
X209222971Y-101135670D01*
X209709152Y-101460526D01*
X210282641Y-101574600D01*
X210341359Y-101574600D01*
X210914848Y-101460526D01*
X211401029Y-101135670D01*
X211725885Y-100649489D01*
X211839959Y-100076000D01*
X211725885Y-99502511D01*
X211401029Y-99016330D01*
X210914848Y-98691474D01*
X210341359Y-98577400D01*
X210282641Y-98577400D01*
X209709152Y-98691474D01*
X209222971Y-99016330D01*
X209042000Y-99287172D01*
X208861029Y-99016330D01*
X208374848Y-98691474D01*
X207801359Y-98577400D01*
X207742641Y-98577400D01*
X207169152Y-98691474D01*
X206682971Y-99016330D01*
X206502000Y-99287172D01*
X206321029Y-99016330D01*
X205834848Y-98691474D01*
X205261359Y-98577400D01*
X205202641Y-98577400D01*
X204629152Y-98691474D01*
X204142971Y-99016330D01*
X203962000Y-99287172D01*
X203781029Y-99016330D01*
X203294848Y-98691474D01*
X202721359Y-98577400D01*
X202662641Y-98577400D01*
X202089152Y-98691474D01*
X201602971Y-99016330D01*
X201422000Y-99287172D01*
X201241029Y-99016330D01*
X200754848Y-98691474D01*
X200181359Y-98577400D01*
X200122641Y-98577400D01*
X199549152Y-98691474D01*
X199062971Y-99016330D01*
X198882000Y-99287172D01*
X198701029Y-99016330D01*
X198214848Y-98691474D01*
X197641359Y-98577400D01*
X197582641Y-98577400D01*
X197009152Y-98691474D01*
X196522971Y-99016330D01*
X196198115Y-99502511D01*
X196084041Y-100076000D01*
X194059959Y-100076000D01*
X193945885Y-99502511D01*
X193621029Y-99016330D01*
X193134848Y-98691474D01*
X192561359Y-98577400D01*
X192502641Y-98577400D01*
X191929152Y-98691474D01*
X191442971Y-99016330D01*
X191262008Y-99287161D01*
X190880490Y-98869179D01*
X190351027Y-98621032D01*
X190119000Y-98741531D01*
X189865000Y-98741531D01*
X189632973Y-98621032D01*
X189103510Y-98869179D01*
X188722000Y-99287152D01*
X188340490Y-98869179D01*
X187811027Y-98621032D01*
X187579000Y-98741531D01*
X187325000Y-98741531D01*
X187092973Y-98621032D01*
X186563510Y-98869179D01*
X186181992Y-99287161D01*
X186001029Y-99016330D01*
X185797000Y-98880002D01*
X185797000Y-96378580D01*
X188331787Y-93843792D01*
X188331790Y-93843790D01*
X188523633Y-93556675D01*
X188534810Y-93500484D01*
X188591001Y-93218000D01*
X188591000Y-93217995D01*
X188591000Y-91725750D01*
X189015000Y-91725750D01*
X189015000Y-92416310D01*
X189111673Y-92649699D01*
X189290302Y-92828327D01*
X189523691Y-92925000D01*
X190214250Y-92925000D01*
X190373000Y-92766250D01*
X190373000Y-91567000D01*
X190627000Y-91567000D01*
X190627000Y-92766250D01*
X190785750Y-92925000D01*
X191476309Y-92925000D01*
X191709698Y-92828327D01*
X191888327Y-92649699D01*
X191985000Y-92416310D01*
X191985000Y-91725750D01*
X196635000Y-91725750D01*
X196635000Y-92416310D01*
X196731673Y-92649699D01*
X196910302Y-92828327D01*
X197143691Y-92925000D01*
X197834250Y-92925000D01*
X197993000Y-92766250D01*
X197993000Y-91567000D01*
X198247000Y-91567000D01*
X198247000Y-92766250D01*
X198405750Y-92925000D01*
X199096309Y-92925000D01*
X199329698Y-92828327D01*
X199508327Y-92649699D01*
X199605000Y-92416310D01*
X199605000Y-91725750D01*
X204255000Y-91725750D01*
X204255000Y-92416310D01*
X204351673Y-92649699D01*
X204530302Y-92828327D01*
X204763691Y-92925000D01*
X205454250Y-92925000D01*
X205613000Y-92766250D01*
X205613000Y-91567000D01*
X205867000Y-91567000D01*
X205867000Y-92766250D01*
X206025750Y-92925000D01*
X206716309Y-92925000D01*
X206949698Y-92828327D01*
X207128327Y-92649699D01*
X207225000Y-92416310D01*
X207225000Y-91725750D01*
X207066250Y-91567000D01*
X205867000Y-91567000D01*
X205613000Y-91567000D01*
X204413750Y-91567000D01*
X204255000Y-91725750D01*
X199605000Y-91725750D01*
X199446250Y-91567000D01*
X198247000Y-91567000D01*
X197993000Y-91567000D01*
X196793750Y-91567000D01*
X196635000Y-91725750D01*
X191985000Y-91725750D01*
X191826250Y-91567000D01*
X190627000Y-91567000D01*
X190373000Y-91567000D01*
X189173750Y-91567000D01*
X189015000Y-91725750D01*
X188591000Y-91725750D01*
X188591000Y-90463690D01*
X189015000Y-90463690D01*
X189015000Y-91154250D01*
X189173750Y-91313000D01*
X190373000Y-91313000D01*
X190373000Y-89027000D01*
X190627000Y-89027000D01*
X190627000Y-91313000D01*
X191826250Y-91313000D01*
X191985000Y-91154250D01*
X191985000Y-90463690D01*
X196635000Y-90463690D01*
X196635000Y-91154250D01*
X196793750Y-91313000D01*
X197993000Y-91313000D01*
X197993000Y-89027000D01*
X198247000Y-89027000D01*
X198247000Y-91313000D01*
X199446250Y-91313000D01*
X199605000Y-91154250D01*
X199605000Y-90463690D01*
X204255000Y-90463690D01*
X204255000Y-91154250D01*
X204413750Y-91313000D01*
X205613000Y-91313000D01*
X205613000Y-89027000D01*
X205867000Y-89027000D01*
X205867000Y-91313000D01*
X207066250Y-91313000D01*
X207225000Y-91154250D01*
X207225000Y-90463690D01*
X207128327Y-90230301D01*
X206949698Y-90051673D01*
X206740122Y-89964864D01*
X207011645Y-89666924D01*
X207181476Y-89256890D01*
X207060155Y-89027000D01*
X205867000Y-89027000D01*
X205613000Y-89027000D01*
X204419845Y-89027000D01*
X204298524Y-89256890D01*
X204468355Y-89666924D01*
X204739878Y-89964864D01*
X204530302Y-90051673D01*
X204351673Y-90230301D01*
X204255000Y-90463690D01*
X199605000Y-90463690D01*
X199508327Y-90230301D01*
X199329698Y-90051673D01*
X199120122Y-89964864D01*
X199391645Y-89666924D01*
X199561476Y-89256890D01*
X199440155Y-89027000D01*
X198247000Y-89027000D01*
X197993000Y-89027000D01*
X196799845Y-89027000D01*
X196678524Y-89256890D01*
X196848355Y-89666924D01*
X197119878Y-89964864D01*
X196910302Y-90051673D01*
X196731673Y-90230301D01*
X196635000Y-90463690D01*
X191985000Y-90463690D01*
X191888327Y-90230301D01*
X191709698Y-90051673D01*
X191500122Y-89964864D01*
X191771645Y-89666924D01*
X191941476Y-89256890D01*
X191820155Y-89027000D01*
X190627000Y-89027000D01*
X190373000Y-89027000D01*
X189179845Y-89027000D01*
X189058524Y-89256890D01*
X189228355Y-89666924D01*
X189499878Y-89964864D01*
X189290302Y-90051673D01*
X189111673Y-90230301D01*
X189015000Y-90463690D01*
X188591000Y-90463690D01*
X188591000Y-83820000D01*
X188985907Y-83820000D01*
X189098946Y-84388285D01*
X189420853Y-84870054D01*
X189750026Y-85090000D01*
X189420853Y-85309946D01*
X189098946Y-85791715D01*
X188985907Y-86360000D01*
X189098946Y-86928285D01*
X189420853Y-87410054D01*
X189761553Y-87637702D01*
X189618642Y-87704817D01*
X189228355Y-88133076D01*
X189058524Y-88543110D01*
X189179845Y-88773000D01*
X190373000Y-88773000D01*
X190373000Y-88753000D01*
X190627000Y-88753000D01*
X190627000Y-88773000D01*
X191820155Y-88773000D01*
X191941476Y-88543110D01*
X191771645Y-88133076D01*
X191381358Y-87704817D01*
X191238447Y-87637702D01*
X191579147Y-87410054D01*
X191901054Y-86928285D01*
X192014093Y-86360000D01*
X191901054Y-85791715D01*
X191579147Y-85309946D01*
X191249974Y-85090000D01*
X191579147Y-84870054D01*
X191901054Y-84388285D01*
X192014093Y-83820000D01*
X196605907Y-83820000D01*
X196718946Y-84388285D01*
X197040853Y-84870054D01*
X197370026Y-85090000D01*
X197040853Y-85309946D01*
X196718946Y-85791715D01*
X196605907Y-86360000D01*
X196718946Y-86928285D01*
X197040853Y-87410054D01*
X197381553Y-87637702D01*
X197238642Y-87704817D01*
X196848355Y-88133076D01*
X196678524Y-88543110D01*
X196799845Y-88773000D01*
X197993000Y-88773000D01*
X197993000Y-88753000D01*
X198247000Y-88753000D01*
X198247000Y-88773000D01*
X199440155Y-88773000D01*
X199561476Y-88543110D01*
X199391645Y-88133076D01*
X199001358Y-87704817D01*
X198858447Y-87637702D01*
X199199147Y-87410054D01*
X199521054Y-86928285D01*
X199634093Y-86360000D01*
X199521054Y-85791715D01*
X199199147Y-85309946D01*
X198869974Y-85090000D01*
X199199147Y-84870054D01*
X199521054Y-84388285D01*
X199634093Y-83820000D01*
X204225907Y-83820000D01*
X204338946Y-84388285D01*
X204660853Y-84870054D01*
X204990026Y-85090000D01*
X204660853Y-85309946D01*
X204338946Y-85791715D01*
X204225907Y-86360000D01*
X204338946Y-86928285D01*
X204660853Y-87410054D01*
X205001553Y-87637702D01*
X204858642Y-87704817D01*
X204468355Y-88133076D01*
X204298524Y-88543110D01*
X204419845Y-88773000D01*
X205613000Y-88773000D01*
X205613000Y-88753000D01*
X205867000Y-88753000D01*
X205867000Y-88773000D01*
X207060155Y-88773000D01*
X207181476Y-88543110D01*
X207011645Y-88133076D01*
X206621358Y-87704817D01*
X206478447Y-87637702D01*
X206819147Y-87410054D01*
X207141054Y-86928285D01*
X207254093Y-86360000D01*
X207141054Y-85791715D01*
X206819147Y-85309946D01*
X206489974Y-85090000D01*
X206819147Y-84870054D01*
X207141054Y-84388285D01*
X207254093Y-83820000D01*
X207141054Y-83251715D01*
X206819147Y-82769946D01*
X206337378Y-82448039D01*
X205769093Y-82335000D01*
X205710907Y-82335000D01*
X205142622Y-82448039D01*
X204660853Y-82769946D01*
X204338946Y-83251715D01*
X204225907Y-83820000D01*
X199634093Y-83820000D01*
X199521054Y-83251715D01*
X199199147Y-82769946D01*
X198717378Y-82448039D01*
X198149093Y-82335000D01*
X198090907Y-82335000D01*
X197522622Y-82448039D01*
X197040853Y-82769946D01*
X196718946Y-83251715D01*
X196605907Y-83820000D01*
X192014093Y-83820000D01*
X191901054Y-83251715D01*
X191579147Y-82769946D01*
X191097378Y-82448039D01*
X190529093Y-82335000D01*
X190470907Y-82335000D01*
X189902622Y-82448039D01*
X189420853Y-82769946D01*
X189098946Y-83251715D01*
X188985907Y-83820000D01*
X188591000Y-83820000D01*
X188591000Y-73772580D01*
X190227579Y-72136000D01*
X208911041Y-72136000D01*
X209025115Y-72709489D01*
X209349971Y-73195670D01*
X209664752Y-73406000D01*
X209349971Y-73616330D01*
X209025115Y-74102511D01*
X208911041Y-74676000D01*
X209025115Y-75249489D01*
X209349971Y-75735670D01*
X209664752Y-75946000D01*
X209349971Y-76156330D01*
X209025115Y-76642511D01*
X208911041Y-77216000D01*
X209025115Y-77789489D01*
X209349971Y-78275670D01*
X209836152Y-78600526D01*
X210409641Y-78714600D01*
X210468359Y-78714600D01*
X211041848Y-78600526D01*
X211528029Y-78275670D01*
X211709000Y-78004828D01*
X211889971Y-78275670D01*
X212376152Y-78600526D01*
X212949641Y-78714600D01*
X213008359Y-78714600D01*
X213581848Y-78600526D01*
X214068029Y-78275670D01*
X214392885Y-77789489D01*
X214506959Y-77216000D01*
X214392885Y-76642511D01*
X214068029Y-76156330D01*
X213753248Y-75946000D01*
X214068029Y-75735670D01*
X214392885Y-75249489D01*
X214506959Y-74676000D01*
X214392885Y-74102511D01*
X214068029Y-73616330D01*
X213753248Y-73406000D01*
X214068029Y-73195670D01*
X214392885Y-72709489D01*
X214506959Y-72136000D01*
X214392885Y-71562511D01*
X214068029Y-71076330D01*
X213581848Y-70751474D01*
X213008359Y-70637400D01*
X212949641Y-70637400D01*
X212376152Y-70751474D01*
X211889971Y-71076330D01*
X211709000Y-71347172D01*
X211528029Y-71076330D01*
X211041848Y-70751474D01*
X210468359Y-70637400D01*
X210409641Y-70637400D01*
X209836152Y-70751474D01*
X209349971Y-71076330D01*
X209025115Y-71562511D01*
X208911041Y-72136000D01*
X190227579Y-72136000D01*
X193497829Y-68865750D01*
X196635000Y-68865750D01*
X196635000Y-69556310D01*
X196731673Y-69789699D01*
X196910302Y-69968327D01*
X197143691Y-70065000D01*
X197834250Y-70065000D01*
X197993000Y-69906250D01*
X197993000Y-68707000D01*
X198247000Y-68707000D01*
X198247000Y-69906250D01*
X198405750Y-70065000D01*
X199096309Y-70065000D01*
X199329698Y-69968327D01*
X199508327Y-69789699D01*
X199605000Y-69556310D01*
X199605000Y-68865750D01*
X204255000Y-68865750D01*
X204255000Y-69556310D01*
X204351673Y-69789699D01*
X204530302Y-69968327D01*
X204763691Y-70065000D01*
X205454250Y-70065000D01*
X205613000Y-69906250D01*
X205613000Y-68707000D01*
X205867000Y-68707000D01*
X205867000Y-69906250D01*
X206025750Y-70065000D01*
X206716309Y-70065000D01*
X206949698Y-69968327D01*
X207128327Y-69789699D01*
X207225000Y-69556310D01*
X207225000Y-68865750D01*
X207066250Y-68707000D01*
X205867000Y-68707000D01*
X205613000Y-68707000D01*
X204413750Y-68707000D01*
X204255000Y-68865750D01*
X199605000Y-68865750D01*
X199446250Y-68707000D01*
X198247000Y-68707000D01*
X197993000Y-68707000D01*
X196793750Y-68707000D01*
X196635000Y-68865750D01*
X193497829Y-68865750D01*
X195438579Y-66925000D01*
X196930568Y-66925000D01*
X197040853Y-67090054D01*
X197084777Y-67119403D01*
X196910302Y-67191673D01*
X196731673Y-67370301D01*
X196635000Y-67603690D01*
X196635000Y-68294250D01*
X196793750Y-68453000D01*
X197993000Y-68453000D01*
X197993000Y-68433000D01*
X198247000Y-68433000D01*
X198247000Y-68453000D01*
X199446250Y-68453000D01*
X199605000Y-68294250D01*
X199605000Y-67603690D01*
X199508327Y-67370301D01*
X199329698Y-67191673D01*
X199155223Y-67119403D01*
X199199147Y-67090054D01*
X199309432Y-66925000D01*
X204550568Y-66925000D01*
X204660853Y-67090054D01*
X204704777Y-67119403D01*
X204530302Y-67191673D01*
X204351673Y-67370301D01*
X204255000Y-67603690D01*
X204255000Y-68294250D01*
X204413750Y-68453000D01*
X205613000Y-68453000D01*
X205613000Y-68433000D01*
X205867000Y-68433000D01*
X205867000Y-68453000D01*
X207066250Y-68453000D01*
X207225000Y-68294250D01*
X207225000Y-67603690D01*
X207128327Y-67370301D01*
X206949698Y-67191673D01*
X206775223Y-67119403D01*
X206819147Y-67090054D01*
X207141054Y-66608285D01*
X207254093Y-66040000D01*
X207141054Y-65471715D01*
X206819147Y-64989946D01*
X206489974Y-64770000D01*
X206819147Y-64550054D01*
X207141054Y-64068285D01*
X207254093Y-63500000D01*
X207141054Y-62931715D01*
X206819147Y-62449946D01*
X206489974Y-62230000D01*
X206819147Y-62010054D01*
X207141054Y-61528285D01*
X207254093Y-60960000D01*
X207141054Y-60391715D01*
X206819147Y-59909946D01*
X206337378Y-59588039D01*
X205769093Y-59475000D01*
X205710907Y-59475000D01*
X205142622Y-59588039D01*
X204660853Y-59909946D01*
X204338946Y-60391715D01*
X204225907Y-60960000D01*
X204338946Y-61528285D01*
X204660853Y-62010054D01*
X204990026Y-62230000D01*
X204660853Y-62449946D01*
X204338946Y-62931715D01*
X204225907Y-63500000D01*
X204338946Y-64068285D01*
X204660853Y-64550054D01*
X204990026Y-64770000D01*
X204660853Y-64989946D01*
X204550568Y-65155000D01*
X199309432Y-65155000D01*
X199199147Y-64989946D01*
X198869974Y-64770000D01*
X199199147Y-64550054D01*
X199521054Y-64068285D01*
X199634093Y-63500000D01*
X199521054Y-62931715D01*
X199199147Y-62449946D01*
X198869974Y-62230000D01*
X199199147Y-62010054D01*
X199521054Y-61528285D01*
X199634093Y-60960000D01*
X199521054Y-60391715D01*
X199199147Y-59909946D01*
X198717378Y-59588039D01*
X198149093Y-59475000D01*
X198090907Y-59475000D01*
X197522622Y-59588039D01*
X197040853Y-59909946D01*
X196718946Y-60391715D01*
X196605907Y-60960000D01*
X196718946Y-61528285D01*
X197040853Y-62010054D01*
X197370026Y-62230000D01*
X197040853Y-62449946D01*
X196718946Y-62931715D01*
X196605907Y-63500000D01*
X196718946Y-64068285D01*
X197040853Y-64550054D01*
X197370026Y-64770000D01*
X197040853Y-64989946D01*
X196930568Y-65155000D01*
X195072005Y-65155000D01*
X195072000Y-65154999D01*
X194733325Y-65222367D01*
X194446210Y-65414210D01*
X194446208Y-65414213D01*
X187080210Y-72780210D01*
X186888367Y-73067325D01*
X186888367Y-73067326D01*
X186820999Y-73406000D01*
X186821000Y-73406005D01*
X186821000Y-92851421D01*
X184286210Y-95386210D01*
X184094367Y-95673325D01*
X184094367Y-95673326D01*
X184026999Y-96012000D01*
X184027000Y-96012005D01*
X184027000Y-98880002D01*
X183822971Y-99016330D01*
X183642000Y-99287172D01*
X183461029Y-99016330D01*
X182974848Y-98691474D01*
X182401359Y-98577400D01*
X182342641Y-98577400D01*
X181769152Y-98691474D01*
X181282971Y-99016330D01*
X181102000Y-99287172D01*
X180921029Y-99016330D01*
X180434848Y-98691474D01*
X179861359Y-98577400D01*
X179802641Y-98577400D01*
X179229152Y-98691474D01*
X178742971Y-99016330D01*
X178562000Y-99287172D01*
X178381029Y-99016330D01*
X177894848Y-98691474D01*
X177321359Y-98577400D01*
X177262641Y-98577400D01*
X176689152Y-98691474D01*
X176202971Y-99016330D01*
X176022000Y-99287172D01*
X175841029Y-99016330D01*
X175354848Y-98691474D01*
X174781359Y-98577400D01*
X174722641Y-98577400D01*
X174149152Y-98691474D01*
X173662971Y-99016330D01*
X173338115Y-99502511D01*
X173224041Y-100076000D01*
X163017000Y-100076000D01*
X163017387Y-99633381D01*
X162677845Y-98811628D01*
X162049679Y-98182364D01*
X161228519Y-97841389D01*
X160339381Y-97840613D01*
X159517628Y-98180155D01*
X158888364Y-98808321D01*
X158547389Y-99629481D01*
X158546613Y-100518619D01*
X158886155Y-101340372D01*
X159450796Y-101906000D01*
X147522000Y-101906000D01*
X147522000Y-91725750D01*
X166155000Y-91725750D01*
X166155000Y-92416310D01*
X166251673Y-92649699D01*
X166430302Y-92828327D01*
X166663691Y-92925000D01*
X167354250Y-92925000D01*
X167513000Y-92766250D01*
X167513000Y-91567000D01*
X167767000Y-91567000D01*
X167767000Y-92766250D01*
X167925750Y-92925000D01*
X168616309Y-92925000D01*
X168849698Y-92828327D01*
X169028327Y-92649699D01*
X169125000Y-92416310D01*
X169125000Y-91725750D01*
X173775000Y-91725750D01*
X173775000Y-92416310D01*
X173871673Y-92649699D01*
X174050302Y-92828327D01*
X174283691Y-92925000D01*
X174974250Y-92925000D01*
X175133000Y-92766250D01*
X175133000Y-91567000D01*
X175387000Y-91567000D01*
X175387000Y-92766250D01*
X175545750Y-92925000D01*
X176236309Y-92925000D01*
X176469698Y-92828327D01*
X176648327Y-92649699D01*
X176745000Y-92416310D01*
X176745000Y-91725750D01*
X181395000Y-91725750D01*
X181395000Y-92416310D01*
X181491673Y-92649699D01*
X181670302Y-92828327D01*
X181903691Y-92925000D01*
X182594250Y-92925000D01*
X182753000Y-92766250D01*
X182753000Y-91567000D01*
X183007000Y-91567000D01*
X183007000Y-92766250D01*
X183165750Y-92925000D01*
X183856309Y-92925000D01*
X184089698Y-92828327D01*
X184268327Y-92649699D01*
X184365000Y-92416310D01*
X184365000Y-91725750D01*
X184206250Y-91567000D01*
X183007000Y-91567000D01*
X182753000Y-91567000D01*
X181553750Y-91567000D01*
X181395000Y-91725750D01*
X176745000Y-91725750D01*
X176586250Y-91567000D01*
X175387000Y-91567000D01*
X175133000Y-91567000D01*
X173933750Y-91567000D01*
X173775000Y-91725750D01*
X169125000Y-91725750D01*
X168966250Y-91567000D01*
X167767000Y-91567000D01*
X167513000Y-91567000D01*
X166313750Y-91567000D01*
X166155000Y-91725750D01*
X147522000Y-91725750D01*
X147522000Y-90463690D01*
X166155000Y-90463690D01*
X166155000Y-91154250D01*
X166313750Y-91313000D01*
X167513000Y-91313000D01*
X167513000Y-89027000D01*
X167767000Y-89027000D01*
X167767000Y-91313000D01*
X168966250Y-91313000D01*
X169125000Y-91154250D01*
X169125000Y-90463690D01*
X173775000Y-90463690D01*
X173775000Y-91154250D01*
X173933750Y-91313000D01*
X175133000Y-91313000D01*
X175133000Y-89027000D01*
X175387000Y-89027000D01*
X175387000Y-91313000D01*
X176586250Y-91313000D01*
X176745000Y-91154250D01*
X176745000Y-90463690D01*
X181395000Y-90463690D01*
X181395000Y-91154250D01*
X181553750Y-91313000D01*
X182753000Y-91313000D01*
X182753000Y-89027000D01*
X183007000Y-89027000D01*
X183007000Y-91313000D01*
X184206250Y-91313000D01*
X184365000Y-91154250D01*
X184365000Y-90463690D01*
X184268327Y-90230301D01*
X184089698Y-90051673D01*
X183880122Y-89964864D01*
X184151645Y-89666924D01*
X184321476Y-89256890D01*
X184200155Y-89027000D01*
X183007000Y-89027000D01*
X182753000Y-89027000D01*
X181559845Y-89027000D01*
X181438524Y-89256890D01*
X181608355Y-89666924D01*
X181879878Y-89964864D01*
X181670302Y-90051673D01*
X181491673Y-90230301D01*
X181395000Y-90463690D01*
X176745000Y-90463690D01*
X176648327Y-90230301D01*
X176469698Y-90051673D01*
X176260122Y-89964864D01*
X176531645Y-89666924D01*
X176701476Y-89256890D01*
X176580155Y-89027000D01*
X175387000Y-89027000D01*
X175133000Y-89027000D01*
X173939845Y-89027000D01*
X173818524Y-89256890D01*
X173988355Y-89666924D01*
X174259878Y-89964864D01*
X174050302Y-90051673D01*
X173871673Y-90230301D01*
X173775000Y-90463690D01*
X169125000Y-90463690D01*
X169028327Y-90230301D01*
X168849698Y-90051673D01*
X168640122Y-89964864D01*
X168911645Y-89666924D01*
X169081476Y-89256890D01*
X168960155Y-89027000D01*
X167767000Y-89027000D01*
X167513000Y-89027000D01*
X166319845Y-89027000D01*
X166198524Y-89256890D01*
X166368355Y-89666924D01*
X166639878Y-89964864D01*
X166430302Y-90051673D01*
X166251673Y-90230301D01*
X166155000Y-90463690D01*
X147522000Y-90463690D01*
X147522000Y-83820000D01*
X166125907Y-83820000D01*
X166238946Y-84388285D01*
X166560853Y-84870054D01*
X166890026Y-85090000D01*
X166560853Y-85309946D01*
X166238946Y-85791715D01*
X166125907Y-86360000D01*
X166238946Y-86928285D01*
X166560853Y-87410054D01*
X166901553Y-87637702D01*
X166758642Y-87704817D01*
X166368355Y-88133076D01*
X166198524Y-88543110D01*
X166319845Y-88773000D01*
X167513000Y-88773000D01*
X167513000Y-88753000D01*
X167767000Y-88753000D01*
X167767000Y-88773000D01*
X168960155Y-88773000D01*
X169081476Y-88543110D01*
X168911645Y-88133076D01*
X168521358Y-87704817D01*
X168378447Y-87637702D01*
X168719147Y-87410054D01*
X169041054Y-86928285D01*
X169154093Y-86360000D01*
X169041054Y-85791715D01*
X168719147Y-85309946D01*
X168389974Y-85090000D01*
X168719147Y-84870054D01*
X169041054Y-84388285D01*
X169154093Y-83820000D01*
X173745907Y-83820000D01*
X173858946Y-84388285D01*
X174180853Y-84870054D01*
X174510026Y-85090000D01*
X174180853Y-85309946D01*
X173858946Y-85791715D01*
X173745907Y-86360000D01*
X173858946Y-86928285D01*
X174180853Y-87410054D01*
X174521553Y-87637702D01*
X174378642Y-87704817D01*
X173988355Y-88133076D01*
X173818524Y-88543110D01*
X173939845Y-88773000D01*
X175133000Y-88773000D01*
X175133000Y-88753000D01*
X175387000Y-88753000D01*
X175387000Y-88773000D01*
X176580155Y-88773000D01*
X176701476Y-88543110D01*
X176531645Y-88133076D01*
X176141358Y-87704817D01*
X175998447Y-87637702D01*
X176339147Y-87410054D01*
X176661054Y-86928285D01*
X176774093Y-86360000D01*
X176661054Y-85791715D01*
X176339147Y-85309946D01*
X176009974Y-85090000D01*
X176339147Y-84870054D01*
X176661054Y-84388285D01*
X176774093Y-83820000D01*
X181365907Y-83820000D01*
X181478946Y-84388285D01*
X181800853Y-84870054D01*
X182130026Y-85090000D01*
X181800853Y-85309946D01*
X181478946Y-85791715D01*
X181365907Y-86360000D01*
X181478946Y-86928285D01*
X181800853Y-87410054D01*
X182141553Y-87637702D01*
X181998642Y-87704817D01*
X181608355Y-88133076D01*
X181438524Y-88543110D01*
X181559845Y-88773000D01*
X182753000Y-88773000D01*
X182753000Y-88753000D01*
X183007000Y-88753000D01*
X183007000Y-88773000D01*
X184200155Y-88773000D01*
X184321476Y-88543110D01*
X184151645Y-88133076D01*
X183761358Y-87704817D01*
X183618447Y-87637702D01*
X183959147Y-87410054D01*
X184281054Y-86928285D01*
X184394093Y-86360000D01*
X184281054Y-85791715D01*
X183959147Y-85309946D01*
X183629974Y-85090000D01*
X183959147Y-84870054D01*
X184281054Y-84388285D01*
X184394093Y-83820000D01*
X184281054Y-83251715D01*
X183959147Y-82769946D01*
X183477378Y-82448039D01*
X182909093Y-82335000D01*
X182850907Y-82335000D01*
X182282622Y-82448039D01*
X181800853Y-82769946D01*
X181478946Y-83251715D01*
X181365907Y-83820000D01*
X176774093Y-83820000D01*
X176661054Y-83251715D01*
X176339147Y-82769946D01*
X175857378Y-82448039D01*
X175289093Y-82335000D01*
X175230907Y-82335000D01*
X174662622Y-82448039D01*
X174180853Y-82769946D01*
X173858946Y-83251715D01*
X173745907Y-83820000D01*
X169154093Y-83820000D01*
X169041054Y-83251715D01*
X168719147Y-82769946D01*
X168237378Y-82448039D01*
X167669093Y-82335000D01*
X167610907Y-82335000D01*
X167042622Y-82448039D01*
X166560853Y-82769946D01*
X166238946Y-83251715D01*
X166125907Y-83820000D01*
X147522000Y-83820000D01*
X147522000Y-67595750D01*
X155995000Y-67595750D01*
X155995000Y-68286310D01*
X156091673Y-68519699D01*
X156270302Y-68698327D01*
X156503691Y-68795000D01*
X157194250Y-68795000D01*
X157353000Y-68636250D01*
X157353000Y-67437000D01*
X156153750Y-67437000D01*
X155995000Y-67595750D01*
X147522000Y-67595750D01*
X147522000Y-64770000D01*
X155965907Y-64770000D01*
X156078946Y-65338285D01*
X156400853Y-65820054D01*
X156444777Y-65849403D01*
X156270302Y-65921673D01*
X156091673Y-66100301D01*
X155995000Y-66333690D01*
X155995000Y-67024250D01*
X156153750Y-67183000D01*
X157353000Y-67183000D01*
X157353000Y-67163000D01*
X157607000Y-67163000D01*
X157607000Y-67183000D01*
X157627000Y-67183000D01*
X157627000Y-67437000D01*
X157607000Y-67437000D01*
X157607000Y-68636250D01*
X157765750Y-68795000D01*
X158456309Y-68795000D01*
X158689698Y-68698327D01*
X158868327Y-68519699D01*
X158965000Y-68286310D01*
X158965000Y-67595750D01*
X158806252Y-67437002D01*
X158965000Y-67437002D01*
X158965000Y-67329802D01*
X163292599Y-71657401D01*
X163539161Y-71822148D01*
X163830000Y-71880000D01*
X178308000Y-71880000D01*
X178598839Y-71822148D01*
X178845401Y-71657401D01*
X197253644Y-53249158D01*
X197582641Y-53314600D01*
X197641359Y-53314600D01*
X198214848Y-53200526D01*
X198701029Y-52875670D01*
X198882000Y-52604828D01*
X199062971Y-52875670D01*
X199549152Y-53200526D01*
X200122641Y-53314600D01*
X200181359Y-53314600D01*
X200754848Y-53200526D01*
X201241029Y-52875670D01*
X201422000Y-52604828D01*
X201602971Y-52875670D01*
X202089152Y-53200526D01*
X202662641Y-53314600D01*
X202721359Y-53314600D01*
X203294848Y-53200526D01*
X203781029Y-52875670D01*
X203962000Y-52604828D01*
X204142971Y-52875670D01*
X204629152Y-53200526D01*
X205202641Y-53314600D01*
X205261359Y-53314600D01*
X205834848Y-53200526D01*
X206321029Y-52875670D01*
X206502000Y-52604828D01*
X206682971Y-52875670D01*
X207169152Y-53200526D01*
X207742641Y-53314600D01*
X207801359Y-53314600D01*
X208374848Y-53200526D01*
X208861029Y-52875670D01*
X209042000Y-52604828D01*
X209222971Y-52875670D01*
X209709152Y-53200526D01*
X210282641Y-53314600D01*
X210341359Y-53314600D01*
X210914848Y-53200526D01*
X211401029Y-52875670D01*
X211725885Y-52389489D01*
X211839959Y-51816000D01*
X211725885Y-51242511D01*
X211401029Y-50756330D01*
X210914848Y-50431474D01*
X210341359Y-50317400D01*
X210282641Y-50317400D01*
X209709152Y-50431474D01*
X209222971Y-50756330D01*
X209042000Y-51027172D01*
X208861029Y-50756330D01*
X208374848Y-50431474D01*
X207801359Y-50317400D01*
X207742641Y-50317400D01*
X207169152Y-50431474D01*
X206682971Y-50756330D01*
X206502000Y-51027172D01*
X206321029Y-50756330D01*
X205834848Y-50431474D01*
X205261359Y-50317400D01*
X205202641Y-50317400D01*
X204629152Y-50431474D01*
X204142971Y-50756330D01*
X203962000Y-51027172D01*
X203781029Y-50756330D01*
X203294848Y-50431474D01*
X202721359Y-50317400D01*
X202662641Y-50317400D01*
X202089152Y-50431474D01*
X201602971Y-50756330D01*
X201422000Y-51027172D01*
X201241029Y-50756330D01*
X200754848Y-50431474D01*
X200181359Y-50317400D01*
X200122641Y-50317400D01*
X199549152Y-50431474D01*
X199062971Y-50756330D01*
X198882000Y-51027172D01*
X198701029Y-50756330D01*
X198214848Y-50431474D01*
X197641359Y-50317400D01*
X197582641Y-50317400D01*
X197009152Y-50431474D01*
X196522971Y-50756330D01*
X196342000Y-51027172D01*
X196161029Y-50756330D01*
X195674848Y-50431474D01*
X195101359Y-50317400D01*
X195042641Y-50317400D01*
X194469152Y-50431474D01*
X193982971Y-50756330D01*
X193802000Y-51027172D01*
X193621029Y-50756330D01*
X193134848Y-50431474D01*
X192561359Y-50317400D01*
X192502641Y-50317400D01*
X191929152Y-50431474D01*
X191442971Y-50756330D01*
X191118115Y-51242511D01*
X191004041Y-51816000D01*
X191118115Y-52389489D01*
X191442971Y-52875670D01*
X191929152Y-53200526D01*
X192502641Y-53314600D01*
X192561359Y-53314600D01*
X193134848Y-53200526D01*
X193621029Y-52875670D01*
X193802000Y-52604828D01*
X193982971Y-52875670D01*
X194469152Y-53200526D01*
X195039269Y-53313929D01*
X177993198Y-70360000D01*
X164144802Y-70360000D01*
X162650552Y-68865750D01*
X166155000Y-68865750D01*
X166155000Y-69556310D01*
X166251673Y-69789699D01*
X166430302Y-69968327D01*
X166663691Y-70065000D01*
X167354250Y-70065000D01*
X167513000Y-69906250D01*
X167513000Y-68707000D01*
X167767000Y-68707000D01*
X167767000Y-69906250D01*
X167925750Y-70065000D01*
X168616309Y-70065000D01*
X168849698Y-69968327D01*
X169028327Y-69789699D01*
X169125000Y-69556310D01*
X169125000Y-68865750D01*
X168966250Y-68707000D01*
X167767000Y-68707000D01*
X167513000Y-68707000D01*
X166313750Y-68707000D01*
X166155000Y-68865750D01*
X162650552Y-68865750D01*
X161388492Y-67603690D01*
X166155000Y-67603690D01*
X166155000Y-68294250D01*
X166313750Y-68453000D01*
X167513000Y-68453000D01*
X167513000Y-66167000D01*
X167767000Y-66167000D01*
X167767000Y-68453000D01*
X168966250Y-68453000D01*
X169125000Y-68294250D01*
X169125000Y-67603690D01*
X169028327Y-67370301D01*
X168849698Y-67191673D01*
X168640122Y-67104864D01*
X168911645Y-66806924D01*
X169081476Y-66396890D01*
X168960155Y-66167000D01*
X167767000Y-66167000D01*
X167513000Y-66167000D01*
X166319845Y-66167000D01*
X166198524Y-66396890D01*
X166368355Y-66806924D01*
X166639878Y-67104864D01*
X166430302Y-67191673D01*
X166251673Y-67370301D01*
X166155000Y-67603690D01*
X161388492Y-67603690D01*
X158921210Y-65136408D01*
X158994093Y-64770000D01*
X158881054Y-64201715D01*
X158559147Y-63719946D01*
X158077378Y-63398039D01*
X157509093Y-63285000D01*
X157450907Y-63285000D01*
X156882622Y-63398039D01*
X156400853Y-63719946D01*
X156078946Y-64201715D01*
X155965907Y-64770000D01*
X147522000Y-64770000D01*
X147522000Y-60960000D01*
X166125907Y-60960000D01*
X166238946Y-61528285D01*
X166560853Y-62010054D01*
X166890026Y-62230000D01*
X166560853Y-62449946D01*
X166238946Y-62931715D01*
X166125907Y-63500000D01*
X166238946Y-64068285D01*
X166560853Y-64550054D01*
X166901553Y-64777702D01*
X166758642Y-64844817D01*
X166368355Y-65273076D01*
X166198524Y-65683110D01*
X166319845Y-65913000D01*
X167513000Y-65913000D01*
X167513000Y-65893000D01*
X167767000Y-65893000D01*
X167767000Y-65913000D01*
X168960155Y-65913000D01*
X169081476Y-65683110D01*
X168911645Y-65273076D01*
X168521358Y-64844817D01*
X168378447Y-64777702D01*
X168719147Y-64550054D01*
X169041054Y-64068285D01*
X169154093Y-63500000D01*
X169041054Y-62931715D01*
X168719147Y-62449946D01*
X168389974Y-62230000D01*
X168719147Y-62010054D01*
X168912954Y-61720000D01*
X171196000Y-61720000D01*
X171486839Y-61662148D01*
X171733401Y-61497401D01*
X178845401Y-54385401D01*
X179010148Y-54138839D01*
X179068000Y-53848000D01*
X179068000Y-53095520D01*
X179397029Y-52875670D01*
X179578000Y-52604828D01*
X179758971Y-52875670D01*
X180245152Y-53200526D01*
X180818641Y-53314600D01*
X180877359Y-53314600D01*
X181450848Y-53200526D01*
X181937029Y-52875670D01*
X182118000Y-52604828D01*
X182298971Y-52875670D01*
X182785152Y-53200526D01*
X183358641Y-53314600D01*
X183417359Y-53314600D01*
X183990848Y-53200526D01*
X184477029Y-52875670D01*
X184658000Y-52604828D01*
X184838971Y-52875670D01*
X185325152Y-53200526D01*
X185898641Y-53314600D01*
X185957359Y-53314600D01*
X186530848Y-53200526D01*
X187017029Y-52875670D01*
X187198000Y-52604828D01*
X187378971Y-52875670D01*
X187865152Y-53200526D01*
X188438641Y-53314600D01*
X188497359Y-53314600D01*
X189070848Y-53200526D01*
X189557029Y-52875670D01*
X189881885Y-52389489D01*
X189995959Y-51816000D01*
X189881885Y-51242511D01*
X189557029Y-50756330D01*
X189070848Y-50431474D01*
X188497359Y-50317400D01*
X188438641Y-50317400D01*
X187865152Y-50431474D01*
X187378971Y-50756330D01*
X187198000Y-51027172D01*
X187017029Y-50756330D01*
X186530848Y-50431474D01*
X185957359Y-50317400D01*
X185898641Y-50317400D01*
X185325152Y-50431474D01*
X184838971Y-50756330D01*
X184658000Y-51027172D01*
X184477029Y-50756330D01*
X183990848Y-50431474D01*
X183417359Y-50317400D01*
X183358641Y-50317400D01*
X182785152Y-50431474D01*
X182298971Y-50756330D01*
X182118000Y-51027172D01*
X181937029Y-50756330D01*
X181450848Y-50431474D01*
X180877359Y-50317400D01*
X180818641Y-50317400D01*
X180245152Y-50431474D01*
X179758971Y-50756330D01*
X179578000Y-51027172D01*
X179397029Y-50756330D01*
X178910848Y-50431474D01*
X178337359Y-50317400D01*
X178278641Y-50317400D01*
X177705152Y-50431474D01*
X177218971Y-50756330D01*
X177038000Y-51027172D01*
X176857029Y-50756330D01*
X176370848Y-50431474D01*
X175797359Y-50317400D01*
X175738641Y-50317400D01*
X175165152Y-50431474D01*
X174678971Y-50756330D01*
X174498008Y-51027161D01*
X174116490Y-50609179D01*
X173587027Y-50361032D01*
X173355000Y-50481531D01*
X173355000Y-51689000D01*
X173375000Y-51689000D01*
X173375000Y-51943000D01*
X173355000Y-51943000D01*
X173355000Y-53150469D01*
X173587027Y-53270968D01*
X174116490Y-53022821D01*
X174498008Y-52604839D01*
X174678971Y-52875670D01*
X175165152Y-53200526D01*
X175738641Y-53314600D01*
X175797359Y-53314600D01*
X176370848Y-53200526D01*
X176857029Y-52875670D01*
X177038000Y-52604828D01*
X177218971Y-52875670D01*
X177548000Y-53095520D01*
X177548000Y-53533198D01*
X170881198Y-60200000D01*
X168912954Y-60200000D01*
X168719147Y-59909946D01*
X168237378Y-59588039D01*
X167669093Y-59475000D01*
X167610907Y-59475000D01*
X167042622Y-59588039D01*
X166560853Y-59909946D01*
X166238946Y-60391715D01*
X166125907Y-60960000D01*
X147522000Y-60960000D01*
X147522000Y-59222092D01*
X148630091Y-58114000D01*
X156464000Y-58114000D01*
X156735705Y-58059954D01*
X156966046Y-57906046D01*
X158490043Y-56382048D01*
X158490046Y-56382046D01*
X158643954Y-56151705D01*
X158698000Y-55880000D01*
X158698000Y-51094092D01*
X159806091Y-49986000D01*
X160721668Y-49986000D01*
X160158364Y-50548321D01*
M02*
