M48
;DRILL file {KiCad 4.0.7} date 05/06/19 16:36:08
;FORMAT={-:-/ absolute / inch / decimal}
FMAT,2
INCH,TZ
T1C0.039
T2C0.040
%
G90
G05
M72
T1
X6.2Y-2.55
X6.2Y-2.65
X6.6Y-2.4
X6.6Y-2.5
X6.6Y-2.6
X6.6Y-2.7
X6.6Y-3.3
X6.6Y-3.4
X6.6Y-3.5
X6.6Y-3.6
X6.9Y-3.3
X6.9Y-3.4
X6.9Y-3.5
X6.9Y-3.6
X7.2Y-3.3
X7.2Y-3.4
X7.2Y-3.5
X7.2Y-3.6
X7.5Y-3.3
X7.5Y-3.4
X7.5Y-3.5
X7.5Y-3.6
X7.8Y-2.4
X7.8Y-2.5
X7.8Y-2.6
X7.8Y-2.7
X7.8Y-3.3
X7.8Y-3.4
X7.8Y-3.5
X7.8Y-3.6
X8.1Y-2.4
X8.1Y-2.5
X8.1Y-2.6
X8.1Y-2.7
X8.1Y-3.3
X8.1Y-3.4
X8.1Y-3.5
X8.1Y-3.6
T2
X6.52Y-2.04
X6.62Y-2.04
X6.72Y-2.04
X6.82Y-2.04
X6.88Y-3.94
X6.92Y-2.04
X6.98Y-3.94
X7.02Y-2.04
X7.08Y-3.94
X7.12Y-2.04
X7.18Y-3.94
X7.22Y-2.04
X7.28Y-3.94
X7.32Y-2.04
X7.38Y-3.94
X7.42Y-2.04
X7.48Y-3.94
X7.58Y-2.04
X7.58Y-3.94
X7.68Y-2.04
X7.78Y-2.04
X7.78Y-3.94
X7.88Y-2.04
X7.88Y-3.94
X7.98Y-2.04
X7.98Y-3.94
X8.08Y-2.04
X8.08Y-3.94
X8.18Y-2.04
X8.18Y-3.94
X8.28Y-2.04
X8.28Y-3.94
X8.285Y-2.84
X8.285Y-2.94
X8.285Y-3.04
X8.385Y-2.84
X8.385Y-2.94
X8.385Y-3.04
T0
M30
