G04 #@! TF.FileFunction,Copper,L1,Top,Signal*
%FSLAX46Y46*%
G04 Gerber Fmt 4.6, Leading zero omitted, Abs format (unit mm)*
G04 Created by KiCad (PCBNEW 4.0.7) date 08/10/18 17:58:59*
%MOMM*%
%LPD*%
G01*
G04 APERTURE LIST*
%ADD10C,0.100000*%
%ADD11O,1.727200X1.727200*%
%ADD12C,1.597660*%
%ADD13R,1.700000X1.700000*%
%ADD14O,1.700000X1.700000*%
%ADD15C,0.250000*%
%ADD16C,0.254000*%
G04 APERTURE END LIST*
D10*
D11*
X210439000Y-77216000D03*
X212979000Y-77216000D03*
X212979000Y-74676000D03*
X210439000Y-74676000D03*
X212979000Y-72136000D03*
X197612000Y-100076000D03*
X192532000Y-100076000D03*
X189992000Y-100076000D03*
X187452000Y-100076000D03*
X184912000Y-100076000D03*
X182372000Y-100076000D03*
X179832000Y-100076000D03*
X177292000Y-100076000D03*
X210312000Y-51816000D03*
X207772000Y-51816000D03*
X205232000Y-51816000D03*
X202692000Y-51816000D03*
X200152000Y-51816000D03*
X197612000Y-51816000D03*
X195072000Y-51816000D03*
X192532000Y-51816000D03*
X173228000Y-51816000D03*
X188468000Y-51816000D03*
X185928000Y-51816000D03*
X183388000Y-51816000D03*
X165608000Y-51816000D03*
X168148000Y-51816000D03*
X170688000Y-51816000D03*
X175768000Y-51816000D03*
X178308000Y-51816000D03*
X180848000Y-51816000D03*
X174752000Y-100076000D03*
X200152000Y-100076000D03*
X202692000Y-100076000D03*
X205232000Y-100076000D03*
X207772000Y-100076000D03*
X210312000Y-100076000D03*
X210439000Y-72136000D03*
D12*
X206288640Y-69039740D03*
X206288640Y-67038220D03*
X206288640Y-65041780D03*
X206288640Y-63040260D03*
X198668640Y-69039740D03*
X198668640Y-67038220D03*
X198668640Y-65041780D03*
X198668640Y-63040260D03*
X168188640Y-69039740D03*
X168188640Y-67038220D03*
X168188640Y-65041780D03*
X168188640Y-63040260D03*
X168188640Y-89359740D03*
X168188640Y-87358220D03*
X168188640Y-85361780D03*
X168188640Y-83360260D03*
X175808640Y-89359740D03*
X175808640Y-87358220D03*
X175808640Y-85361780D03*
X175808640Y-83360260D03*
X183428640Y-89359740D03*
X183428640Y-87358220D03*
X183428640Y-85361780D03*
X183428640Y-83360260D03*
X191048640Y-89359740D03*
X191048640Y-87358220D03*
X191048640Y-85361780D03*
X191048640Y-83360260D03*
X198668640Y-89359740D03*
X198668640Y-87358220D03*
X198668640Y-85361780D03*
X198668640Y-83360260D03*
X206288640Y-89359740D03*
X206288640Y-87358220D03*
X206288640Y-85361780D03*
X206288640Y-83360260D03*
D13*
X157480000Y-64770000D03*
D14*
X157480000Y-67310000D03*
D15*
X206288640Y-65041780D02*
X209296000Y-62034420D01*
X209296000Y-62034420D02*
X209296000Y-53848000D01*
X209296000Y-53848000D02*
X210312000Y-52832000D01*
X210312000Y-52832000D02*
X210312000Y-51816000D01*
X206288640Y-63040260D02*
X207215740Y-63040260D01*
X207215740Y-63040260D02*
X208788000Y-61468000D01*
X208788000Y-61468000D02*
X208788000Y-53848000D01*
X208788000Y-53848000D02*
X207772000Y-52832000D01*
X207772000Y-52832000D02*
X207772000Y-51816000D01*
X198668640Y-65041780D02*
X204216000Y-59494420D01*
X204216000Y-53848000D02*
X205232000Y-52832000D01*
X204216000Y-59494420D02*
X204216000Y-53848000D01*
X205232000Y-52832000D02*
X205232000Y-51816000D01*
X198668640Y-63040260D02*
X199595740Y-63040260D01*
X199595740Y-63040260D02*
X203708000Y-58928000D01*
X203708000Y-58928000D02*
X203708000Y-53848000D01*
X203708000Y-53848000D02*
X202692000Y-52832000D01*
X202692000Y-52832000D02*
X202692000Y-51816000D01*
X168188640Y-65041780D02*
X168892220Y-65041780D01*
X168892220Y-65041780D02*
X175768000Y-58166000D01*
X175768000Y-58166000D02*
X175768000Y-51816000D01*
X168188640Y-83360260D02*
X170268900Y-81280000D01*
X170268900Y-81280000D02*
X179832000Y-81280000D01*
X179832000Y-81280000D02*
X182880000Y-78232000D01*
X182880000Y-78232000D02*
X182880000Y-54102000D01*
X182880000Y-54102000D02*
X180848000Y-52070000D01*
X180848000Y-52070000D02*
X180848000Y-51816000D01*
X168188640Y-85361780D02*
X168188640Y-85384640D01*
X173990000Y-95250000D02*
X194056000Y-95250000D01*
X168188640Y-85384640D02*
X170688000Y-87884000D01*
X170688000Y-87884000D02*
X170688000Y-91948000D01*
X170688000Y-91948000D02*
X173990000Y-95250000D01*
X194056000Y-95250000D02*
X197612000Y-98806000D01*
X197612000Y-98806000D02*
X197612000Y-100076000D01*
X175808640Y-83360260D02*
X177380900Y-81788000D01*
X177380900Y-81788000D02*
X180086000Y-81788000D01*
X180086000Y-81788000D02*
X183388000Y-78486000D01*
X183388000Y-78486000D02*
X183388000Y-53037314D01*
X183388000Y-53037314D02*
X183388000Y-51816000D01*
X175808640Y-85361780D02*
X175808640Y-85384640D01*
X175808640Y-85384640D02*
X178308000Y-87884000D01*
X178308000Y-87884000D02*
X178308000Y-91948000D01*
X178308000Y-91948000D02*
X181102000Y-94742000D01*
X181102000Y-94742000D02*
X196088000Y-94742000D01*
X196088000Y-94742000D02*
X200152000Y-98806000D01*
X200152000Y-98806000D02*
X200152000Y-100076000D01*
X183428640Y-83360260D02*
X183428640Y-79207360D01*
X183428640Y-79207360D02*
X183896000Y-78740000D01*
X183896000Y-78740000D02*
X183896000Y-54102000D01*
X185928000Y-52070000D02*
X185928000Y-51816000D01*
X183896000Y-54102000D02*
X185928000Y-52070000D01*
X183428640Y-85361780D02*
X183428640Y-85384640D01*
X183428640Y-85384640D02*
X185928000Y-87884000D01*
X185928000Y-87884000D02*
X185928000Y-91948000D01*
X185928000Y-91948000D02*
X188214000Y-94234000D01*
X188214000Y-94234000D02*
X198120000Y-94234000D01*
X198120000Y-94234000D02*
X202692000Y-98806000D01*
X202692000Y-98806000D02*
X202692000Y-100076000D01*
X191048640Y-83360260D02*
X188468000Y-80779620D01*
X188468000Y-80779620D02*
X188468000Y-51816000D01*
X191048640Y-85361780D02*
X193548000Y-87861140D01*
X193548000Y-87861140D02*
X193548000Y-91948000D01*
X193548000Y-91948000D02*
X195326000Y-93726000D01*
X195326000Y-93726000D02*
X200152000Y-93726000D01*
X200152000Y-93726000D02*
X205232000Y-98806000D01*
X205232000Y-98806000D02*
X205232000Y-100076000D01*
X198668640Y-83360260D02*
X198668640Y-81066640D01*
X198668640Y-81066640D02*
X193548000Y-75946000D01*
X192532000Y-53086000D02*
X192532000Y-51816000D01*
X193548000Y-75946000D02*
X193548000Y-54102000D01*
X193548000Y-54102000D02*
X192532000Y-53086000D01*
X198668640Y-85361780D02*
X198668640Y-85384640D01*
X198668640Y-85384640D02*
X201168000Y-87884000D01*
X201168000Y-87884000D02*
X201168000Y-92202000D01*
X201168000Y-92202000D02*
X207772000Y-98806000D01*
X207772000Y-98806000D02*
X207772000Y-100076000D01*
X206288640Y-83360260D02*
X201724260Y-83360260D01*
X201724260Y-83360260D02*
X194056000Y-75692000D01*
X194056000Y-75692000D02*
X194056000Y-54053314D01*
X194056000Y-54053314D02*
X195072000Y-53037314D01*
X195072000Y-53037314D02*
X195072000Y-51816000D01*
X206288640Y-85361780D02*
X206288640Y-85384640D01*
X206288640Y-85384640D02*
X208788000Y-87884000D01*
X208788000Y-87884000D02*
X208788000Y-97330686D01*
X208788000Y-97330686D02*
X210312000Y-98854686D01*
X210312000Y-98854686D02*
X210312000Y-100076000D01*
D16*
G36*
X160158364Y-50548321D02*
X159817389Y-51369481D01*
X159816613Y-52258619D01*
X160156155Y-53080372D01*
X160784321Y-53709636D01*
X161605481Y-54050611D01*
X162494619Y-54051387D01*
X163316372Y-53711845D01*
X163945636Y-53083679D01*
X164218645Y-52426200D01*
X164518971Y-52875670D01*
X165005152Y-53200526D01*
X165578641Y-53314600D01*
X165637359Y-53314600D01*
X166210848Y-53200526D01*
X166697029Y-52875670D01*
X166878000Y-52604828D01*
X167058971Y-52875670D01*
X167545152Y-53200526D01*
X168118641Y-53314600D01*
X168177359Y-53314600D01*
X168750848Y-53200526D01*
X169237029Y-52875670D01*
X169418000Y-52604828D01*
X169598971Y-52875670D01*
X170085152Y-53200526D01*
X170658641Y-53314600D01*
X170717359Y-53314600D01*
X171290848Y-53200526D01*
X171777029Y-52875670D01*
X171957992Y-52604839D01*
X172339510Y-53022821D01*
X172868973Y-53270968D01*
X173101000Y-53150469D01*
X173101000Y-51943000D01*
X173081000Y-51943000D01*
X173081000Y-51689000D01*
X173101000Y-51689000D01*
X173101000Y-50481531D01*
X172868973Y-50361032D01*
X172339510Y-50609179D01*
X171957992Y-51027161D01*
X171777029Y-50756330D01*
X171290848Y-50431474D01*
X170717359Y-50317400D01*
X170658641Y-50317400D01*
X170085152Y-50431474D01*
X169598971Y-50756330D01*
X169418000Y-51027172D01*
X169237029Y-50756330D01*
X168750848Y-50431474D01*
X168177359Y-50317400D01*
X168118641Y-50317400D01*
X167545152Y-50431474D01*
X167058971Y-50756330D01*
X166878000Y-51027172D01*
X166697029Y-50756330D01*
X166210848Y-50431474D01*
X165637359Y-50317400D01*
X165578641Y-50317400D01*
X165005152Y-50431474D01*
X164518971Y-50756330D01*
X164218335Y-51206263D01*
X163947845Y-50551628D01*
X163383204Y-49986000D01*
X211033908Y-49986000D01*
X212142000Y-51094091D01*
X212142000Y-61976000D01*
X212196046Y-62247705D01*
X212349954Y-62478046D01*
X214682000Y-64810091D01*
X214682000Y-65725668D01*
X214119679Y-65162364D01*
X213298519Y-64821389D01*
X212409381Y-64820613D01*
X211587628Y-65160155D01*
X210958364Y-65788321D01*
X210617389Y-66609481D01*
X210616613Y-67498619D01*
X210956155Y-68320372D01*
X211584321Y-68949636D01*
X212405481Y-69290611D01*
X213294619Y-69291387D01*
X214116372Y-68951845D01*
X214682000Y-68387204D01*
X214682000Y-93665668D01*
X214119679Y-93102364D01*
X213298519Y-92761389D01*
X212409381Y-92760613D01*
X211587628Y-93100155D01*
X210958364Y-93728321D01*
X210617389Y-94549481D01*
X210616613Y-95438619D01*
X210956155Y-96260372D01*
X211584321Y-96889636D01*
X212405481Y-97230611D01*
X213294619Y-97231387D01*
X214116372Y-96891845D01*
X214682000Y-96327204D01*
X214682000Y-98511909D01*
X212349954Y-100843954D01*
X212196046Y-101074295D01*
X212142000Y-101346000D01*
X212142000Y-101906000D01*
X162112332Y-101906000D01*
X162675636Y-101343679D01*
X163016611Y-100522519D01*
X163017000Y-100076000D01*
X173224041Y-100076000D01*
X173338115Y-100649489D01*
X173662971Y-101135670D01*
X174149152Y-101460526D01*
X174722641Y-101574600D01*
X174781359Y-101574600D01*
X175354848Y-101460526D01*
X175841029Y-101135670D01*
X176022000Y-100864828D01*
X176202971Y-101135670D01*
X176689152Y-101460526D01*
X177262641Y-101574600D01*
X177321359Y-101574600D01*
X177894848Y-101460526D01*
X178381029Y-101135670D01*
X178562000Y-100864828D01*
X178742971Y-101135670D01*
X179229152Y-101460526D01*
X179802641Y-101574600D01*
X179861359Y-101574600D01*
X180434848Y-101460526D01*
X180921029Y-101135670D01*
X181102000Y-100864828D01*
X181282971Y-101135670D01*
X181769152Y-101460526D01*
X182342641Y-101574600D01*
X182401359Y-101574600D01*
X182974848Y-101460526D01*
X183461029Y-101135670D01*
X183642000Y-100864828D01*
X183822971Y-101135670D01*
X184309152Y-101460526D01*
X184882641Y-101574600D01*
X184941359Y-101574600D01*
X185514848Y-101460526D01*
X186001029Y-101135670D01*
X186181992Y-100864839D01*
X186563510Y-101282821D01*
X187092973Y-101530968D01*
X187325000Y-101410469D01*
X187325000Y-100203000D01*
X187579000Y-100203000D01*
X187579000Y-101410469D01*
X187811027Y-101530968D01*
X188340490Y-101282821D01*
X188722000Y-100864848D01*
X189103510Y-101282821D01*
X189632973Y-101530968D01*
X189865000Y-101410469D01*
X189865000Y-100203000D01*
X187579000Y-100203000D01*
X187325000Y-100203000D01*
X187305000Y-100203000D01*
X187305000Y-99949000D01*
X187325000Y-99949000D01*
X187325000Y-98741531D01*
X187579000Y-98741531D01*
X187579000Y-99949000D01*
X189865000Y-99949000D01*
X189865000Y-98741531D01*
X190119000Y-98741531D01*
X190119000Y-99949000D01*
X190139000Y-99949000D01*
X190139000Y-100203000D01*
X190119000Y-100203000D01*
X190119000Y-101410469D01*
X190351027Y-101530968D01*
X190880490Y-101282821D01*
X191262008Y-100864839D01*
X191442971Y-101135670D01*
X191929152Y-101460526D01*
X192502641Y-101574600D01*
X192561359Y-101574600D01*
X193134848Y-101460526D01*
X193621029Y-101135670D01*
X193945885Y-100649489D01*
X194059959Y-100076000D01*
X193945885Y-99502511D01*
X193621029Y-99016330D01*
X193134848Y-98691474D01*
X192561359Y-98577400D01*
X192502641Y-98577400D01*
X191929152Y-98691474D01*
X191442971Y-99016330D01*
X191262008Y-99287161D01*
X190880490Y-98869179D01*
X190351027Y-98621032D01*
X190119000Y-98741531D01*
X189865000Y-98741531D01*
X189632973Y-98621032D01*
X189103510Y-98869179D01*
X188722000Y-99287152D01*
X188340490Y-98869179D01*
X187811027Y-98621032D01*
X187579000Y-98741531D01*
X187325000Y-98741531D01*
X187092973Y-98621032D01*
X186563510Y-98869179D01*
X186181992Y-99287161D01*
X186001029Y-99016330D01*
X185514848Y-98691474D01*
X184941359Y-98577400D01*
X184882641Y-98577400D01*
X184309152Y-98691474D01*
X183822971Y-99016330D01*
X183642000Y-99287172D01*
X183461029Y-99016330D01*
X182974848Y-98691474D01*
X182401359Y-98577400D01*
X182342641Y-98577400D01*
X181769152Y-98691474D01*
X181282971Y-99016330D01*
X181102000Y-99287172D01*
X180921029Y-99016330D01*
X180434848Y-98691474D01*
X179861359Y-98577400D01*
X179802641Y-98577400D01*
X179229152Y-98691474D01*
X178742971Y-99016330D01*
X178562000Y-99287172D01*
X178381029Y-99016330D01*
X177894848Y-98691474D01*
X177321359Y-98577400D01*
X177262641Y-98577400D01*
X176689152Y-98691474D01*
X176202971Y-99016330D01*
X176022000Y-99287172D01*
X175841029Y-99016330D01*
X175354848Y-98691474D01*
X174781359Y-98577400D01*
X174722641Y-98577400D01*
X174149152Y-98691474D01*
X173662971Y-99016330D01*
X173338115Y-99502511D01*
X173224041Y-100076000D01*
X163017000Y-100076000D01*
X163017387Y-99633381D01*
X162677845Y-98811628D01*
X162049679Y-98182364D01*
X161228519Y-97841389D01*
X160339381Y-97840613D01*
X159517628Y-98180155D01*
X158888364Y-98808321D01*
X158547389Y-99629481D01*
X158546613Y-100518619D01*
X158886155Y-101340372D01*
X159450796Y-101906000D01*
X147522000Y-101906000D01*
X147522000Y-90366637D01*
X167361348Y-90366637D01*
X167435339Y-90612635D01*
X167972142Y-90805540D01*
X168541906Y-90778336D01*
X168941941Y-90612635D01*
X169015932Y-90366637D01*
X168188640Y-89539345D01*
X167361348Y-90366637D01*
X147522000Y-90366637D01*
X147522000Y-89143242D01*
X166742840Y-89143242D01*
X166770044Y-89713006D01*
X166935745Y-90113041D01*
X167181743Y-90187032D01*
X168009035Y-89359740D01*
X168368245Y-89359740D01*
X169195537Y-90187032D01*
X169441535Y-90113041D01*
X169634440Y-89576238D01*
X169607236Y-89006474D01*
X169441535Y-88606439D01*
X169195537Y-88532448D01*
X168368245Y-89359740D01*
X168009035Y-89359740D01*
X167181743Y-88532448D01*
X166935745Y-88606439D01*
X166742840Y-89143242D01*
X147522000Y-89143242D01*
X147522000Y-88352843D01*
X167361348Y-88352843D01*
X167367485Y-88358980D01*
X167361348Y-88365117D01*
X167435339Y-88611115D01*
X167722990Y-88714485D01*
X168188640Y-89180135D01*
X168627352Y-88741423D01*
X168941941Y-88611115D01*
X169015932Y-88365117D01*
X169009795Y-88358980D01*
X169015932Y-88352843D01*
X168941941Y-88106845D01*
X168654290Y-88003475D01*
X168188640Y-87537825D01*
X167749928Y-87976537D01*
X167435339Y-88106845D01*
X167361348Y-88352843D01*
X147522000Y-88352843D01*
X147522000Y-70046637D01*
X167361348Y-70046637D01*
X167435339Y-70292635D01*
X167972142Y-70485540D01*
X168541906Y-70458336D01*
X168941941Y-70292635D01*
X169015932Y-70046637D01*
X168188640Y-69219345D01*
X167361348Y-70046637D01*
X147522000Y-70046637D01*
X147522000Y-68823242D01*
X166742840Y-68823242D01*
X166770044Y-69393006D01*
X166935745Y-69793041D01*
X167181743Y-69867032D01*
X168009035Y-69039740D01*
X168368245Y-69039740D01*
X169195537Y-69867032D01*
X169441535Y-69793041D01*
X169634440Y-69256238D01*
X169607236Y-68686474D01*
X169441535Y-68286439D01*
X169195537Y-68212448D01*
X168368245Y-69039740D01*
X168009035Y-69039740D01*
X167181743Y-68212448D01*
X166935745Y-68286439D01*
X166742840Y-68823242D01*
X147522000Y-68823242D01*
X147522000Y-67310000D01*
X155965907Y-67310000D01*
X156078946Y-67878285D01*
X156400853Y-68360054D01*
X156882622Y-68681961D01*
X157450907Y-68795000D01*
X157509093Y-68795000D01*
X158077378Y-68681961D01*
X158559147Y-68360054D01*
X158777781Y-68032843D01*
X167361348Y-68032843D01*
X167367485Y-68038980D01*
X167361348Y-68045117D01*
X167435339Y-68291115D01*
X167722990Y-68394485D01*
X168188640Y-68860135D01*
X168627352Y-68421423D01*
X168941941Y-68291115D01*
X169015932Y-68045117D01*
X169009795Y-68038980D01*
X169015932Y-68032843D01*
X168941941Y-67786845D01*
X168654290Y-67683475D01*
X168188640Y-67217825D01*
X167749928Y-67656537D01*
X167435339Y-67786845D01*
X167361348Y-68032843D01*
X158777781Y-68032843D01*
X158881054Y-67878285D01*
X158994093Y-67310000D01*
X158896969Y-66821722D01*
X166742840Y-66821722D01*
X166770044Y-67391486D01*
X166935745Y-67791521D01*
X167181743Y-67865512D01*
X168009035Y-67038220D01*
X167994893Y-67024078D01*
X168174498Y-66844473D01*
X168188640Y-66858615D01*
X168202783Y-66844473D01*
X168382388Y-67024078D01*
X168368245Y-67038220D01*
X169195537Y-67865512D01*
X169441535Y-67791521D01*
X169634440Y-67254718D01*
X169607236Y-66684954D01*
X169441535Y-66284919D01*
X169195539Y-66210929D01*
X169310418Y-66096050D01*
X169236295Y-66021927D01*
X169403473Y-65855040D01*
X169580790Y-65428012D01*
X176305401Y-58703401D01*
X176470148Y-58456840D01*
X176528000Y-58166000D01*
X176528000Y-53095520D01*
X176857029Y-52875670D01*
X177038000Y-52604828D01*
X177218971Y-52875670D01*
X177705152Y-53200526D01*
X178278641Y-53314600D01*
X178337359Y-53314600D01*
X178910848Y-53200526D01*
X179397029Y-52875670D01*
X179578000Y-52604828D01*
X179758971Y-52875670D01*
X180245152Y-53200526D01*
X180818641Y-53314600D01*
X180877359Y-53314600D01*
X180994498Y-53291300D01*
X182120000Y-54416802D01*
X182120000Y-77917198D01*
X179517198Y-80520000D01*
X170268900Y-80520000D01*
X169978061Y-80577852D01*
X169731499Y-80742599D01*
X168526199Y-81947899D01*
X168475098Y-81926680D01*
X167904685Y-81926182D01*
X167377502Y-82144010D01*
X166973807Y-82547000D01*
X166755060Y-83073802D01*
X166754562Y-83644215D01*
X166972390Y-84171398D01*
X167161658Y-84360997D01*
X166973807Y-84548520D01*
X166755060Y-85075322D01*
X166754562Y-85645735D01*
X166972390Y-86172918D01*
X167141044Y-86341868D01*
X167066862Y-86416050D01*
X167181741Y-86530929D01*
X166935745Y-86604919D01*
X166742840Y-87141722D01*
X166770044Y-87711486D01*
X166935745Y-88111521D01*
X167181743Y-88185512D01*
X168009035Y-87358220D01*
X167994893Y-87344078D01*
X168174498Y-87164473D01*
X168188640Y-87178615D01*
X168202783Y-87164473D01*
X168382388Y-87344078D01*
X168368245Y-87358220D01*
X169195537Y-88185512D01*
X169441535Y-88111521D01*
X169547063Y-87817865D01*
X169928000Y-88198802D01*
X169928000Y-91948000D01*
X169985852Y-92238839D01*
X170150599Y-92485401D01*
X173452599Y-95787401D01*
X173699160Y-95952148D01*
X173990000Y-96010000D01*
X193741198Y-96010000D01*
X196657583Y-98926385D01*
X196522971Y-99016330D01*
X196198115Y-99502511D01*
X196084041Y-100076000D01*
X196198115Y-100649489D01*
X196522971Y-101135670D01*
X197009152Y-101460526D01*
X197582641Y-101574600D01*
X197641359Y-101574600D01*
X198214848Y-101460526D01*
X198701029Y-101135670D01*
X198882000Y-100864828D01*
X199062971Y-101135670D01*
X199549152Y-101460526D01*
X200122641Y-101574600D01*
X200181359Y-101574600D01*
X200754848Y-101460526D01*
X201241029Y-101135670D01*
X201422000Y-100864828D01*
X201602971Y-101135670D01*
X202089152Y-101460526D01*
X202662641Y-101574600D01*
X202721359Y-101574600D01*
X203294848Y-101460526D01*
X203781029Y-101135670D01*
X203962000Y-100864828D01*
X204142971Y-101135670D01*
X204629152Y-101460526D01*
X205202641Y-101574600D01*
X205261359Y-101574600D01*
X205834848Y-101460526D01*
X206321029Y-101135670D01*
X206502000Y-100864828D01*
X206682971Y-101135670D01*
X207169152Y-101460526D01*
X207742641Y-101574600D01*
X207801359Y-101574600D01*
X208374848Y-101460526D01*
X208861029Y-101135670D01*
X209042000Y-100864828D01*
X209222971Y-101135670D01*
X209709152Y-101460526D01*
X210282641Y-101574600D01*
X210341359Y-101574600D01*
X210914848Y-101460526D01*
X211401029Y-101135670D01*
X211725885Y-100649489D01*
X211839959Y-100076000D01*
X211725885Y-99502511D01*
X211401029Y-99016330D01*
X211058647Y-98787558D01*
X211014148Y-98563847D01*
X211014148Y-98563846D01*
X210849401Y-98317285D01*
X209548000Y-97015884D01*
X209548000Y-87884000D01*
X209490148Y-87593161D01*
X209325401Y-87346599D01*
X207694294Y-85715492D01*
X207722220Y-85648238D01*
X207722718Y-85077825D01*
X207504890Y-84550642D01*
X207315622Y-84361043D01*
X207503473Y-84173520D01*
X207722220Y-83646718D01*
X207722718Y-83076305D01*
X207504890Y-82549122D01*
X207101900Y-82145427D01*
X206575098Y-81926680D01*
X206004685Y-81926182D01*
X205477502Y-82144010D01*
X205073807Y-82547000D01*
X205051692Y-82600260D01*
X202039062Y-82600260D01*
X194816000Y-75377198D01*
X194816000Y-72136000D01*
X208911041Y-72136000D01*
X209025115Y-72709489D01*
X209349971Y-73195670D01*
X209664752Y-73406000D01*
X209349971Y-73616330D01*
X209025115Y-74102511D01*
X208911041Y-74676000D01*
X209025115Y-75249489D01*
X209349971Y-75735670D01*
X209664752Y-75946000D01*
X209349971Y-76156330D01*
X209025115Y-76642511D01*
X208911041Y-77216000D01*
X209025115Y-77789489D01*
X209349971Y-78275670D01*
X209836152Y-78600526D01*
X210409641Y-78714600D01*
X210468359Y-78714600D01*
X211041848Y-78600526D01*
X211528029Y-78275670D01*
X211709000Y-78004828D01*
X211889971Y-78275670D01*
X212376152Y-78600526D01*
X212949641Y-78714600D01*
X213008359Y-78714600D01*
X213581848Y-78600526D01*
X214068029Y-78275670D01*
X214392885Y-77789489D01*
X214506959Y-77216000D01*
X214392885Y-76642511D01*
X214068029Y-76156330D01*
X213753248Y-75946000D01*
X214068029Y-75735670D01*
X214392885Y-75249489D01*
X214506959Y-74676000D01*
X214392885Y-74102511D01*
X214068029Y-73616330D01*
X213753248Y-73406000D01*
X214068029Y-73195670D01*
X214392885Y-72709489D01*
X214506959Y-72136000D01*
X214392885Y-71562511D01*
X214068029Y-71076330D01*
X213581848Y-70751474D01*
X213008359Y-70637400D01*
X212949641Y-70637400D01*
X212376152Y-70751474D01*
X211889971Y-71076330D01*
X211709000Y-71347172D01*
X211528029Y-71076330D01*
X211041848Y-70751474D01*
X210468359Y-70637400D01*
X210409641Y-70637400D01*
X209836152Y-70751474D01*
X209349971Y-71076330D01*
X209025115Y-71562511D01*
X208911041Y-72136000D01*
X194816000Y-72136000D01*
X194816000Y-70046637D01*
X197841348Y-70046637D01*
X197915339Y-70292635D01*
X198452142Y-70485540D01*
X199021906Y-70458336D01*
X199421941Y-70292635D01*
X199495932Y-70046637D01*
X205461348Y-70046637D01*
X205535339Y-70292635D01*
X206072142Y-70485540D01*
X206641906Y-70458336D01*
X207041941Y-70292635D01*
X207115932Y-70046637D01*
X206288640Y-69219345D01*
X205461348Y-70046637D01*
X199495932Y-70046637D01*
X198668640Y-69219345D01*
X197841348Y-70046637D01*
X194816000Y-70046637D01*
X194816000Y-54368116D01*
X195609401Y-53574715D01*
X195774148Y-53328153D01*
X195818647Y-53104442D01*
X196161029Y-52875670D01*
X196342000Y-52604828D01*
X196522971Y-52875670D01*
X197009152Y-53200526D01*
X197582641Y-53314600D01*
X197641359Y-53314600D01*
X198214848Y-53200526D01*
X198701029Y-52875670D01*
X198882000Y-52604828D01*
X199062971Y-52875670D01*
X199549152Y-53200526D01*
X200122641Y-53314600D01*
X200181359Y-53314600D01*
X200754848Y-53200526D01*
X201241029Y-52875670D01*
X201422000Y-52604828D01*
X201602971Y-52875670D01*
X202003537Y-53143320D01*
X202154599Y-53369401D01*
X202948000Y-54162802D01*
X202948000Y-58613198D01*
X199608725Y-61952473D01*
X199481900Y-61825427D01*
X198955098Y-61606680D01*
X198384685Y-61606182D01*
X197857502Y-61824010D01*
X197453807Y-62227000D01*
X197235060Y-62753802D01*
X197234562Y-63324215D01*
X197452390Y-63851398D01*
X197641658Y-64040997D01*
X197453807Y-64228520D01*
X197235060Y-64755322D01*
X197234562Y-65325735D01*
X197452390Y-65852918D01*
X197639118Y-66039973D01*
X197453807Y-66224960D01*
X197235060Y-66751762D01*
X197234562Y-67322175D01*
X197452390Y-67849358D01*
X197623582Y-68020850D01*
X197546862Y-68097570D01*
X197661741Y-68212449D01*
X197415745Y-68286439D01*
X197222840Y-68823242D01*
X197250044Y-69393006D01*
X197415745Y-69793041D01*
X197661743Y-69867032D01*
X198489035Y-69039740D01*
X198474893Y-69025598D01*
X198654498Y-68845993D01*
X198668640Y-68860135D01*
X198682783Y-68845993D01*
X198862388Y-69025598D01*
X198848245Y-69039740D01*
X199675537Y-69867032D01*
X199921535Y-69793041D01*
X200114440Y-69256238D01*
X200087236Y-68686474D01*
X199921535Y-68286439D01*
X199675539Y-68212449D01*
X199790418Y-68097570D01*
X199713752Y-68020904D01*
X199883473Y-67851480D01*
X200102220Y-67324678D01*
X200102718Y-66754265D01*
X199884890Y-66227082D01*
X199698162Y-66040027D01*
X199883473Y-65855040D01*
X200102220Y-65328238D01*
X200102718Y-64757825D01*
X200080695Y-64704527D01*
X204753401Y-60031821D01*
X204918148Y-59785259D01*
X204976000Y-59494420D01*
X204976000Y-54162802D01*
X205769401Y-53369401D01*
X205920463Y-53143320D01*
X206321029Y-52875670D01*
X206502000Y-52604828D01*
X206682971Y-52875670D01*
X207083537Y-53143320D01*
X207234599Y-53369401D01*
X208028000Y-54162802D01*
X208028000Y-61153198D01*
X207228725Y-61952473D01*
X207101900Y-61825427D01*
X206575098Y-61606680D01*
X206004685Y-61606182D01*
X205477502Y-61824010D01*
X205073807Y-62227000D01*
X204855060Y-62753802D01*
X204854562Y-63324215D01*
X205072390Y-63851398D01*
X205261658Y-64040997D01*
X205073807Y-64228520D01*
X204855060Y-64755322D01*
X204854562Y-65325735D01*
X205072390Y-65852918D01*
X205259118Y-66039973D01*
X205073807Y-66224960D01*
X204855060Y-66751762D01*
X204854562Y-67322175D01*
X205072390Y-67849358D01*
X205243582Y-68020850D01*
X205166862Y-68097570D01*
X205281741Y-68212449D01*
X205035745Y-68286439D01*
X204842840Y-68823242D01*
X204870044Y-69393006D01*
X205035745Y-69793041D01*
X205281743Y-69867032D01*
X206109035Y-69039740D01*
X206094893Y-69025598D01*
X206274498Y-68845993D01*
X206288640Y-68860135D01*
X206302783Y-68845993D01*
X206482388Y-69025598D01*
X206468245Y-69039740D01*
X207295537Y-69867032D01*
X207541535Y-69793041D01*
X207734440Y-69256238D01*
X207707236Y-68686474D01*
X207541535Y-68286439D01*
X207295539Y-68212449D01*
X207410418Y-68097570D01*
X207333752Y-68020904D01*
X207503473Y-67851480D01*
X207722220Y-67324678D01*
X207722718Y-66754265D01*
X207504890Y-66227082D01*
X207318162Y-66040027D01*
X207503473Y-65855040D01*
X207722220Y-65328238D01*
X207722718Y-64757825D01*
X207700695Y-64704527D01*
X209833401Y-62571821D01*
X209998148Y-62325260D01*
X210056000Y-62034420D01*
X210056000Y-54162802D01*
X210849401Y-53369401D01*
X211000463Y-53143320D01*
X211401029Y-52875670D01*
X211725885Y-52389489D01*
X211839959Y-51816000D01*
X211725885Y-51242511D01*
X211401029Y-50756330D01*
X210914848Y-50431474D01*
X210341359Y-50317400D01*
X210282641Y-50317400D01*
X209709152Y-50431474D01*
X209222971Y-50756330D01*
X209042000Y-51027172D01*
X208861029Y-50756330D01*
X208374848Y-50431474D01*
X207801359Y-50317400D01*
X207742641Y-50317400D01*
X207169152Y-50431474D01*
X206682971Y-50756330D01*
X206502000Y-51027172D01*
X206321029Y-50756330D01*
X205834848Y-50431474D01*
X205261359Y-50317400D01*
X205202641Y-50317400D01*
X204629152Y-50431474D01*
X204142971Y-50756330D01*
X203962000Y-51027172D01*
X203781029Y-50756330D01*
X203294848Y-50431474D01*
X202721359Y-50317400D01*
X202662641Y-50317400D01*
X202089152Y-50431474D01*
X201602971Y-50756330D01*
X201422000Y-51027172D01*
X201241029Y-50756330D01*
X200754848Y-50431474D01*
X200181359Y-50317400D01*
X200122641Y-50317400D01*
X199549152Y-50431474D01*
X199062971Y-50756330D01*
X198882000Y-51027172D01*
X198701029Y-50756330D01*
X198214848Y-50431474D01*
X197641359Y-50317400D01*
X197582641Y-50317400D01*
X197009152Y-50431474D01*
X196522971Y-50756330D01*
X196342000Y-51027172D01*
X196161029Y-50756330D01*
X195674848Y-50431474D01*
X195101359Y-50317400D01*
X195042641Y-50317400D01*
X194469152Y-50431474D01*
X193982971Y-50756330D01*
X193802000Y-51027172D01*
X193621029Y-50756330D01*
X193134848Y-50431474D01*
X192561359Y-50317400D01*
X192502641Y-50317400D01*
X191929152Y-50431474D01*
X191442971Y-50756330D01*
X191118115Y-51242511D01*
X191004041Y-51816000D01*
X191118115Y-52389489D01*
X191442971Y-52875670D01*
X191774184Y-53096980D01*
X191829852Y-53376839D01*
X191994599Y-53623401D01*
X192788000Y-54416802D01*
X192788000Y-75946000D01*
X192845852Y-76236839D01*
X193010599Y-76483401D01*
X197908640Y-81381442D01*
X197908640Y-82122880D01*
X197857502Y-82144010D01*
X197453807Y-82547000D01*
X197235060Y-83073802D01*
X197234562Y-83644215D01*
X197452390Y-84171398D01*
X197641658Y-84360997D01*
X197453807Y-84548520D01*
X197235060Y-85075322D01*
X197234562Y-85645735D01*
X197452390Y-86172918D01*
X197621044Y-86341868D01*
X197546862Y-86416050D01*
X197661741Y-86530929D01*
X197415745Y-86604919D01*
X197222840Y-87141722D01*
X197250044Y-87711486D01*
X197415745Y-88111521D01*
X197661743Y-88185512D01*
X198489035Y-87358220D01*
X198474893Y-87344078D01*
X198654498Y-87164473D01*
X198668640Y-87178615D01*
X198682783Y-87164473D01*
X198862388Y-87344078D01*
X198848245Y-87358220D01*
X199675537Y-88185512D01*
X199921535Y-88111521D01*
X200027063Y-87817865D01*
X200408000Y-88198802D01*
X200408000Y-92202000D01*
X200465852Y-92492839D01*
X200630599Y-92739401D01*
X206817583Y-98926385D01*
X206682971Y-99016330D01*
X206502000Y-99287172D01*
X206321029Y-99016330D01*
X205989816Y-98795020D01*
X205934148Y-98515161D01*
X205769401Y-98268599D01*
X200689401Y-93188599D01*
X200442839Y-93023852D01*
X200152000Y-92966000D01*
X195640802Y-92966000D01*
X194308000Y-91633198D01*
X194308000Y-90366637D01*
X197841348Y-90366637D01*
X197915339Y-90612635D01*
X198452142Y-90805540D01*
X199021906Y-90778336D01*
X199421941Y-90612635D01*
X199495932Y-90366637D01*
X198668640Y-89539345D01*
X197841348Y-90366637D01*
X194308000Y-90366637D01*
X194308000Y-89143242D01*
X197222840Y-89143242D01*
X197250044Y-89713006D01*
X197415745Y-90113041D01*
X197661743Y-90187032D01*
X198489035Y-89359740D01*
X198848245Y-89359740D01*
X199675537Y-90187032D01*
X199921535Y-90113041D01*
X200114440Y-89576238D01*
X200087236Y-89006474D01*
X199921535Y-88606439D01*
X199675537Y-88532448D01*
X198848245Y-89359740D01*
X198489035Y-89359740D01*
X197661743Y-88532448D01*
X197415745Y-88606439D01*
X197222840Y-89143242D01*
X194308000Y-89143242D01*
X194308000Y-88352843D01*
X197841348Y-88352843D01*
X197847485Y-88358980D01*
X197841348Y-88365117D01*
X197915339Y-88611115D01*
X198202990Y-88714485D01*
X198668640Y-89180135D01*
X199107352Y-88741423D01*
X199421941Y-88611115D01*
X199495932Y-88365117D01*
X199489795Y-88358980D01*
X199495932Y-88352843D01*
X199421941Y-88106845D01*
X199134290Y-88003475D01*
X198668640Y-87537825D01*
X198229928Y-87976537D01*
X197915339Y-88106845D01*
X197841348Y-88352843D01*
X194308000Y-88352843D01*
X194308000Y-87861140D01*
X194250148Y-87570301D01*
X194085401Y-87323739D01*
X192461001Y-85699339D01*
X192482220Y-85648238D01*
X192482718Y-85077825D01*
X192264890Y-84550642D01*
X192075622Y-84361043D01*
X192263473Y-84173520D01*
X192482220Y-83646718D01*
X192482718Y-83076305D01*
X192264890Y-82549122D01*
X191861900Y-82145427D01*
X191335098Y-81926680D01*
X190764685Y-81926182D01*
X190711387Y-81948205D01*
X189228000Y-80464818D01*
X189228000Y-53095520D01*
X189557029Y-52875670D01*
X189881885Y-52389489D01*
X189995959Y-51816000D01*
X189881885Y-51242511D01*
X189557029Y-50756330D01*
X189070848Y-50431474D01*
X188497359Y-50317400D01*
X188438641Y-50317400D01*
X187865152Y-50431474D01*
X187378971Y-50756330D01*
X187198000Y-51027172D01*
X187017029Y-50756330D01*
X186530848Y-50431474D01*
X185957359Y-50317400D01*
X185898641Y-50317400D01*
X185325152Y-50431474D01*
X184838971Y-50756330D01*
X184658000Y-51027172D01*
X184477029Y-50756330D01*
X183990848Y-50431474D01*
X183417359Y-50317400D01*
X183358641Y-50317400D01*
X182785152Y-50431474D01*
X182298971Y-50756330D01*
X182118000Y-51027172D01*
X181937029Y-50756330D01*
X181450848Y-50431474D01*
X180877359Y-50317400D01*
X180818641Y-50317400D01*
X180245152Y-50431474D01*
X179758971Y-50756330D01*
X179578000Y-51027172D01*
X179397029Y-50756330D01*
X178910848Y-50431474D01*
X178337359Y-50317400D01*
X178278641Y-50317400D01*
X177705152Y-50431474D01*
X177218971Y-50756330D01*
X177038000Y-51027172D01*
X176857029Y-50756330D01*
X176370848Y-50431474D01*
X175797359Y-50317400D01*
X175738641Y-50317400D01*
X175165152Y-50431474D01*
X174678971Y-50756330D01*
X174498008Y-51027161D01*
X174116490Y-50609179D01*
X173587027Y-50361032D01*
X173355000Y-50481531D01*
X173355000Y-51689000D01*
X173375000Y-51689000D01*
X173375000Y-51943000D01*
X173355000Y-51943000D01*
X173355000Y-53150469D01*
X173587027Y-53270968D01*
X174116490Y-53022821D01*
X174498008Y-52604839D01*
X174678971Y-52875670D01*
X175008000Y-53095520D01*
X175008000Y-57851198D01*
X169622298Y-63236900D01*
X169622718Y-62756305D01*
X169404890Y-62229122D01*
X169001900Y-61825427D01*
X168475098Y-61606680D01*
X167904685Y-61606182D01*
X167377502Y-61824010D01*
X166973807Y-62227000D01*
X166755060Y-62753802D01*
X166754562Y-63324215D01*
X166972390Y-63851398D01*
X167161658Y-64040997D01*
X166973807Y-64228520D01*
X166755060Y-64755322D01*
X166754562Y-65325735D01*
X166972390Y-65852918D01*
X167141044Y-66021868D01*
X167066862Y-66096050D01*
X167181741Y-66210929D01*
X166935745Y-66284919D01*
X166742840Y-66821722D01*
X158896969Y-66821722D01*
X158881054Y-66741715D01*
X158559147Y-66259946D01*
X158515223Y-66230597D01*
X158689698Y-66158327D01*
X158868327Y-65979699D01*
X158965000Y-65746310D01*
X158965000Y-65055750D01*
X158806250Y-64897000D01*
X157607000Y-64897000D01*
X157607000Y-64917000D01*
X157353000Y-64917000D01*
X157353000Y-64897000D01*
X156153750Y-64897000D01*
X155995000Y-65055750D01*
X155995000Y-65746310D01*
X156091673Y-65979699D01*
X156270302Y-66158327D01*
X156444777Y-66230597D01*
X156400853Y-66259946D01*
X156078946Y-66741715D01*
X155965907Y-67310000D01*
X147522000Y-67310000D01*
X147522000Y-63793690D01*
X155995000Y-63793690D01*
X155995000Y-64484250D01*
X156153750Y-64643000D01*
X157353000Y-64643000D01*
X157353000Y-63443750D01*
X157607000Y-63443750D01*
X157607000Y-64643000D01*
X158806250Y-64643000D01*
X158965000Y-64484250D01*
X158965000Y-63793690D01*
X158868327Y-63560301D01*
X158689698Y-63381673D01*
X158456309Y-63285000D01*
X157765750Y-63285000D01*
X157607000Y-63443750D01*
X157353000Y-63443750D01*
X157194250Y-63285000D01*
X156503691Y-63285000D01*
X156270302Y-63381673D01*
X156091673Y-63560301D01*
X155995000Y-63793690D01*
X147522000Y-63793690D01*
X147522000Y-59222092D01*
X148630091Y-58114000D01*
X156464000Y-58114000D01*
X156735705Y-58059954D01*
X156966046Y-57906046D01*
X158490043Y-56382048D01*
X158490046Y-56382046D01*
X158643954Y-56151705D01*
X158698000Y-55880000D01*
X158698000Y-51094092D01*
X159806091Y-49986000D01*
X160721668Y-49986000D01*
X160158364Y-50548321D01*
X160158364Y-50548321D01*
G37*
X160158364Y-50548321D02*
X159817389Y-51369481D01*
X159816613Y-52258619D01*
X160156155Y-53080372D01*
X160784321Y-53709636D01*
X161605481Y-54050611D01*
X162494619Y-54051387D01*
X163316372Y-53711845D01*
X163945636Y-53083679D01*
X164218645Y-52426200D01*
X164518971Y-52875670D01*
X165005152Y-53200526D01*
X165578641Y-53314600D01*
X165637359Y-53314600D01*
X166210848Y-53200526D01*
X166697029Y-52875670D01*
X166878000Y-52604828D01*
X167058971Y-52875670D01*
X167545152Y-53200526D01*
X168118641Y-53314600D01*
X168177359Y-53314600D01*
X168750848Y-53200526D01*
X169237029Y-52875670D01*
X169418000Y-52604828D01*
X169598971Y-52875670D01*
X170085152Y-53200526D01*
X170658641Y-53314600D01*
X170717359Y-53314600D01*
X171290848Y-53200526D01*
X171777029Y-52875670D01*
X171957992Y-52604839D01*
X172339510Y-53022821D01*
X172868973Y-53270968D01*
X173101000Y-53150469D01*
X173101000Y-51943000D01*
X173081000Y-51943000D01*
X173081000Y-51689000D01*
X173101000Y-51689000D01*
X173101000Y-50481531D01*
X172868973Y-50361032D01*
X172339510Y-50609179D01*
X171957992Y-51027161D01*
X171777029Y-50756330D01*
X171290848Y-50431474D01*
X170717359Y-50317400D01*
X170658641Y-50317400D01*
X170085152Y-50431474D01*
X169598971Y-50756330D01*
X169418000Y-51027172D01*
X169237029Y-50756330D01*
X168750848Y-50431474D01*
X168177359Y-50317400D01*
X168118641Y-50317400D01*
X167545152Y-50431474D01*
X167058971Y-50756330D01*
X166878000Y-51027172D01*
X166697029Y-50756330D01*
X166210848Y-50431474D01*
X165637359Y-50317400D01*
X165578641Y-50317400D01*
X165005152Y-50431474D01*
X164518971Y-50756330D01*
X164218335Y-51206263D01*
X163947845Y-50551628D01*
X163383204Y-49986000D01*
X211033908Y-49986000D01*
X212142000Y-51094091D01*
X212142000Y-61976000D01*
X212196046Y-62247705D01*
X212349954Y-62478046D01*
X214682000Y-64810091D01*
X214682000Y-65725668D01*
X214119679Y-65162364D01*
X213298519Y-64821389D01*
X212409381Y-64820613D01*
X211587628Y-65160155D01*
X210958364Y-65788321D01*
X210617389Y-66609481D01*
X210616613Y-67498619D01*
X210956155Y-68320372D01*
X211584321Y-68949636D01*
X212405481Y-69290611D01*
X213294619Y-69291387D01*
X214116372Y-68951845D01*
X214682000Y-68387204D01*
X214682000Y-93665668D01*
X214119679Y-93102364D01*
X213298519Y-92761389D01*
X212409381Y-92760613D01*
X211587628Y-93100155D01*
X210958364Y-93728321D01*
X210617389Y-94549481D01*
X210616613Y-95438619D01*
X210956155Y-96260372D01*
X211584321Y-96889636D01*
X212405481Y-97230611D01*
X213294619Y-97231387D01*
X214116372Y-96891845D01*
X214682000Y-96327204D01*
X214682000Y-98511909D01*
X212349954Y-100843954D01*
X212196046Y-101074295D01*
X212142000Y-101346000D01*
X212142000Y-101906000D01*
X162112332Y-101906000D01*
X162675636Y-101343679D01*
X163016611Y-100522519D01*
X163017000Y-100076000D01*
X173224041Y-100076000D01*
X173338115Y-100649489D01*
X173662971Y-101135670D01*
X174149152Y-101460526D01*
X174722641Y-101574600D01*
X174781359Y-101574600D01*
X175354848Y-101460526D01*
X175841029Y-101135670D01*
X176022000Y-100864828D01*
X176202971Y-101135670D01*
X176689152Y-101460526D01*
X177262641Y-101574600D01*
X177321359Y-101574600D01*
X177894848Y-101460526D01*
X178381029Y-101135670D01*
X178562000Y-100864828D01*
X178742971Y-101135670D01*
X179229152Y-101460526D01*
X179802641Y-101574600D01*
X179861359Y-101574600D01*
X180434848Y-101460526D01*
X180921029Y-101135670D01*
X181102000Y-100864828D01*
X181282971Y-101135670D01*
X181769152Y-101460526D01*
X182342641Y-101574600D01*
X182401359Y-101574600D01*
X182974848Y-101460526D01*
X183461029Y-101135670D01*
X183642000Y-100864828D01*
X183822971Y-101135670D01*
X184309152Y-101460526D01*
X184882641Y-101574600D01*
X184941359Y-101574600D01*
X185514848Y-101460526D01*
X186001029Y-101135670D01*
X186181992Y-100864839D01*
X186563510Y-101282821D01*
X187092973Y-101530968D01*
X187325000Y-101410469D01*
X187325000Y-100203000D01*
X187579000Y-100203000D01*
X187579000Y-101410469D01*
X187811027Y-101530968D01*
X188340490Y-101282821D01*
X188722000Y-100864848D01*
X189103510Y-101282821D01*
X189632973Y-101530968D01*
X189865000Y-101410469D01*
X189865000Y-100203000D01*
X187579000Y-100203000D01*
X187325000Y-100203000D01*
X187305000Y-100203000D01*
X187305000Y-99949000D01*
X187325000Y-99949000D01*
X187325000Y-98741531D01*
X187579000Y-98741531D01*
X187579000Y-99949000D01*
X189865000Y-99949000D01*
X189865000Y-98741531D01*
X190119000Y-98741531D01*
X190119000Y-99949000D01*
X190139000Y-99949000D01*
X190139000Y-100203000D01*
X190119000Y-100203000D01*
X190119000Y-101410469D01*
X190351027Y-101530968D01*
X190880490Y-101282821D01*
X191262008Y-100864839D01*
X191442971Y-101135670D01*
X191929152Y-101460526D01*
X192502641Y-101574600D01*
X192561359Y-101574600D01*
X193134848Y-101460526D01*
X193621029Y-101135670D01*
X193945885Y-100649489D01*
X194059959Y-100076000D01*
X193945885Y-99502511D01*
X193621029Y-99016330D01*
X193134848Y-98691474D01*
X192561359Y-98577400D01*
X192502641Y-98577400D01*
X191929152Y-98691474D01*
X191442971Y-99016330D01*
X191262008Y-99287161D01*
X190880490Y-98869179D01*
X190351027Y-98621032D01*
X190119000Y-98741531D01*
X189865000Y-98741531D01*
X189632973Y-98621032D01*
X189103510Y-98869179D01*
X188722000Y-99287152D01*
X188340490Y-98869179D01*
X187811027Y-98621032D01*
X187579000Y-98741531D01*
X187325000Y-98741531D01*
X187092973Y-98621032D01*
X186563510Y-98869179D01*
X186181992Y-99287161D01*
X186001029Y-99016330D01*
X185514848Y-98691474D01*
X184941359Y-98577400D01*
X184882641Y-98577400D01*
X184309152Y-98691474D01*
X183822971Y-99016330D01*
X183642000Y-99287172D01*
X183461029Y-99016330D01*
X182974848Y-98691474D01*
X182401359Y-98577400D01*
X182342641Y-98577400D01*
X181769152Y-98691474D01*
X181282971Y-99016330D01*
X181102000Y-99287172D01*
X180921029Y-99016330D01*
X180434848Y-98691474D01*
X179861359Y-98577400D01*
X179802641Y-98577400D01*
X179229152Y-98691474D01*
X178742971Y-99016330D01*
X178562000Y-99287172D01*
X178381029Y-99016330D01*
X177894848Y-98691474D01*
X177321359Y-98577400D01*
X177262641Y-98577400D01*
X176689152Y-98691474D01*
X176202971Y-99016330D01*
X176022000Y-99287172D01*
X175841029Y-99016330D01*
X175354848Y-98691474D01*
X174781359Y-98577400D01*
X174722641Y-98577400D01*
X174149152Y-98691474D01*
X173662971Y-99016330D01*
X173338115Y-99502511D01*
X173224041Y-100076000D01*
X163017000Y-100076000D01*
X163017387Y-99633381D01*
X162677845Y-98811628D01*
X162049679Y-98182364D01*
X161228519Y-97841389D01*
X160339381Y-97840613D01*
X159517628Y-98180155D01*
X158888364Y-98808321D01*
X158547389Y-99629481D01*
X158546613Y-100518619D01*
X158886155Y-101340372D01*
X159450796Y-101906000D01*
X147522000Y-101906000D01*
X147522000Y-90366637D01*
X167361348Y-90366637D01*
X167435339Y-90612635D01*
X167972142Y-90805540D01*
X168541906Y-90778336D01*
X168941941Y-90612635D01*
X169015932Y-90366637D01*
X168188640Y-89539345D01*
X167361348Y-90366637D01*
X147522000Y-90366637D01*
X147522000Y-89143242D01*
X166742840Y-89143242D01*
X166770044Y-89713006D01*
X166935745Y-90113041D01*
X167181743Y-90187032D01*
X168009035Y-89359740D01*
X168368245Y-89359740D01*
X169195537Y-90187032D01*
X169441535Y-90113041D01*
X169634440Y-89576238D01*
X169607236Y-89006474D01*
X169441535Y-88606439D01*
X169195537Y-88532448D01*
X168368245Y-89359740D01*
X168009035Y-89359740D01*
X167181743Y-88532448D01*
X166935745Y-88606439D01*
X166742840Y-89143242D01*
X147522000Y-89143242D01*
X147522000Y-88352843D01*
X167361348Y-88352843D01*
X167367485Y-88358980D01*
X167361348Y-88365117D01*
X167435339Y-88611115D01*
X167722990Y-88714485D01*
X168188640Y-89180135D01*
X168627352Y-88741423D01*
X168941941Y-88611115D01*
X169015932Y-88365117D01*
X169009795Y-88358980D01*
X169015932Y-88352843D01*
X168941941Y-88106845D01*
X168654290Y-88003475D01*
X168188640Y-87537825D01*
X167749928Y-87976537D01*
X167435339Y-88106845D01*
X167361348Y-88352843D01*
X147522000Y-88352843D01*
X147522000Y-70046637D01*
X167361348Y-70046637D01*
X167435339Y-70292635D01*
X167972142Y-70485540D01*
X168541906Y-70458336D01*
X168941941Y-70292635D01*
X169015932Y-70046637D01*
X168188640Y-69219345D01*
X167361348Y-70046637D01*
X147522000Y-70046637D01*
X147522000Y-68823242D01*
X166742840Y-68823242D01*
X166770044Y-69393006D01*
X166935745Y-69793041D01*
X167181743Y-69867032D01*
X168009035Y-69039740D01*
X168368245Y-69039740D01*
X169195537Y-69867032D01*
X169441535Y-69793041D01*
X169634440Y-69256238D01*
X169607236Y-68686474D01*
X169441535Y-68286439D01*
X169195537Y-68212448D01*
X168368245Y-69039740D01*
X168009035Y-69039740D01*
X167181743Y-68212448D01*
X166935745Y-68286439D01*
X166742840Y-68823242D01*
X147522000Y-68823242D01*
X147522000Y-67310000D01*
X155965907Y-67310000D01*
X156078946Y-67878285D01*
X156400853Y-68360054D01*
X156882622Y-68681961D01*
X157450907Y-68795000D01*
X157509093Y-68795000D01*
X158077378Y-68681961D01*
X158559147Y-68360054D01*
X158777781Y-68032843D01*
X167361348Y-68032843D01*
X167367485Y-68038980D01*
X167361348Y-68045117D01*
X167435339Y-68291115D01*
X167722990Y-68394485D01*
X168188640Y-68860135D01*
X168627352Y-68421423D01*
X168941941Y-68291115D01*
X169015932Y-68045117D01*
X169009795Y-68038980D01*
X169015932Y-68032843D01*
X168941941Y-67786845D01*
X168654290Y-67683475D01*
X168188640Y-67217825D01*
X167749928Y-67656537D01*
X167435339Y-67786845D01*
X167361348Y-68032843D01*
X158777781Y-68032843D01*
X158881054Y-67878285D01*
X158994093Y-67310000D01*
X158896969Y-66821722D01*
X166742840Y-66821722D01*
X166770044Y-67391486D01*
X166935745Y-67791521D01*
X167181743Y-67865512D01*
X168009035Y-67038220D01*
X167994893Y-67024078D01*
X168174498Y-66844473D01*
X168188640Y-66858615D01*
X168202783Y-66844473D01*
X168382388Y-67024078D01*
X168368245Y-67038220D01*
X169195537Y-67865512D01*
X169441535Y-67791521D01*
X169634440Y-67254718D01*
X169607236Y-66684954D01*
X169441535Y-66284919D01*
X169195539Y-66210929D01*
X169310418Y-66096050D01*
X169236295Y-66021927D01*
X169403473Y-65855040D01*
X169580790Y-65428012D01*
X176305401Y-58703401D01*
X176470148Y-58456840D01*
X176528000Y-58166000D01*
X176528000Y-53095520D01*
X176857029Y-52875670D01*
X177038000Y-52604828D01*
X177218971Y-52875670D01*
X177705152Y-53200526D01*
X178278641Y-53314600D01*
X178337359Y-53314600D01*
X178910848Y-53200526D01*
X179397029Y-52875670D01*
X179578000Y-52604828D01*
X179758971Y-52875670D01*
X180245152Y-53200526D01*
X180818641Y-53314600D01*
X180877359Y-53314600D01*
X180994498Y-53291300D01*
X182120000Y-54416802D01*
X182120000Y-77917198D01*
X179517198Y-80520000D01*
X170268900Y-80520000D01*
X169978061Y-80577852D01*
X169731499Y-80742599D01*
X168526199Y-81947899D01*
X168475098Y-81926680D01*
X167904685Y-81926182D01*
X167377502Y-82144010D01*
X166973807Y-82547000D01*
X166755060Y-83073802D01*
X166754562Y-83644215D01*
X166972390Y-84171398D01*
X167161658Y-84360997D01*
X166973807Y-84548520D01*
X166755060Y-85075322D01*
X166754562Y-85645735D01*
X166972390Y-86172918D01*
X167141044Y-86341868D01*
X167066862Y-86416050D01*
X167181741Y-86530929D01*
X166935745Y-86604919D01*
X166742840Y-87141722D01*
X166770044Y-87711486D01*
X166935745Y-88111521D01*
X167181743Y-88185512D01*
X168009035Y-87358220D01*
X167994893Y-87344078D01*
X168174498Y-87164473D01*
X168188640Y-87178615D01*
X168202783Y-87164473D01*
X168382388Y-87344078D01*
X168368245Y-87358220D01*
X169195537Y-88185512D01*
X169441535Y-88111521D01*
X169547063Y-87817865D01*
X169928000Y-88198802D01*
X169928000Y-91948000D01*
X169985852Y-92238839D01*
X170150599Y-92485401D01*
X173452599Y-95787401D01*
X173699160Y-95952148D01*
X173990000Y-96010000D01*
X193741198Y-96010000D01*
X196657583Y-98926385D01*
X196522971Y-99016330D01*
X196198115Y-99502511D01*
X196084041Y-100076000D01*
X196198115Y-100649489D01*
X196522971Y-101135670D01*
X197009152Y-101460526D01*
X197582641Y-101574600D01*
X197641359Y-101574600D01*
X198214848Y-101460526D01*
X198701029Y-101135670D01*
X198882000Y-100864828D01*
X199062971Y-101135670D01*
X199549152Y-101460526D01*
X200122641Y-101574600D01*
X200181359Y-101574600D01*
X200754848Y-101460526D01*
X201241029Y-101135670D01*
X201422000Y-100864828D01*
X201602971Y-101135670D01*
X202089152Y-101460526D01*
X202662641Y-101574600D01*
X202721359Y-101574600D01*
X203294848Y-101460526D01*
X203781029Y-101135670D01*
X203962000Y-100864828D01*
X204142971Y-101135670D01*
X204629152Y-101460526D01*
X205202641Y-101574600D01*
X205261359Y-101574600D01*
X205834848Y-101460526D01*
X206321029Y-101135670D01*
X206502000Y-100864828D01*
X206682971Y-101135670D01*
X207169152Y-101460526D01*
X207742641Y-101574600D01*
X207801359Y-101574600D01*
X208374848Y-101460526D01*
X208861029Y-101135670D01*
X209042000Y-100864828D01*
X209222971Y-101135670D01*
X209709152Y-101460526D01*
X210282641Y-101574600D01*
X210341359Y-101574600D01*
X210914848Y-101460526D01*
X211401029Y-101135670D01*
X211725885Y-100649489D01*
X211839959Y-100076000D01*
X211725885Y-99502511D01*
X211401029Y-99016330D01*
X211058647Y-98787558D01*
X211014148Y-98563847D01*
X211014148Y-98563846D01*
X210849401Y-98317285D01*
X209548000Y-97015884D01*
X209548000Y-87884000D01*
X209490148Y-87593161D01*
X209325401Y-87346599D01*
X207694294Y-85715492D01*
X207722220Y-85648238D01*
X207722718Y-85077825D01*
X207504890Y-84550642D01*
X207315622Y-84361043D01*
X207503473Y-84173520D01*
X207722220Y-83646718D01*
X207722718Y-83076305D01*
X207504890Y-82549122D01*
X207101900Y-82145427D01*
X206575098Y-81926680D01*
X206004685Y-81926182D01*
X205477502Y-82144010D01*
X205073807Y-82547000D01*
X205051692Y-82600260D01*
X202039062Y-82600260D01*
X194816000Y-75377198D01*
X194816000Y-72136000D01*
X208911041Y-72136000D01*
X209025115Y-72709489D01*
X209349971Y-73195670D01*
X209664752Y-73406000D01*
X209349971Y-73616330D01*
X209025115Y-74102511D01*
X208911041Y-74676000D01*
X209025115Y-75249489D01*
X209349971Y-75735670D01*
X209664752Y-75946000D01*
X209349971Y-76156330D01*
X209025115Y-76642511D01*
X208911041Y-77216000D01*
X209025115Y-77789489D01*
X209349971Y-78275670D01*
X209836152Y-78600526D01*
X210409641Y-78714600D01*
X210468359Y-78714600D01*
X211041848Y-78600526D01*
X211528029Y-78275670D01*
X211709000Y-78004828D01*
X211889971Y-78275670D01*
X212376152Y-78600526D01*
X212949641Y-78714600D01*
X213008359Y-78714600D01*
X213581848Y-78600526D01*
X214068029Y-78275670D01*
X214392885Y-77789489D01*
X214506959Y-77216000D01*
X214392885Y-76642511D01*
X214068029Y-76156330D01*
X213753248Y-75946000D01*
X214068029Y-75735670D01*
X214392885Y-75249489D01*
X214506959Y-74676000D01*
X214392885Y-74102511D01*
X214068029Y-73616330D01*
X213753248Y-73406000D01*
X214068029Y-73195670D01*
X214392885Y-72709489D01*
X214506959Y-72136000D01*
X214392885Y-71562511D01*
X214068029Y-71076330D01*
X213581848Y-70751474D01*
X213008359Y-70637400D01*
X212949641Y-70637400D01*
X212376152Y-70751474D01*
X211889971Y-71076330D01*
X211709000Y-71347172D01*
X211528029Y-71076330D01*
X211041848Y-70751474D01*
X210468359Y-70637400D01*
X210409641Y-70637400D01*
X209836152Y-70751474D01*
X209349971Y-71076330D01*
X209025115Y-71562511D01*
X208911041Y-72136000D01*
X194816000Y-72136000D01*
X194816000Y-70046637D01*
X197841348Y-70046637D01*
X197915339Y-70292635D01*
X198452142Y-70485540D01*
X199021906Y-70458336D01*
X199421941Y-70292635D01*
X199495932Y-70046637D01*
X205461348Y-70046637D01*
X205535339Y-70292635D01*
X206072142Y-70485540D01*
X206641906Y-70458336D01*
X207041941Y-70292635D01*
X207115932Y-70046637D01*
X206288640Y-69219345D01*
X205461348Y-70046637D01*
X199495932Y-70046637D01*
X198668640Y-69219345D01*
X197841348Y-70046637D01*
X194816000Y-70046637D01*
X194816000Y-54368116D01*
X195609401Y-53574715D01*
X195774148Y-53328153D01*
X195818647Y-53104442D01*
X196161029Y-52875670D01*
X196342000Y-52604828D01*
X196522971Y-52875670D01*
X197009152Y-53200526D01*
X197582641Y-53314600D01*
X197641359Y-53314600D01*
X198214848Y-53200526D01*
X198701029Y-52875670D01*
X198882000Y-52604828D01*
X199062971Y-52875670D01*
X199549152Y-53200526D01*
X200122641Y-53314600D01*
X200181359Y-53314600D01*
X200754848Y-53200526D01*
X201241029Y-52875670D01*
X201422000Y-52604828D01*
X201602971Y-52875670D01*
X202003537Y-53143320D01*
X202154599Y-53369401D01*
X202948000Y-54162802D01*
X202948000Y-58613198D01*
X199608725Y-61952473D01*
X199481900Y-61825427D01*
X198955098Y-61606680D01*
X198384685Y-61606182D01*
X197857502Y-61824010D01*
X197453807Y-62227000D01*
X197235060Y-62753802D01*
X197234562Y-63324215D01*
X197452390Y-63851398D01*
X197641658Y-64040997D01*
X197453807Y-64228520D01*
X197235060Y-64755322D01*
X197234562Y-65325735D01*
X197452390Y-65852918D01*
X197639118Y-66039973D01*
X197453807Y-66224960D01*
X197235060Y-66751762D01*
X197234562Y-67322175D01*
X197452390Y-67849358D01*
X197623582Y-68020850D01*
X197546862Y-68097570D01*
X197661741Y-68212449D01*
X197415745Y-68286439D01*
X197222840Y-68823242D01*
X197250044Y-69393006D01*
X197415745Y-69793041D01*
X197661743Y-69867032D01*
X198489035Y-69039740D01*
X198474893Y-69025598D01*
X198654498Y-68845993D01*
X198668640Y-68860135D01*
X198682783Y-68845993D01*
X198862388Y-69025598D01*
X198848245Y-69039740D01*
X199675537Y-69867032D01*
X199921535Y-69793041D01*
X200114440Y-69256238D01*
X200087236Y-68686474D01*
X199921535Y-68286439D01*
X199675539Y-68212449D01*
X199790418Y-68097570D01*
X199713752Y-68020904D01*
X199883473Y-67851480D01*
X200102220Y-67324678D01*
X200102718Y-66754265D01*
X199884890Y-66227082D01*
X199698162Y-66040027D01*
X199883473Y-65855040D01*
X200102220Y-65328238D01*
X200102718Y-64757825D01*
X200080695Y-64704527D01*
X204753401Y-60031821D01*
X204918148Y-59785259D01*
X204976000Y-59494420D01*
X204976000Y-54162802D01*
X205769401Y-53369401D01*
X205920463Y-53143320D01*
X206321029Y-52875670D01*
X206502000Y-52604828D01*
X206682971Y-52875670D01*
X207083537Y-53143320D01*
X207234599Y-53369401D01*
X208028000Y-54162802D01*
X208028000Y-61153198D01*
X207228725Y-61952473D01*
X207101900Y-61825427D01*
X206575098Y-61606680D01*
X206004685Y-61606182D01*
X205477502Y-61824010D01*
X205073807Y-62227000D01*
X204855060Y-62753802D01*
X204854562Y-63324215D01*
X205072390Y-63851398D01*
X205261658Y-64040997D01*
X205073807Y-64228520D01*
X204855060Y-64755322D01*
X204854562Y-65325735D01*
X205072390Y-65852918D01*
X205259118Y-66039973D01*
X205073807Y-66224960D01*
X204855060Y-66751762D01*
X204854562Y-67322175D01*
X205072390Y-67849358D01*
X205243582Y-68020850D01*
X205166862Y-68097570D01*
X205281741Y-68212449D01*
X205035745Y-68286439D01*
X204842840Y-68823242D01*
X204870044Y-69393006D01*
X205035745Y-69793041D01*
X205281743Y-69867032D01*
X206109035Y-69039740D01*
X206094893Y-69025598D01*
X206274498Y-68845993D01*
X206288640Y-68860135D01*
X206302783Y-68845993D01*
X206482388Y-69025598D01*
X206468245Y-69039740D01*
X207295537Y-69867032D01*
X207541535Y-69793041D01*
X207734440Y-69256238D01*
X207707236Y-68686474D01*
X207541535Y-68286439D01*
X207295539Y-68212449D01*
X207410418Y-68097570D01*
X207333752Y-68020904D01*
X207503473Y-67851480D01*
X207722220Y-67324678D01*
X207722718Y-66754265D01*
X207504890Y-66227082D01*
X207318162Y-66040027D01*
X207503473Y-65855040D01*
X207722220Y-65328238D01*
X207722718Y-64757825D01*
X207700695Y-64704527D01*
X209833401Y-62571821D01*
X209998148Y-62325260D01*
X210056000Y-62034420D01*
X210056000Y-54162802D01*
X210849401Y-53369401D01*
X211000463Y-53143320D01*
X211401029Y-52875670D01*
X211725885Y-52389489D01*
X211839959Y-51816000D01*
X211725885Y-51242511D01*
X211401029Y-50756330D01*
X210914848Y-50431474D01*
X210341359Y-50317400D01*
X210282641Y-50317400D01*
X209709152Y-50431474D01*
X209222971Y-50756330D01*
X209042000Y-51027172D01*
X208861029Y-50756330D01*
X208374848Y-50431474D01*
X207801359Y-50317400D01*
X207742641Y-50317400D01*
X207169152Y-50431474D01*
X206682971Y-50756330D01*
X206502000Y-51027172D01*
X206321029Y-50756330D01*
X205834848Y-50431474D01*
X205261359Y-50317400D01*
X205202641Y-50317400D01*
X204629152Y-50431474D01*
X204142971Y-50756330D01*
X203962000Y-51027172D01*
X203781029Y-50756330D01*
X203294848Y-50431474D01*
X202721359Y-50317400D01*
X202662641Y-50317400D01*
X202089152Y-50431474D01*
X201602971Y-50756330D01*
X201422000Y-51027172D01*
X201241029Y-50756330D01*
X200754848Y-50431474D01*
X200181359Y-50317400D01*
X200122641Y-50317400D01*
X199549152Y-50431474D01*
X199062971Y-50756330D01*
X198882000Y-51027172D01*
X198701029Y-50756330D01*
X198214848Y-50431474D01*
X197641359Y-50317400D01*
X197582641Y-50317400D01*
X197009152Y-50431474D01*
X196522971Y-50756330D01*
X196342000Y-51027172D01*
X196161029Y-50756330D01*
X195674848Y-50431474D01*
X195101359Y-50317400D01*
X195042641Y-50317400D01*
X194469152Y-50431474D01*
X193982971Y-50756330D01*
X193802000Y-51027172D01*
X193621029Y-50756330D01*
X193134848Y-50431474D01*
X192561359Y-50317400D01*
X192502641Y-50317400D01*
X191929152Y-50431474D01*
X191442971Y-50756330D01*
X191118115Y-51242511D01*
X191004041Y-51816000D01*
X191118115Y-52389489D01*
X191442971Y-52875670D01*
X191774184Y-53096980D01*
X191829852Y-53376839D01*
X191994599Y-53623401D01*
X192788000Y-54416802D01*
X192788000Y-75946000D01*
X192845852Y-76236839D01*
X193010599Y-76483401D01*
X197908640Y-81381442D01*
X197908640Y-82122880D01*
X197857502Y-82144010D01*
X197453807Y-82547000D01*
X197235060Y-83073802D01*
X197234562Y-83644215D01*
X197452390Y-84171398D01*
X197641658Y-84360997D01*
X197453807Y-84548520D01*
X197235060Y-85075322D01*
X197234562Y-85645735D01*
X197452390Y-86172918D01*
X197621044Y-86341868D01*
X197546862Y-86416050D01*
X197661741Y-86530929D01*
X197415745Y-86604919D01*
X197222840Y-87141722D01*
X197250044Y-87711486D01*
X197415745Y-88111521D01*
X197661743Y-88185512D01*
X198489035Y-87358220D01*
X198474893Y-87344078D01*
X198654498Y-87164473D01*
X198668640Y-87178615D01*
X198682783Y-87164473D01*
X198862388Y-87344078D01*
X198848245Y-87358220D01*
X199675537Y-88185512D01*
X199921535Y-88111521D01*
X200027063Y-87817865D01*
X200408000Y-88198802D01*
X200408000Y-92202000D01*
X200465852Y-92492839D01*
X200630599Y-92739401D01*
X206817583Y-98926385D01*
X206682971Y-99016330D01*
X206502000Y-99287172D01*
X206321029Y-99016330D01*
X205989816Y-98795020D01*
X205934148Y-98515161D01*
X205769401Y-98268599D01*
X200689401Y-93188599D01*
X200442839Y-93023852D01*
X200152000Y-92966000D01*
X195640802Y-92966000D01*
X194308000Y-91633198D01*
X194308000Y-90366637D01*
X197841348Y-90366637D01*
X197915339Y-90612635D01*
X198452142Y-90805540D01*
X199021906Y-90778336D01*
X199421941Y-90612635D01*
X199495932Y-90366637D01*
X198668640Y-89539345D01*
X197841348Y-90366637D01*
X194308000Y-90366637D01*
X194308000Y-89143242D01*
X197222840Y-89143242D01*
X197250044Y-89713006D01*
X197415745Y-90113041D01*
X197661743Y-90187032D01*
X198489035Y-89359740D01*
X198848245Y-89359740D01*
X199675537Y-90187032D01*
X199921535Y-90113041D01*
X200114440Y-89576238D01*
X200087236Y-89006474D01*
X199921535Y-88606439D01*
X199675537Y-88532448D01*
X198848245Y-89359740D01*
X198489035Y-89359740D01*
X197661743Y-88532448D01*
X197415745Y-88606439D01*
X197222840Y-89143242D01*
X194308000Y-89143242D01*
X194308000Y-88352843D01*
X197841348Y-88352843D01*
X197847485Y-88358980D01*
X197841348Y-88365117D01*
X197915339Y-88611115D01*
X198202990Y-88714485D01*
X198668640Y-89180135D01*
X199107352Y-88741423D01*
X199421941Y-88611115D01*
X199495932Y-88365117D01*
X199489795Y-88358980D01*
X199495932Y-88352843D01*
X199421941Y-88106845D01*
X199134290Y-88003475D01*
X198668640Y-87537825D01*
X198229928Y-87976537D01*
X197915339Y-88106845D01*
X197841348Y-88352843D01*
X194308000Y-88352843D01*
X194308000Y-87861140D01*
X194250148Y-87570301D01*
X194085401Y-87323739D01*
X192461001Y-85699339D01*
X192482220Y-85648238D01*
X192482718Y-85077825D01*
X192264890Y-84550642D01*
X192075622Y-84361043D01*
X192263473Y-84173520D01*
X192482220Y-83646718D01*
X192482718Y-83076305D01*
X192264890Y-82549122D01*
X191861900Y-82145427D01*
X191335098Y-81926680D01*
X190764685Y-81926182D01*
X190711387Y-81948205D01*
X189228000Y-80464818D01*
X189228000Y-53095520D01*
X189557029Y-52875670D01*
X189881885Y-52389489D01*
X189995959Y-51816000D01*
X189881885Y-51242511D01*
X189557029Y-50756330D01*
X189070848Y-50431474D01*
X188497359Y-50317400D01*
X188438641Y-50317400D01*
X187865152Y-50431474D01*
X187378971Y-50756330D01*
X187198000Y-51027172D01*
X187017029Y-50756330D01*
X186530848Y-50431474D01*
X185957359Y-50317400D01*
X185898641Y-50317400D01*
X185325152Y-50431474D01*
X184838971Y-50756330D01*
X184658000Y-51027172D01*
X184477029Y-50756330D01*
X183990848Y-50431474D01*
X183417359Y-50317400D01*
X183358641Y-50317400D01*
X182785152Y-50431474D01*
X182298971Y-50756330D01*
X182118000Y-51027172D01*
X181937029Y-50756330D01*
X181450848Y-50431474D01*
X180877359Y-50317400D01*
X180818641Y-50317400D01*
X180245152Y-50431474D01*
X179758971Y-50756330D01*
X179578000Y-51027172D01*
X179397029Y-50756330D01*
X178910848Y-50431474D01*
X178337359Y-50317400D01*
X178278641Y-50317400D01*
X177705152Y-50431474D01*
X177218971Y-50756330D01*
X177038000Y-51027172D01*
X176857029Y-50756330D01*
X176370848Y-50431474D01*
X175797359Y-50317400D01*
X175738641Y-50317400D01*
X175165152Y-50431474D01*
X174678971Y-50756330D01*
X174498008Y-51027161D01*
X174116490Y-50609179D01*
X173587027Y-50361032D01*
X173355000Y-50481531D01*
X173355000Y-51689000D01*
X173375000Y-51689000D01*
X173375000Y-51943000D01*
X173355000Y-51943000D01*
X173355000Y-53150469D01*
X173587027Y-53270968D01*
X174116490Y-53022821D01*
X174498008Y-52604839D01*
X174678971Y-52875670D01*
X175008000Y-53095520D01*
X175008000Y-57851198D01*
X169622298Y-63236900D01*
X169622718Y-62756305D01*
X169404890Y-62229122D01*
X169001900Y-61825427D01*
X168475098Y-61606680D01*
X167904685Y-61606182D01*
X167377502Y-61824010D01*
X166973807Y-62227000D01*
X166755060Y-62753802D01*
X166754562Y-63324215D01*
X166972390Y-63851398D01*
X167161658Y-64040997D01*
X166973807Y-64228520D01*
X166755060Y-64755322D01*
X166754562Y-65325735D01*
X166972390Y-65852918D01*
X167141044Y-66021868D01*
X167066862Y-66096050D01*
X167181741Y-66210929D01*
X166935745Y-66284919D01*
X166742840Y-66821722D01*
X158896969Y-66821722D01*
X158881054Y-66741715D01*
X158559147Y-66259946D01*
X158515223Y-66230597D01*
X158689698Y-66158327D01*
X158868327Y-65979699D01*
X158965000Y-65746310D01*
X158965000Y-65055750D01*
X158806250Y-64897000D01*
X157607000Y-64897000D01*
X157607000Y-64917000D01*
X157353000Y-64917000D01*
X157353000Y-64897000D01*
X156153750Y-64897000D01*
X155995000Y-65055750D01*
X155995000Y-65746310D01*
X156091673Y-65979699D01*
X156270302Y-66158327D01*
X156444777Y-66230597D01*
X156400853Y-66259946D01*
X156078946Y-66741715D01*
X155965907Y-67310000D01*
X147522000Y-67310000D01*
X147522000Y-63793690D01*
X155995000Y-63793690D01*
X155995000Y-64484250D01*
X156153750Y-64643000D01*
X157353000Y-64643000D01*
X157353000Y-63443750D01*
X157607000Y-63443750D01*
X157607000Y-64643000D01*
X158806250Y-64643000D01*
X158965000Y-64484250D01*
X158965000Y-63793690D01*
X158868327Y-63560301D01*
X158689698Y-63381673D01*
X158456309Y-63285000D01*
X157765750Y-63285000D01*
X157607000Y-63443750D01*
X157353000Y-63443750D01*
X157194250Y-63285000D01*
X156503691Y-63285000D01*
X156270302Y-63381673D01*
X156091673Y-63560301D01*
X155995000Y-63793690D01*
X147522000Y-63793690D01*
X147522000Y-59222092D01*
X148630091Y-58114000D01*
X156464000Y-58114000D01*
X156735705Y-58059954D01*
X156966046Y-57906046D01*
X158490043Y-56382048D01*
X158490046Y-56382046D01*
X158643954Y-56151705D01*
X158698000Y-55880000D01*
X158698000Y-51094092D01*
X159806091Y-49986000D01*
X160721668Y-49986000D01*
X160158364Y-50548321D01*
G36*
X201186859Y-83897661D02*
X201433420Y-84062408D01*
X201724260Y-84120260D01*
X205051260Y-84120260D01*
X205072390Y-84171398D01*
X205261658Y-84360997D01*
X205073807Y-84548520D01*
X204855060Y-85075322D01*
X204854562Y-85645735D01*
X205072390Y-86172918D01*
X205241044Y-86341868D01*
X205166862Y-86416050D01*
X205281741Y-86530929D01*
X205035745Y-86604919D01*
X204842840Y-87141722D01*
X204870044Y-87711486D01*
X205035745Y-88111521D01*
X205281743Y-88185512D01*
X206109035Y-87358220D01*
X206094893Y-87344078D01*
X206274498Y-87164473D01*
X206288640Y-87178615D01*
X206302783Y-87164473D01*
X206482388Y-87344078D01*
X206468245Y-87358220D01*
X207295537Y-88185512D01*
X207541535Y-88111521D01*
X207647063Y-87817865D01*
X208028000Y-88198802D01*
X208028000Y-97330686D01*
X208085852Y-97621525D01*
X208250599Y-97868087D01*
X209328398Y-98945886D01*
X209222971Y-99016330D01*
X209042000Y-99287172D01*
X208861029Y-99016330D01*
X208529816Y-98795020D01*
X208486528Y-98577400D01*
X208474148Y-98515160D01*
X208309401Y-98268599D01*
X201928000Y-91887198D01*
X201928000Y-90366637D01*
X205461348Y-90366637D01*
X205535339Y-90612635D01*
X206072142Y-90805540D01*
X206641906Y-90778336D01*
X207041941Y-90612635D01*
X207115932Y-90366637D01*
X206288640Y-89539345D01*
X205461348Y-90366637D01*
X201928000Y-90366637D01*
X201928000Y-89143242D01*
X204842840Y-89143242D01*
X204870044Y-89713006D01*
X205035745Y-90113041D01*
X205281743Y-90187032D01*
X206109035Y-89359740D01*
X206468245Y-89359740D01*
X207295537Y-90187032D01*
X207541535Y-90113041D01*
X207734440Y-89576238D01*
X207707236Y-89006474D01*
X207541535Y-88606439D01*
X207295537Y-88532448D01*
X206468245Y-89359740D01*
X206109035Y-89359740D01*
X205281743Y-88532448D01*
X205035745Y-88606439D01*
X204842840Y-89143242D01*
X201928000Y-89143242D01*
X201928000Y-88352843D01*
X205461348Y-88352843D01*
X205467485Y-88358980D01*
X205461348Y-88365117D01*
X205535339Y-88611115D01*
X205822990Y-88714485D01*
X206288640Y-89180135D01*
X206727352Y-88741423D01*
X207041941Y-88611115D01*
X207115932Y-88365117D01*
X207109795Y-88358980D01*
X207115932Y-88352843D01*
X207041941Y-88106845D01*
X206754290Y-88003475D01*
X206288640Y-87537825D01*
X205849928Y-87976537D01*
X205535339Y-88106845D01*
X205461348Y-88352843D01*
X201928000Y-88352843D01*
X201928000Y-87884000D01*
X201870148Y-87593161D01*
X201705401Y-87346599D01*
X200074294Y-85715492D01*
X200102220Y-85648238D01*
X200102718Y-85077825D01*
X199884890Y-84550642D01*
X199695622Y-84361043D01*
X199883473Y-84173520D01*
X200102220Y-83646718D01*
X200102718Y-83076305D01*
X199917682Y-82628484D01*
X201186859Y-83897661D01*
X201186859Y-83897661D01*
G37*
X201186859Y-83897661D02*
X201433420Y-84062408D01*
X201724260Y-84120260D01*
X205051260Y-84120260D01*
X205072390Y-84171398D01*
X205261658Y-84360997D01*
X205073807Y-84548520D01*
X204855060Y-85075322D01*
X204854562Y-85645735D01*
X205072390Y-86172918D01*
X205241044Y-86341868D01*
X205166862Y-86416050D01*
X205281741Y-86530929D01*
X205035745Y-86604919D01*
X204842840Y-87141722D01*
X204870044Y-87711486D01*
X205035745Y-88111521D01*
X205281743Y-88185512D01*
X206109035Y-87358220D01*
X206094893Y-87344078D01*
X206274498Y-87164473D01*
X206288640Y-87178615D01*
X206302783Y-87164473D01*
X206482388Y-87344078D01*
X206468245Y-87358220D01*
X207295537Y-88185512D01*
X207541535Y-88111521D01*
X207647063Y-87817865D01*
X208028000Y-88198802D01*
X208028000Y-97330686D01*
X208085852Y-97621525D01*
X208250599Y-97868087D01*
X209328398Y-98945886D01*
X209222971Y-99016330D01*
X209042000Y-99287172D01*
X208861029Y-99016330D01*
X208529816Y-98795020D01*
X208486528Y-98577400D01*
X208474148Y-98515160D01*
X208309401Y-98268599D01*
X201928000Y-91887198D01*
X201928000Y-90366637D01*
X205461348Y-90366637D01*
X205535339Y-90612635D01*
X206072142Y-90805540D01*
X206641906Y-90778336D01*
X207041941Y-90612635D01*
X207115932Y-90366637D01*
X206288640Y-89539345D01*
X205461348Y-90366637D01*
X201928000Y-90366637D01*
X201928000Y-89143242D01*
X204842840Y-89143242D01*
X204870044Y-89713006D01*
X205035745Y-90113041D01*
X205281743Y-90187032D01*
X206109035Y-89359740D01*
X206468245Y-89359740D01*
X207295537Y-90187032D01*
X207541535Y-90113041D01*
X207734440Y-89576238D01*
X207707236Y-89006474D01*
X207541535Y-88606439D01*
X207295537Y-88532448D01*
X206468245Y-89359740D01*
X206109035Y-89359740D01*
X205281743Y-88532448D01*
X205035745Y-88606439D01*
X204842840Y-89143242D01*
X201928000Y-89143242D01*
X201928000Y-88352843D01*
X205461348Y-88352843D01*
X205467485Y-88358980D01*
X205461348Y-88365117D01*
X205535339Y-88611115D01*
X205822990Y-88714485D01*
X206288640Y-89180135D01*
X206727352Y-88741423D01*
X207041941Y-88611115D01*
X207115932Y-88365117D01*
X207109795Y-88358980D01*
X207115932Y-88352843D01*
X207041941Y-88106845D01*
X206754290Y-88003475D01*
X206288640Y-87537825D01*
X205849928Y-87976537D01*
X205535339Y-88106845D01*
X205461348Y-88352843D01*
X201928000Y-88352843D01*
X201928000Y-87884000D01*
X201870148Y-87593161D01*
X201705401Y-87346599D01*
X200074294Y-85715492D01*
X200102220Y-85648238D01*
X200102718Y-85077825D01*
X199884890Y-84550642D01*
X199695622Y-84361043D01*
X199883473Y-84173520D01*
X200102220Y-83646718D01*
X200102718Y-83076305D01*
X199917682Y-82628484D01*
X201186859Y-83897661D01*
G36*
X174997502Y-82144010D02*
X174593807Y-82547000D01*
X174375060Y-83073802D01*
X174374562Y-83644215D01*
X174592390Y-84171398D01*
X174781658Y-84360997D01*
X174593807Y-84548520D01*
X174375060Y-85075322D01*
X174374562Y-85645735D01*
X174592390Y-86172918D01*
X174761044Y-86341868D01*
X174686862Y-86416050D01*
X174801741Y-86530929D01*
X174555745Y-86604919D01*
X174362840Y-87141722D01*
X174390044Y-87711486D01*
X174555745Y-88111521D01*
X174801743Y-88185512D01*
X175629035Y-87358220D01*
X175614893Y-87344078D01*
X175794498Y-87164473D01*
X175808640Y-87178615D01*
X175822783Y-87164473D01*
X176002388Y-87344078D01*
X175988245Y-87358220D01*
X176815537Y-88185512D01*
X177061535Y-88111521D01*
X177167063Y-87817865D01*
X177548000Y-88198802D01*
X177548000Y-91948000D01*
X177605852Y-92238839D01*
X177770599Y-92485401D01*
X179775198Y-94490000D01*
X174304802Y-94490000D01*
X171448000Y-91633198D01*
X171448000Y-90366637D01*
X174981348Y-90366637D01*
X175055339Y-90612635D01*
X175592142Y-90805540D01*
X176161906Y-90778336D01*
X176561941Y-90612635D01*
X176635932Y-90366637D01*
X175808640Y-89539345D01*
X174981348Y-90366637D01*
X171448000Y-90366637D01*
X171448000Y-89143242D01*
X174362840Y-89143242D01*
X174390044Y-89713006D01*
X174555745Y-90113041D01*
X174801743Y-90187032D01*
X175629035Y-89359740D01*
X175988245Y-89359740D01*
X176815537Y-90187032D01*
X177061535Y-90113041D01*
X177254440Y-89576238D01*
X177227236Y-89006474D01*
X177061535Y-88606439D01*
X176815537Y-88532448D01*
X175988245Y-89359740D01*
X175629035Y-89359740D01*
X174801743Y-88532448D01*
X174555745Y-88606439D01*
X174362840Y-89143242D01*
X171448000Y-89143242D01*
X171448000Y-88352843D01*
X174981348Y-88352843D01*
X174987485Y-88358980D01*
X174981348Y-88365117D01*
X175055339Y-88611115D01*
X175342990Y-88714485D01*
X175808640Y-89180135D01*
X176247352Y-88741423D01*
X176561941Y-88611115D01*
X176635932Y-88365117D01*
X176629795Y-88358980D01*
X176635932Y-88352843D01*
X176561941Y-88106845D01*
X176274290Y-88003475D01*
X175808640Y-87537825D01*
X175369928Y-87976537D01*
X175055339Y-88106845D01*
X174981348Y-88352843D01*
X171448000Y-88352843D01*
X171448000Y-87884000D01*
X171390148Y-87593161D01*
X171225401Y-87346599D01*
X169594294Y-85715492D01*
X169622220Y-85648238D01*
X169622718Y-85077825D01*
X169404890Y-84550642D01*
X169215622Y-84361043D01*
X169403473Y-84173520D01*
X169622220Y-83646718D01*
X169622718Y-83076305D01*
X169600695Y-83023007D01*
X170583702Y-82040000D01*
X175249225Y-82040000D01*
X174997502Y-82144010D01*
X174997502Y-82144010D01*
G37*
X174997502Y-82144010D02*
X174593807Y-82547000D01*
X174375060Y-83073802D01*
X174374562Y-83644215D01*
X174592390Y-84171398D01*
X174781658Y-84360997D01*
X174593807Y-84548520D01*
X174375060Y-85075322D01*
X174374562Y-85645735D01*
X174592390Y-86172918D01*
X174761044Y-86341868D01*
X174686862Y-86416050D01*
X174801741Y-86530929D01*
X174555745Y-86604919D01*
X174362840Y-87141722D01*
X174390044Y-87711486D01*
X174555745Y-88111521D01*
X174801743Y-88185512D01*
X175629035Y-87358220D01*
X175614893Y-87344078D01*
X175794498Y-87164473D01*
X175808640Y-87178615D01*
X175822783Y-87164473D01*
X176002388Y-87344078D01*
X175988245Y-87358220D01*
X176815537Y-88185512D01*
X177061535Y-88111521D01*
X177167063Y-87817865D01*
X177548000Y-88198802D01*
X177548000Y-91948000D01*
X177605852Y-92238839D01*
X177770599Y-92485401D01*
X179775198Y-94490000D01*
X174304802Y-94490000D01*
X171448000Y-91633198D01*
X171448000Y-90366637D01*
X174981348Y-90366637D01*
X175055339Y-90612635D01*
X175592142Y-90805540D01*
X176161906Y-90778336D01*
X176561941Y-90612635D01*
X176635932Y-90366637D01*
X175808640Y-89539345D01*
X174981348Y-90366637D01*
X171448000Y-90366637D01*
X171448000Y-89143242D01*
X174362840Y-89143242D01*
X174390044Y-89713006D01*
X174555745Y-90113041D01*
X174801743Y-90187032D01*
X175629035Y-89359740D01*
X175988245Y-89359740D01*
X176815537Y-90187032D01*
X177061535Y-90113041D01*
X177254440Y-89576238D01*
X177227236Y-89006474D01*
X177061535Y-88606439D01*
X176815537Y-88532448D01*
X175988245Y-89359740D01*
X175629035Y-89359740D01*
X174801743Y-88532448D01*
X174555745Y-88606439D01*
X174362840Y-89143242D01*
X171448000Y-89143242D01*
X171448000Y-88352843D01*
X174981348Y-88352843D01*
X174987485Y-88358980D01*
X174981348Y-88365117D01*
X175055339Y-88611115D01*
X175342990Y-88714485D01*
X175808640Y-89180135D01*
X176247352Y-88741423D01*
X176561941Y-88611115D01*
X176635932Y-88365117D01*
X176629795Y-88358980D01*
X176635932Y-88352843D01*
X176561941Y-88106845D01*
X176274290Y-88003475D01*
X175808640Y-87537825D01*
X175369928Y-87976537D01*
X175055339Y-88106845D01*
X174981348Y-88352843D01*
X171448000Y-88352843D01*
X171448000Y-87884000D01*
X171390148Y-87593161D01*
X171225401Y-87346599D01*
X169594294Y-85715492D01*
X169622220Y-85648238D01*
X169622718Y-85077825D01*
X169404890Y-84550642D01*
X169215622Y-84361043D01*
X169403473Y-84173520D01*
X169622220Y-83646718D01*
X169622718Y-83076305D01*
X169600695Y-83023007D01*
X170583702Y-82040000D01*
X175249225Y-82040000D01*
X174997502Y-82144010D01*
G36*
X182668640Y-82122880D02*
X182617502Y-82144010D01*
X182213807Y-82547000D01*
X181995060Y-83073802D01*
X181994562Y-83644215D01*
X182212390Y-84171398D01*
X182401658Y-84360997D01*
X182213807Y-84548520D01*
X181995060Y-85075322D01*
X181994562Y-85645735D01*
X182212390Y-86172918D01*
X182381044Y-86341868D01*
X182306862Y-86416050D01*
X182421741Y-86530929D01*
X182175745Y-86604919D01*
X181982840Y-87141722D01*
X182010044Y-87711486D01*
X182175745Y-88111521D01*
X182421743Y-88185512D01*
X183249035Y-87358220D01*
X183234893Y-87344078D01*
X183414498Y-87164473D01*
X183428640Y-87178615D01*
X183442783Y-87164473D01*
X183622388Y-87344078D01*
X183608245Y-87358220D01*
X184435537Y-88185512D01*
X184681535Y-88111521D01*
X184787063Y-87817865D01*
X185168000Y-88198802D01*
X185168000Y-91948000D01*
X185225852Y-92238839D01*
X185390599Y-92485401D01*
X186887198Y-93982000D01*
X181416802Y-93982000D01*
X179068000Y-91633198D01*
X179068000Y-90366637D01*
X182601348Y-90366637D01*
X182675339Y-90612635D01*
X183212142Y-90805540D01*
X183781906Y-90778336D01*
X184181941Y-90612635D01*
X184255932Y-90366637D01*
X183428640Y-89539345D01*
X182601348Y-90366637D01*
X179068000Y-90366637D01*
X179068000Y-89143242D01*
X181982840Y-89143242D01*
X182010044Y-89713006D01*
X182175745Y-90113041D01*
X182421743Y-90187032D01*
X183249035Y-89359740D01*
X183608245Y-89359740D01*
X184435537Y-90187032D01*
X184681535Y-90113041D01*
X184874440Y-89576238D01*
X184847236Y-89006474D01*
X184681535Y-88606439D01*
X184435537Y-88532448D01*
X183608245Y-89359740D01*
X183249035Y-89359740D01*
X182421743Y-88532448D01*
X182175745Y-88606439D01*
X181982840Y-89143242D01*
X179068000Y-89143242D01*
X179068000Y-88352843D01*
X182601348Y-88352843D01*
X182607485Y-88358980D01*
X182601348Y-88365117D01*
X182675339Y-88611115D01*
X182962990Y-88714485D01*
X183428640Y-89180135D01*
X183867352Y-88741423D01*
X184181941Y-88611115D01*
X184255932Y-88365117D01*
X184249795Y-88358980D01*
X184255932Y-88352843D01*
X184181941Y-88106845D01*
X183894290Y-88003475D01*
X183428640Y-87537825D01*
X182989928Y-87976537D01*
X182675339Y-88106845D01*
X182601348Y-88352843D01*
X179068000Y-88352843D01*
X179068000Y-87884000D01*
X179010148Y-87593161D01*
X178845401Y-87346599D01*
X177214294Y-85715492D01*
X177242220Y-85648238D01*
X177242718Y-85077825D01*
X177024890Y-84550642D01*
X176835622Y-84361043D01*
X177023473Y-84173520D01*
X177242220Y-83646718D01*
X177242718Y-83076305D01*
X177220695Y-83023007D01*
X177695702Y-82548000D01*
X180086000Y-82548000D01*
X180376839Y-82490148D01*
X180623401Y-82325401D01*
X182668640Y-80280162D01*
X182668640Y-82122880D01*
X182668640Y-82122880D01*
G37*
X182668640Y-82122880D02*
X182617502Y-82144010D01*
X182213807Y-82547000D01*
X181995060Y-83073802D01*
X181994562Y-83644215D01*
X182212390Y-84171398D01*
X182401658Y-84360997D01*
X182213807Y-84548520D01*
X181995060Y-85075322D01*
X181994562Y-85645735D01*
X182212390Y-86172918D01*
X182381044Y-86341868D01*
X182306862Y-86416050D01*
X182421741Y-86530929D01*
X182175745Y-86604919D01*
X181982840Y-87141722D01*
X182010044Y-87711486D01*
X182175745Y-88111521D01*
X182421743Y-88185512D01*
X183249035Y-87358220D01*
X183234893Y-87344078D01*
X183414498Y-87164473D01*
X183428640Y-87178615D01*
X183442783Y-87164473D01*
X183622388Y-87344078D01*
X183608245Y-87358220D01*
X184435537Y-88185512D01*
X184681535Y-88111521D01*
X184787063Y-87817865D01*
X185168000Y-88198802D01*
X185168000Y-91948000D01*
X185225852Y-92238839D01*
X185390599Y-92485401D01*
X186887198Y-93982000D01*
X181416802Y-93982000D01*
X179068000Y-91633198D01*
X179068000Y-90366637D01*
X182601348Y-90366637D01*
X182675339Y-90612635D01*
X183212142Y-90805540D01*
X183781906Y-90778336D01*
X184181941Y-90612635D01*
X184255932Y-90366637D01*
X183428640Y-89539345D01*
X182601348Y-90366637D01*
X179068000Y-90366637D01*
X179068000Y-89143242D01*
X181982840Y-89143242D01*
X182010044Y-89713006D01*
X182175745Y-90113041D01*
X182421743Y-90187032D01*
X183249035Y-89359740D01*
X183608245Y-89359740D01*
X184435537Y-90187032D01*
X184681535Y-90113041D01*
X184874440Y-89576238D01*
X184847236Y-89006474D01*
X184681535Y-88606439D01*
X184435537Y-88532448D01*
X183608245Y-89359740D01*
X183249035Y-89359740D01*
X182421743Y-88532448D01*
X182175745Y-88606439D01*
X181982840Y-89143242D01*
X179068000Y-89143242D01*
X179068000Y-88352843D01*
X182601348Y-88352843D01*
X182607485Y-88358980D01*
X182601348Y-88365117D01*
X182675339Y-88611115D01*
X182962990Y-88714485D01*
X183428640Y-89180135D01*
X183867352Y-88741423D01*
X184181941Y-88611115D01*
X184255932Y-88365117D01*
X184249795Y-88358980D01*
X184255932Y-88352843D01*
X184181941Y-88106845D01*
X183894290Y-88003475D01*
X183428640Y-87537825D01*
X182989928Y-87976537D01*
X182675339Y-88106845D01*
X182601348Y-88352843D01*
X179068000Y-88352843D01*
X179068000Y-87884000D01*
X179010148Y-87593161D01*
X178845401Y-87346599D01*
X177214294Y-85715492D01*
X177242220Y-85648238D01*
X177242718Y-85077825D01*
X177024890Y-84550642D01*
X176835622Y-84361043D01*
X177023473Y-84173520D01*
X177242220Y-83646718D01*
X177242718Y-83076305D01*
X177220695Y-83023007D01*
X177695702Y-82548000D01*
X180086000Y-82548000D01*
X180376839Y-82490148D01*
X180623401Y-82325401D01*
X182668640Y-80280162D01*
X182668640Y-82122880D01*
G36*
X187378971Y-52875670D02*
X187708000Y-53095520D01*
X187708000Y-80779620D01*
X187765852Y-81070459D01*
X187930599Y-81317021D01*
X189636279Y-83022701D01*
X189615060Y-83073802D01*
X189614562Y-83644215D01*
X189832390Y-84171398D01*
X190021658Y-84360997D01*
X189833807Y-84548520D01*
X189615060Y-85075322D01*
X189614562Y-85645735D01*
X189832390Y-86172918D01*
X190001044Y-86341868D01*
X189926862Y-86416050D01*
X190041741Y-86530929D01*
X189795745Y-86604919D01*
X189602840Y-87141722D01*
X189630044Y-87711486D01*
X189795745Y-88111521D01*
X190041743Y-88185512D01*
X190869035Y-87358220D01*
X190854893Y-87344078D01*
X191034498Y-87164473D01*
X191048640Y-87178615D01*
X191062783Y-87164473D01*
X191242388Y-87344078D01*
X191228245Y-87358220D01*
X192055537Y-88185512D01*
X192301535Y-88111521D01*
X192413106Y-87801048D01*
X192788000Y-88175942D01*
X192788000Y-91948000D01*
X192845852Y-92238839D01*
X193010599Y-92485401D01*
X193999198Y-93474000D01*
X188528802Y-93474000D01*
X186688000Y-91633198D01*
X186688000Y-90366637D01*
X190221348Y-90366637D01*
X190295339Y-90612635D01*
X190832142Y-90805540D01*
X191401906Y-90778336D01*
X191801941Y-90612635D01*
X191875932Y-90366637D01*
X191048640Y-89539345D01*
X190221348Y-90366637D01*
X186688000Y-90366637D01*
X186688000Y-89143242D01*
X189602840Y-89143242D01*
X189630044Y-89713006D01*
X189795745Y-90113041D01*
X190041743Y-90187032D01*
X190869035Y-89359740D01*
X191228245Y-89359740D01*
X192055537Y-90187032D01*
X192301535Y-90113041D01*
X192494440Y-89576238D01*
X192467236Y-89006474D01*
X192301535Y-88606439D01*
X192055537Y-88532448D01*
X191228245Y-89359740D01*
X190869035Y-89359740D01*
X190041743Y-88532448D01*
X189795745Y-88606439D01*
X189602840Y-89143242D01*
X186688000Y-89143242D01*
X186688000Y-88352843D01*
X190221348Y-88352843D01*
X190227485Y-88358980D01*
X190221348Y-88365117D01*
X190295339Y-88611115D01*
X190582990Y-88714485D01*
X191048640Y-89180135D01*
X191487352Y-88741423D01*
X191801941Y-88611115D01*
X191875932Y-88365117D01*
X191869795Y-88358980D01*
X191875932Y-88352843D01*
X191801941Y-88106845D01*
X191514290Y-88003475D01*
X191048640Y-87537825D01*
X190609928Y-87976537D01*
X190295339Y-88106845D01*
X190221348Y-88352843D01*
X186688000Y-88352843D01*
X186688000Y-87884000D01*
X186630148Y-87593161D01*
X186465401Y-87346599D01*
X184834294Y-85715492D01*
X184862220Y-85648238D01*
X184862718Y-85077825D01*
X184644890Y-84550642D01*
X184455622Y-84361043D01*
X184643473Y-84173520D01*
X184862220Y-83646718D01*
X184862718Y-83076305D01*
X184644890Y-82549122D01*
X184241900Y-82145427D01*
X184188640Y-82123312D01*
X184188640Y-79522162D01*
X184433401Y-79277401D01*
X184598148Y-79030839D01*
X184656000Y-78740000D01*
X184656000Y-54416802D01*
X185781502Y-53291300D01*
X185898641Y-53314600D01*
X185957359Y-53314600D01*
X186530848Y-53200526D01*
X187017029Y-52875670D01*
X187198000Y-52604828D01*
X187378971Y-52875670D01*
X187378971Y-52875670D01*
G37*
X187378971Y-52875670D02*
X187708000Y-53095520D01*
X187708000Y-80779620D01*
X187765852Y-81070459D01*
X187930599Y-81317021D01*
X189636279Y-83022701D01*
X189615060Y-83073802D01*
X189614562Y-83644215D01*
X189832390Y-84171398D01*
X190021658Y-84360997D01*
X189833807Y-84548520D01*
X189615060Y-85075322D01*
X189614562Y-85645735D01*
X189832390Y-86172918D01*
X190001044Y-86341868D01*
X189926862Y-86416050D01*
X190041741Y-86530929D01*
X189795745Y-86604919D01*
X189602840Y-87141722D01*
X189630044Y-87711486D01*
X189795745Y-88111521D01*
X190041743Y-88185512D01*
X190869035Y-87358220D01*
X190854893Y-87344078D01*
X191034498Y-87164473D01*
X191048640Y-87178615D01*
X191062783Y-87164473D01*
X191242388Y-87344078D01*
X191228245Y-87358220D01*
X192055537Y-88185512D01*
X192301535Y-88111521D01*
X192413106Y-87801048D01*
X192788000Y-88175942D01*
X192788000Y-91948000D01*
X192845852Y-92238839D01*
X193010599Y-92485401D01*
X193999198Y-93474000D01*
X188528802Y-93474000D01*
X186688000Y-91633198D01*
X186688000Y-90366637D01*
X190221348Y-90366637D01*
X190295339Y-90612635D01*
X190832142Y-90805540D01*
X191401906Y-90778336D01*
X191801941Y-90612635D01*
X191875932Y-90366637D01*
X191048640Y-89539345D01*
X190221348Y-90366637D01*
X186688000Y-90366637D01*
X186688000Y-89143242D01*
X189602840Y-89143242D01*
X189630044Y-89713006D01*
X189795745Y-90113041D01*
X190041743Y-90187032D01*
X190869035Y-89359740D01*
X191228245Y-89359740D01*
X192055537Y-90187032D01*
X192301535Y-90113041D01*
X192494440Y-89576238D01*
X192467236Y-89006474D01*
X192301535Y-88606439D01*
X192055537Y-88532448D01*
X191228245Y-89359740D01*
X190869035Y-89359740D01*
X190041743Y-88532448D01*
X189795745Y-88606439D01*
X189602840Y-89143242D01*
X186688000Y-89143242D01*
X186688000Y-88352843D01*
X190221348Y-88352843D01*
X190227485Y-88358980D01*
X190221348Y-88365117D01*
X190295339Y-88611115D01*
X190582990Y-88714485D01*
X191048640Y-89180135D01*
X191487352Y-88741423D01*
X191801941Y-88611115D01*
X191875932Y-88365117D01*
X191869795Y-88358980D01*
X191875932Y-88352843D01*
X191801941Y-88106845D01*
X191514290Y-88003475D01*
X191048640Y-87537825D01*
X190609928Y-87976537D01*
X190295339Y-88106845D01*
X190221348Y-88352843D01*
X186688000Y-88352843D01*
X186688000Y-87884000D01*
X186630148Y-87593161D01*
X186465401Y-87346599D01*
X184834294Y-85715492D01*
X184862220Y-85648238D01*
X184862718Y-85077825D01*
X184644890Y-84550642D01*
X184455622Y-84361043D01*
X184643473Y-84173520D01*
X184862220Y-83646718D01*
X184862718Y-83076305D01*
X184644890Y-82549122D01*
X184241900Y-82145427D01*
X184188640Y-82123312D01*
X184188640Y-79522162D01*
X184433401Y-79277401D01*
X184598148Y-79030839D01*
X184656000Y-78740000D01*
X184656000Y-54416802D01*
X185781502Y-53291300D01*
X185898641Y-53314600D01*
X185957359Y-53314600D01*
X186530848Y-53200526D01*
X187017029Y-52875670D01*
X187198000Y-52604828D01*
X187378971Y-52875670D01*
M02*
