G04 #@! TF.FileFunction,Soldermask,Top*
%FSLAX46Y46*%
G04 Gerber Fmt 4.6, Leading zero omitted, Abs format (unit mm)*
G04 Created by KiCad (PCBNEW 4.0.7) date 08/10/18 17:58:59*
%MOMM*%
%LPD*%
G01*
G04 APERTURE LIST*
%ADD10C,0.100000*%
%ADD11O,2.127200X2.127200*%
%ADD12C,3.600000*%
%ADD13C,1.800860*%
%ADD14R,2.100000X2.100000*%
%ADD15O,2.100000X2.100000*%
G04 APERTURE END LIST*
D10*
D11*
X210439000Y-77216000D03*
X212979000Y-77216000D03*
X212979000Y-74676000D03*
X210439000Y-74676000D03*
X212979000Y-72136000D03*
X197612000Y-100076000D03*
X192532000Y-100076000D03*
X189992000Y-100076000D03*
X187452000Y-100076000D03*
X184912000Y-100076000D03*
X182372000Y-100076000D03*
X179832000Y-100076000D03*
X177292000Y-100076000D03*
X210312000Y-51816000D03*
X207772000Y-51816000D03*
X205232000Y-51816000D03*
X202692000Y-51816000D03*
X200152000Y-51816000D03*
X197612000Y-51816000D03*
X195072000Y-51816000D03*
X192532000Y-51816000D03*
X173228000Y-51816000D03*
X188468000Y-51816000D03*
X185928000Y-51816000D03*
X183388000Y-51816000D03*
D12*
X212852000Y-94996000D03*
X212852000Y-67056000D03*
X162052000Y-51816000D03*
X160782000Y-100076000D03*
D11*
X165608000Y-51816000D03*
X168148000Y-51816000D03*
X170688000Y-51816000D03*
X175768000Y-51816000D03*
X178308000Y-51816000D03*
X180848000Y-51816000D03*
X174752000Y-100076000D03*
X200152000Y-100076000D03*
X202692000Y-100076000D03*
X205232000Y-100076000D03*
X207772000Y-100076000D03*
X210312000Y-100076000D03*
X210439000Y-72136000D03*
D13*
X206288640Y-69039740D03*
X206288640Y-67038220D03*
X206288640Y-65041780D03*
X206288640Y-63040260D03*
X198668640Y-69039740D03*
X198668640Y-67038220D03*
X198668640Y-65041780D03*
X198668640Y-63040260D03*
X168188640Y-69039740D03*
X168188640Y-67038220D03*
X168188640Y-65041780D03*
X168188640Y-63040260D03*
X168188640Y-89359740D03*
X168188640Y-87358220D03*
X168188640Y-85361780D03*
X168188640Y-83360260D03*
X175808640Y-89359740D03*
X175808640Y-87358220D03*
X175808640Y-85361780D03*
X175808640Y-83360260D03*
X183428640Y-89359740D03*
X183428640Y-87358220D03*
X183428640Y-85361780D03*
X183428640Y-83360260D03*
X191048640Y-89359740D03*
X191048640Y-87358220D03*
X191048640Y-85361780D03*
X191048640Y-83360260D03*
X198668640Y-89359740D03*
X198668640Y-87358220D03*
X198668640Y-85361780D03*
X198668640Y-83360260D03*
X206288640Y-89359740D03*
X206288640Y-87358220D03*
X206288640Y-85361780D03*
X206288640Y-83360260D03*
D14*
X157480000Y-64770000D03*
D15*
X157480000Y-67310000D03*
M02*
