G04 #@! TF.FileFunction,Copper,L1,Top,Signal*
%FSLAX46Y46*%
G04 Gerber Fmt 4.6, Leading zero omitted, Abs format (unit mm)*
G04 Created by KiCad (PCBNEW 4.0.7) date 05/06/19 16:36:02*
%MOMM*%
%LPD*%
G01*
G04 APERTURE LIST*
%ADD10C,0.100000*%
%ADD11R,1.700000X1.700000*%
%ADD12O,1.700000X1.700000*%
%ADD13O,1.727200X1.727200*%
%ADD14C,0.250000*%
%ADD15C,0.254000*%
G04 APERTURE END LIST*
D10*
D11*
X157480000Y-67310000D03*
D12*
X157480000Y-64770000D03*
D11*
X205740000Y-91440000D03*
D12*
X205740000Y-88900000D03*
X205740000Y-86360000D03*
X205740000Y-83820000D03*
D11*
X205740000Y-68580000D03*
D12*
X205740000Y-66040000D03*
X205740000Y-63500000D03*
X205740000Y-60960000D03*
D11*
X198120000Y-68580000D03*
D12*
X198120000Y-66040000D03*
X198120000Y-63500000D03*
X198120000Y-60960000D03*
D11*
X167640000Y-68580000D03*
D12*
X167640000Y-66040000D03*
X167640000Y-63500000D03*
X167640000Y-60960000D03*
D11*
X167640000Y-91440000D03*
D12*
X167640000Y-88900000D03*
X167640000Y-86360000D03*
X167640000Y-83820000D03*
D11*
X175260000Y-91440000D03*
D12*
X175260000Y-88900000D03*
X175260000Y-86360000D03*
X175260000Y-83820000D03*
D11*
X182880000Y-91440000D03*
D12*
X182880000Y-88900000D03*
X182880000Y-86360000D03*
X182880000Y-83820000D03*
D11*
X190500000Y-91440000D03*
D12*
X190500000Y-88900000D03*
X190500000Y-86360000D03*
X190500000Y-83820000D03*
D11*
X198120000Y-91440000D03*
D12*
X198120000Y-88900000D03*
X198120000Y-86360000D03*
X198120000Y-83820000D03*
D13*
X210439000Y-77216000D03*
X212979000Y-77216000D03*
X212979000Y-74676000D03*
X210439000Y-74676000D03*
X212979000Y-72136000D03*
X197612000Y-100076000D03*
X192532000Y-100076000D03*
X189992000Y-100076000D03*
X187452000Y-100076000D03*
X184912000Y-100076000D03*
X182372000Y-100076000D03*
X179832000Y-100076000D03*
X177292000Y-100076000D03*
X210312000Y-51816000D03*
X207772000Y-51816000D03*
X205232000Y-51816000D03*
X202692000Y-51816000D03*
X200152000Y-51816000D03*
X197612000Y-51816000D03*
X195072000Y-51816000D03*
X192532000Y-51816000D03*
X173228000Y-51816000D03*
X188468000Y-51816000D03*
X185928000Y-51816000D03*
X183388000Y-51816000D03*
X165608000Y-51816000D03*
X168148000Y-51816000D03*
X170688000Y-51816000D03*
X175768000Y-51816000D03*
X178308000Y-51816000D03*
X180848000Y-51816000D03*
X174752000Y-100076000D03*
X200152000Y-100076000D03*
X202692000Y-100076000D03*
X205232000Y-100076000D03*
X207772000Y-100076000D03*
X210312000Y-100076000D03*
X210439000Y-72136000D03*
D14*
X209296000Y-62034420D02*
X207830420Y-63500000D01*
X207830420Y-63500000D02*
X205740000Y-63500000D01*
X209296000Y-62034420D02*
X209296000Y-53848000D01*
X209296000Y-53848000D02*
X210312000Y-52832000D01*
X210312000Y-52832000D02*
X210312000Y-51816000D01*
X207772000Y-51816000D02*
X207772000Y-52832000D01*
X207772000Y-52832000D02*
X208788000Y-53848000D01*
X208788000Y-53848000D02*
X208788000Y-59944000D01*
X208788000Y-59944000D02*
X207772000Y-60960000D01*
X207772000Y-60960000D02*
X205740000Y-60960000D01*
X205232000Y-51816000D02*
X205232000Y-52832000D01*
X205232000Y-52832000D02*
X204216000Y-53848000D01*
X204216000Y-61976000D02*
X202692000Y-63500000D01*
X204216000Y-53848000D02*
X204216000Y-61976000D01*
X202692000Y-63500000D02*
X198120000Y-63500000D01*
X198120000Y-60960000D02*
X202692000Y-60960000D01*
X202692000Y-60960000D02*
X203708000Y-59944000D01*
X203708000Y-59944000D02*
X203708000Y-53848000D01*
X203708000Y-53848000D02*
X202692000Y-52832000D01*
X202692000Y-52832000D02*
X202692000Y-51816000D01*
X175768000Y-51816000D02*
X175768000Y-58166000D01*
X169418000Y-63500000D02*
X167640000Y-63500000D01*
X175768000Y-58166000D02*
X170434000Y-63500000D01*
X170434000Y-63500000D02*
X169418000Y-63500000D01*
X179832000Y-81280000D02*
X179578000Y-81280000D01*
X179578000Y-81280000D02*
X179520010Y-81337990D01*
X179520010Y-81337990D02*
X170122010Y-81337990D01*
X170122010Y-81337990D02*
X168489999Y-82970001D01*
X168489999Y-82970001D02*
X167640000Y-83820000D01*
X179832000Y-81280000D02*
X182880000Y-78232000D01*
X182880000Y-78232000D02*
X182880000Y-54102000D01*
X182880000Y-54102000D02*
X180848000Y-52070000D01*
X180848000Y-52070000D02*
X180848000Y-51816000D01*
X197612000Y-100076000D02*
X197612000Y-98806000D01*
X169418000Y-92456000D02*
X169418000Y-88138000D01*
X197612000Y-98806000D02*
X194056000Y-95250000D01*
X194056000Y-95250000D02*
X172212000Y-95250000D01*
X172212000Y-95250000D02*
X169418000Y-92456000D01*
X169418000Y-88138000D02*
X168489999Y-87209999D01*
X168489999Y-87209999D02*
X167640000Y-86360000D01*
X183388000Y-51816000D02*
X183388000Y-78486000D01*
X183388000Y-78486000D02*
X180086000Y-81788000D01*
X180086000Y-81788000D02*
X177292000Y-81788000D01*
X177292000Y-81788000D02*
X175260000Y-83820000D01*
X200152000Y-100076000D02*
X200152000Y-98806000D01*
X177038000Y-88138000D02*
X175260000Y-86360000D01*
X200152000Y-98806000D02*
X196088000Y-94742000D01*
X196088000Y-94742000D02*
X179324000Y-94742000D01*
X179324000Y-94742000D02*
X177038000Y-92456000D01*
X177038000Y-92456000D02*
X177038000Y-88138000D01*
X185928000Y-51816000D02*
X185928000Y-52070000D01*
X185928000Y-52070000D02*
X183896000Y-54102000D01*
X182880000Y-79756000D02*
X182880000Y-83820000D01*
X183896000Y-54102000D02*
X183896000Y-78740000D01*
X183896000Y-78740000D02*
X182880000Y-79756000D01*
X202692000Y-100076000D02*
X202692000Y-98806000D01*
X202692000Y-98806000D02*
X198120000Y-94234000D01*
X198120000Y-94234000D02*
X186436000Y-94234000D01*
X186436000Y-94234000D02*
X184658000Y-92456000D01*
X184658000Y-92456000D02*
X184658000Y-88138000D01*
X184658000Y-88138000D02*
X182880000Y-86360000D01*
X193040000Y-75946000D02*
X190500000Y-78486000D01*
X193040000Y-54864000D02*
X193040000Y-75946000D01*
X190500000Y-78486000D02*
X190500000Y-83820000D01*
X189992000Y-51816000D02*
X193040000Y-54864000D01*
X188468000Y-51816000D02*
X189992000Y-51816000D01*
X205232000Y-100076000D02*
X205232000Y-98806000D01*
X192278000Y-88138000D02*
X191349999Y-87209999D01*
X205232000Y-98806000D02*
X200152000Y-93726000D01*
X200152000Y-93726000D02*
X193548000Y-93726000D01*
X191349999Y-87209999D02*
X190500000Y-86360000D01*
X193548000Y-93726000D02*
X192278000Y-92456000D01*
X192278000Y-92456000D02*
X192278000Y-88138000D01*
X198120000Y-81026000D02*
X198120000Y-83820000D01*
X198120000Y-80518000D02*
X198120000Y-81026000D01*
X193548000Y-75946000D02*
X198120000Y-80518000D01*
X193548000Y-54102000D02*
X193548000Y-75946000D01*
X192532000Y-53086000D02*
X193548000Y-54102000D01*
X192532000Y-51816000D02*
X192532000Y-53086000D01*
X207772000Y-100076000D02*
X207772000Y-98806000D01*
X207772000Y-98806000D02*
X199898000Y-90932000D01*
X199898000Y-88138000D02*
X198969999Y-87209999D01*
X198969999Y-87209999D02*
X198120000Y-86360000D01*
X199898000Y-90932000D02*
X199898000Y-88138000D01*
X202184000Y-83820000D02*
X205740000Y-83820000D01*
X194056000Y-75692000D02*
X202184000Y-83820000D01*
X194056000Y-54053314D02*
X194056000Y-75692000D01*
X195072000Y-51816000D02*
X195072000Y-53037314D01*
X195072000Y-53037314D02*
X194056000Y-54053314D01*
X210312000Y-100076000D02*
X210312000Y-98854686D01*
X210312000Y-98854686D02*
X207518000Y-96060686D01*
X207518000Y-96060686D02*
X207518000Y-88138000D01*
X207518000Y-88138000D02*
X205740000Y-86360000D01*
D15*
G36*
X160158364Y-50548321D02*
X159817389Y-51369481D01*
X159816613Y-52258619D01*
X160156155Y-53080372D01*
X160784321Y-53709636D01*
X161605481Y-54050611D01*
X162494619Y-54051387D01*
X163316372Y-53711845D01*
X163945636Y-53083679D01*
X164218645Y-52426200D01*
X164518971Y-52875670D01*
X165005152Y-53200526D01*
X165578641Y-53314600D01*
X165637359Y-53314600D01*
X166210848Y-53200526D01*
X166697029Y-52875670D01*
X166878000Y-52604828D01*
X167058971Y-52875670D01*
X167545152Y-53200526D01*
X168118641Y-53314600D01*
X168177359Y-53314600D01*
X168750848Y-53200526D01*
X169237029Y-52875670D01*
X169418000Y-52604828D01*
X169598971Y-52875670D01*
X170085152Y-53200526D01*
X170658641Y-53314600D01*
X170717359Y-53314600D01*
X171290848Y-53200526D01*
X171777029Y-52875670D01*
X171957992Y-52604839D01*
X172339510Y-53022821D01*
X172868973Y-53270968D01*
X173101000Y-53150469D01*
X173101000Y-51943000D01*
X173081000Y-51943000D01*
X173081000Y-51689000D01*
X173101000Y-51689000D01*
X173101000Y-50481531D01*
X172868973Y-50361032D01*
X172339510Y-50609179D01*
X171957992Y-51027161D01*
X171777029Y-50756330D01*
X171290848Y-50431474D01*
X170717359Y-50317400D01*
X170658641Y-50317400D01*
X170085152Y-50431474D01*
X169598971Y-50756330D01*
X169418000Y-51027172D01*
X169237029Y-50756330D01*
X168750848Y-50431474D01*
X168177359Y-50317400D01*
X168118641Y-50317400D01*
X167545152Y-50431474D01*
X167058971Y-50756330D01*
X166878000Y-51027172D01*
X166697029Y-50756330D01*
X166210848Y-50431474D01*
X165637359Y-50317400D01*
X165578641Y-50317400D01*
X165005152Y-50431474D01*
X164518971Y-50756330D01*
X164218335Y-51206263D01*
X163947845Y-50551628D01*
X163383204Y-49986000D01*
X211033908Y-49986000D01*
X212142000Y-51094091D01*
X212142000Y-61976000D01*
X212196046Y-62247705D01*
X212349954Y-62478046D01*
X214682000Y-64810091D01*
X214682000Y-65725668D01*
X214119679Y-65162364D01*
X213298519Y-64821389D01*
X212409381Y-64820613D01*
X211587628Y-65160155D01*
X210958364Y-65788321D01*
X210617389Y-66609481D01*
X210616613Y-67498619D01*
X210956155Y-68320372D01*
X211584321Y-68949636D01*
X212405481Y-69290611D01*
X213294619Y-69291387D01*
X214116372Y-68951845D01*
X214682000Y-68387204D01*
X214682000Y-93665668D01*
X214119679Y-93102364D01*
X213298519Y-92761389D01*
X212409381Y-92760613D01*
X211587628Y-93100155D01*
X210958364Y-93728321D01*
X210617389Y-94549481D01*
X210616613Y-95438619D01*
X210956155Y-96260372D01*
X211584321Y-96889636D01*
X212405481Y-97230611D01*
X213294619Y-97231387D01*
X214116372Y-96891845D01*
X214682000Y-96327204D01*
X214682000Y-98511909D01*
X212349954Y-100843954D01*
X212196046Y-101074295D01*
X212142000Y-101346000D01*
X212142000Y-101906000D01*
X162112332Y-101906000D01*
X162675636Y-101343679D01*
X163016611Y-100522519D01*
X163017000Y-100076000D01*
X173224041Y-100076000D01*
X173338115Y-100649489D01*
X173662971Y-101135670D01*
X174149152Y-101460526D01*
X174722641Y-101574600D01*
X174781359Y-101574600D01*
X175354848Y-101460526D01*
X175841029Y-101135670D01*
X176022000Y-100864828D01*
X176202971Y-101135670D01*
X176689152Y-101460526D01*
X177262641Y-101574600D01*
X177321359Y-101574600D01*
X177894848Y-101460526D01*
X178381029Y-101135670D01*
X178562000Y-100864828D01*
X178742971Y-101135670D01*
X179229152Y-101460526D01*
X179802641Y-101574600D01*
X179861359Y-101574600D01*
X180434848Y-101460526D01*
X180921029Y-101135670D01*
X181102000Y-100864828D01*
X181282971Y-101135670D01*
X181769152Y-101460526D01*
X182342641Y-101574600D01*
X182401359Y-101574600D01*
X182974848Y-101460526D01*
X183461029Y-101135670D01*
X183642000Y-100864828D01*
X183822971Y-101135670D01*
X184309152Y-101460526D01*
X184882641Y-101574600D01*
X184941359Y-101574600D01*
X185514848Y-101460526D01*
X186001029Y-101135670D01*
X186181992Y-100864839D01*
X186563510Y-101282821D01*
X187092973Y-101530968D01*
X187325000Y-101410469D01*
X187325000Y-100203000D01*
X187579000Y-100203000D01*
X187579000Y-101410469D01*
X187811027Y-101530968D01*
X188340490Y-101282821D01*
X188722000Y-100864848D01*
X189103510Y-101282821D01*
X189632973Y-101530968D01*
X189865000Y-101410469D01*
X189865000Y-100203000D01*
X187579000Y-100203000D01*
X187325000Y-100203000D01*
X187305000Y-100203000D01*
X187305000Y-99949000D01*
X187325000Y-99949000D01*
X187325000Y-98741531D01*
X187579000Y-98741531D01*
X187579000Y-99949000D01*
X189865000Y-99949000D01*
X189865000Y-98741531D01*
X190119000Y-98741531D01*
X190119000Y-99949000D01*
X190139000Y-99949000D01*
X190139000Y-100203000D01*
X190119000Y-100203000D01*
X190119000Y-101410469D01*
X190351027Y-101530968D01*
X190880490Y-101282821D01*
X191262008Y-100864839D01*
X191442971Y-101135670D01*
X191929152Y-101460526D01*
X192502641Y-101574600D01*
X192561359Y-101574600D01*
X193134848Y-101460526D01*
X193621029Y-101135670D01*
X193945885Y-100649489D01*
X194059959Y-100076000D01*
X193945885Y-99502511D01*
X193621029Y-99016330D01*
X193134848Y-98691474D01*
X192561359Y-98577400D01*
X192502641Y-98577400D01*
X191929152Y-98691474D01*
X191442971Y-99016330D01*
X191262008Y-99287161D01*
X190880490Y-98869179D01*
X190351027Y-98621032D01*
X190119000Y-98741531D01*
X189865000Y-98741531D01*
X189632973Y-98621032D01*
X189103510Y-98869179D01*
X188722000Y-99287152D01*
X188340490Y-98869179D01*
X187811027Y-98621032D01*
X187579000Y-98741531D01*
X187325000Y-98741531D01*
X187092973Y-98621032D01*
X186563510Y-98869179D01*
X186181992Y-99287161D01*
X186001029Y-99016330D01*
X185514848Y-98691474D01*
X184941359Y-98577400D01*
X184882641Y-98577400D01*
X184309152Y-98691474D01*
X183822971Y-99016330D01*
X183642000Y-99287172D01*
X183461029Y-99016330D01*
X182974848Y-98691474D01*
X182401359Y-98577400D01*
X182342641Y-98577400D01*
X181769152Y-98691474D01*
X181282971Y-99016330D01*
X181102000Y-99287172D01*
X180921029Y-99016330D01*
X180434848Y-98691474D01*
X179861359Y-98577400D01*
X179802641Y-98577400D01*
X179229152Y-98691474D01*
X178742971Y-99016330D01*
X178562000Y-99287172D01*
X178381029Y-99016330D01*
X177894848Y-98691474D01*
X177321359Y-98577400D01*
X177262641Y-98577400D01*
X176689152Y-98691474D01*
X176202971Y-99016330D01*
X176022000Y-99287172D01*
X175841029Y-99016330D01*
X175354848Y-98691474D01*
X174781359Y-98577400D01*
X174722641Y-98577400D01*
X174149152Y-98691474D01*
X173662971Y-99016330D01*
X173338115Y-99502511D01*
X173224041Y-100076000D01*
X163017000Y-100076000D01*
X163017387Y-99633381D01*
X162677845Y-98811628D01*
X162049679Y-98182364D01*
X161228519Y-97841389D01*
X160339381Y-97840613D01*
X159517628Y-98180155D01*
X158888364Y-98808321D01*
X158547389Y-99629481D01*
X158546613Y-100518619D01*
X158886155Y-101340372D01*
X159450796Y-101906000D01*
X147522000Y-101906000D01*
X147522000Y-91725750D01*
X166155000Y-91725750D01*
X166155000Y-92416310D01*
X166251673Y-92649699D01*
X166430302Y-92828327D01*
X166663691Y-92925000D01*
X167354250Y-92925000D01*
X167513000Y-92766250D01*
X167513000Y-91567000D01*
X166313750Y-91567000D01*
X166155000Y-91725750D01*
X147522000Y-91725750D01*
X147522000Y-90463690D01*
X166155000Y-90463690D01*
X166155000Y-91154250D01*
X166313750Y-91313000D01*
X167513000Y-91313000D01*
X167513000Y-89027000D01*
X166319845Y-89027000D01*
X166198524Y-89256890D01*
X166368355Y-89666924D01*
X166639878Y-89964864D01*
X166430302Y-90051673D01*
X166251673Y-90230301D01*
X166155000Y-90463690D01*
X147522000Y-90463690D01*
X147522000Y-68865750D01*
X166155000Y-68865750D01*
X166155000Y-69556310D01*
X166251673Y-69789699D01*
X166430302Y-69968327D01*
X166663691Y-70065000D01*
X167354250Y-70065000D01*
X167513000Y-69906250D01*
X167513000Y-68707000D01*
X167767000Y-68707000D01*
X167767000Y-69906250D01*
X167925750Y-70065000D01*
X168616309Y-70065000D01*
X168849698Y-69968327D01*
X169028327Y-69789699D01*
X169125000Y-69556310D01*
X169125000Y-68865750D01*
X168966250Y-68707000D01*
X167767000Y-68707000D01*
X167513000Y-68707000D01*
X166313750Y-68707000D01*
X166155000Y-68865750D01*
X147522000Y-68865750D01*
X147522000Y-67595750D01*
X155995000Y-67595750D01*
X155995000Y-68286310D01*
X156091673Y-68519699D01*
X156270302Y-68698327D01*
X156503691Y-68795000D01*
X157194250Y-68795000D01*
X157353000Y-68636250D01*
X157353000Y-67437000D01*
X157607000Y-67437000D01*
X157607000Y-68636250D01*
X157765750Y-68795000D01*
X158456309Y-68795000D01*
X158689698Y-68698327D01*
X158868327Y-68519699D01*
X158965000Y-68286310D01*
X158965000Y-67603690D01*
X166155000Y-67603690D01*
X166155000Y-68294250D01*
X166313750Y-68453000D01*
X167513000Y-68453000D01*
X167513000Y-66167000D01*
X167767000Y-66167000D01*
X167767000Y-68453000D01*
X168966250Y-68453000D01*
X169125000Y-68294250D01*
X169125000Y-67603690D01*
X169028327Y-67370301D01*
X168849698Y-67191673D01*
X168640122Y-67104864D01*
X168911645Y-66806924D01*
X169081476Y-66396890D01*
X168960155Y-66167000D01*
X167767000Y-66167000D01*
X167513000Y-66167000D01*
X166319845Y-66167000D01*
X166198524Y-66396890D01*
X166368355Y-66806924D01*
X166639878Y-67104864D01*
X166430302Y-67191673D01*
X166251673Y-67370301D01*
X166155000Y-67603690D01*
X158965000Y-67603690D01*
X158965000Y-67595750D01*
X158806250Y-67437000D01*
X157607000Y-67437000D01*
X157353000Y-67437000D01*
X156153750Y-67437000D01*
X155995000Y-67595750D01*
X147522000Y-67595750D01*
X147522000Y-64770000D01*
X155965907Y-64770000D01*
X156078946Y-65338285D01*
X156400853Y-65820054D01*
X156444777Y-65849403D01*
X156270302Y-65921673D01*
X156091673Y-66100301D01*
X155995000Y-66333690D01*
X155995000Y-67024250D01*
X156153750Y-67183000D01*
X157353000Y-67183000D01*
X157353000Y-67163000D01*
X157607000Y-67163000D01*
X157607000Y-67183000D01*
X158806250Y-67183000D01*
X158965000Y-67024250D01*
X158965000Y-66333690D01*
X158868327Y-66100301D01*
X158689698Y-65921673D01*
X158515223Y-65849403D01*
X158559147Y-65820054D01*
X158881054Y-65338285D01*
X158994093Y-64770000D01*
X158881054Y-64201715D01*
X158559147Y-63719946D01*
X158077378Y-63398039D01*
X157509093Y-63285000D01*
X157450907Y-63285000D01*
X156882622Y-63398039D01*
X156400853Y-63719946D01*
X156078946Y-64201715D01*
X155965907Y-64770000D01*
X147522000Y-64770000D01*
X147522000Y-60960000D01*
X166125907Y-60960000D01*
X166238946Y-61528285D01*
X166560853Y-62010054D01*
X166890026Y-62230000D01*
X166560853Y-62449946D01*
X166238946Y-62931715D01*
X166125907Y-63500000D01*
X166238946Y-64068285D01*
X166560853Y-64550054D01*
X166901553Y-64777702D01*
X166758642Y-64844817D01*
X166368355Y-65273076D01*
X166198524Y-65683110D01*
X166319845Y-65913000D01*
X167513000Y-65913000D01*
X167513000Y-65893000D01*
X167767000Y-65893000D01*
X167767000Y-65913000D01*
X168960155Y-65913000D01*
X169081476Y-65683110D01*
X168911645Y-65273076D01*
X168521358Y-64844817D01*
X168378447Y-64777702D01*
X168719147Y-64550054D01*
X168912954Y-64260000D01*
X170434000Y-64260000D01*
X170724839Y-64202148D01*
X170971401Y-64037401D01*
X176305401Y-58703401D01*
X176470148Y-58456839D01*
X176528000Y-58166000D01*
X176528000Y-53095520D01*
X176857029Y-52875670D01*
X177038000Y-52604828D01*
X177218971Y-52875670D01*
X177705152Y-53200526D01*
X178278641Y-53314600D01*
X178337359Y-53314600D01*
X178910848Y-53200526D01*
X179397029Y-52875670D01*
X179578000Y-52604828D01*
X179758971Y-52875670D01*
X180245152Y-53200526D01*
X180818641Y-53314600D01*
X180877359Y-53314600D01*
X180994498Y-53291300D01*
X182120000Y-54416802D01*
X182120000Y-77917198D01*
X179502101Y-80535097D01*
X179287160Y-80577852D01*
X179286953Y-80577990D01*
X170122010Y-80577990D01*
X169831171Y-80635842D01*
X169584609Y-80800589D01*
X167986969Y-82398229D01*
X167669093Y-82335000D01*
X167610907Y-82335000D01*
X167042622Y-82448039D01*
X166560853Y-82769946D01*
X166238946Y-83251715D01*
X166125907Y-83820000D01*
X166238946Y-84388285D01*
X166560853Y-84870054D01*
X166890026Y-85090000D01*
X166560853Y-85309946D01*
X166238946Y-85791715D01*
X166125907Y-86360000D01*
X166238946Y-86928285D01*
X166560853Y-87410054D01*
X166901553Y-87637702D01*
X166758642Y-87704817D01*
X166368355Y-88133076D01*
X166198524Y-88543110D01*
X166319845Y-88773000D01*
X167513000Y-88773000D01*
X167513000Y-88753000D01*
X167767000Y-88753000D01*
X167767000Y-88773000D01*
X167787000Y-88773000D01*
X167787000Y-89027000D01*
X167767000Y-89027000D01*
X167767000Y-91313000D01*
X167787000Y-91313000D01*
X167787000Y-91567000D01*
X167767000Y-91567000D01*
X167767000Y-92766250D01*
X167925750Y-92925000D01*
X168616309Y-92925000D01*
X168787512Y-92854085D01*
X168880599Y-92993401D01*
X171674599Y-95787401D01*
X171921161Y-95952148D01*
X172212000Y-96010000D01*
X193741198Y-96010000D01*
X196657583Y-98926385D01*
X196522971Y-99016330D01*
X196198115Y-99502511D01*
X196084041Y-100076000D01*
X196198115Y-100649489D01*
X196522971Y-101135670D01*
X197009152Y-101460526D01*
X197582641Y-101574600D01*
X197641359Y-101574600D01*
X198214848Y-101460526D01*
X198701029Y-101135670D01*
X198882000Y-100864828D01*
X199062971Y-101135670D01*
X199549152Y-101460526D01*
X200122641Y-101574600D01*
X200181359Y-101574600D01*
X200754848Y-101460526D01*
X201241029Y-101135670D01*
X201422000Y-100864828D01*
X201602971Y-101135670D01*
X202089152Y-101460526D01*
X202662641Y-101574600D01*
X202721359Y-101574600D01*
X203294848Y-101460526D01*
X203781029Y-101135670D01*
X203962000Y-100864828D01*
X204142971Y-101135670D01*
X204629152Y-101460526D01*
X205202641Y-101574600D01*
X205261359Y-101574600D01*
X205834848Y-101460526D01*
X206321029Y-101135670D01*
X206502000Y-100864828D01*
X206682971Y-101135670D01*
X207169152Y-101460526D01*
X207742641Y-101574600D01*
X207801359Y-101574600D01*
X208374848Y-101460526D01*
X208861029Y-101135670D01*
X209042000Y-100864828D01*
X209222971Y-101135670D01*
X209709152Y-101460526D01*
X210282641Y-101574600D01*
X210341359Y-101574600D01*
X210914848Y-101460526D01*
X211401029Y-101135670D01*
X211725885Y-100649489D01*
X211839959Y-100076000D01*
X211725885Y-99502511D01*
X211401029Y-99016330D01*
X211058647Y-98787558D01*
X211014148Y-98563847D01*
X210849401Y-98317285D01*
X208278000Y-95745884D01*
X208278000Y-88138000D01*
X208220148Y-87847161D01*
X208055401Y-87600599D01*
X207181210Y-86726408D01*
X207254093Y-86360000D01*
X207141054Y-85791715D01*
X206819147Y-85309946D01*
X206489974Y-85090000D01*
X206819147Y-84870054D01*
X207141054Y-84388285D01*
X207254093Y-83820000D01*
X207141054Y-83251715D01*
X206819147Y-82769946D01*
X206337378Y-82448039D01*
X205769093Y-82335000D01*
X205710907Y-82335000D01*
X205142622Y-82448039D01*
X204660853Y-82769946D01*
X204467046Y-83060000D01*
X202498802Y-83060000D01*
X194816000Y-75377198D01*
X194816000Y-72136000D01*
X208911041Y-72136000D01*
X209025115Y-72709489D01*
X209349971Y-73195670D01*
X209664752Y-73406000D01*
X209349971Y-73616330D01*
X209025115Y-74102511D01*
X208911041Y-74676000D01*
X209025115Y-75249489D01*
X209349971Y-75735670D01*
X209664752Y-75946000D01*
X209349971Y-76156330D01*
X209025115Y-76642511D01*
X208911041Y-77216000D01*
X209025115Y-77789489D01*
X209349971Y-78275670D01*
X209836152Y-78600526D01*
X210409641Y-78714600D01*
X210468359Y-78714600D01*
X211041848Y-78600526D01*
X211528029Y-78275670D01*
X211709000Y-78004828D01*
X211889971Y-78275670D01*
X212376152Y-78600526D01*
X212949641Y-78714600D01*
X213008359Y-78714600D01*
X213581848Y-78600526D01*
X214068029Y-78275670D01*
X214392885Y-77789489D01*
X214506959Y-77216000D01*
X214392885Y-76642511D01*
X214068029Y-76156330D01*
X213753248Y-75946000D01*
X214068029Y-75735670D01*
X214392885Y-75249489D01*
X214506959Y-74676000D01*
X214392885Y-74102511D01*
X214068029Y-73616330D01*
X213753248Y-73406000D01*
X214068029Y-73195670D01*
X214392885Y-72709489D01*
X214506959Y-72136000D01*
X214392885Y-71562511D01*
X214068029Y-71076330D01*
X213581848Y-70751474D01*
X213008359Y-70637400D01*
X212949641Y-70637400D01*
X212376152Y-70751474D01*
X211889971Y-71076330D01*
X211709000Y-71347172D01*
X211528029Y-71076330D01*
X211041848Y-70751474D01*
X210468359Y-70637400D01*
X210409641Y-70637400D01*
X209836152Y-70751474D01*
X209349971Y-71076330D01*
X209025115Y-71562511D01*
X208911041Y-72136000D01*
X194816000Y-72136000D01*
X194816000Y-68865750D01*
X196635000Y-68865750D01*
X196635000Y-69556310D01*
X196731673Y-69789699D01*
X196910302Y-69968327D01*
X197143691Y-70065000D01*
X197834250Y-70065000D01*
X197993000Y-69906250D01*
X197993000Y-68707000D01*
X198247000Y-68707000D01*
X198247000Y-69906250D01*
X198405750Y-70065000D01*
X199096309Y-70065000D01*
X199329698Y-69968327D01*
X199508327Y-69789699D01*
X199605000Y-69556310D01*
X199605000Y-68865750D01*
X204255000Y-68865750D01*
X204255000Y-69556310D01*
X204351673Y-69789699D01*
X204530302Y-69968327D01*
X204763691Y-70065000D01*
X205454250Y-70065000D01*
X205613000Y-69906250D01*
X205613000Y-68707000D01*
X205867000Y-68707000D01*
X205867000Y-69906250D01*
X206025750Y-70065000D01*
X206716309Y-70065000D01*
X206949698Y-69968327D01*
X207128327Y-69789699D01*
X207225000Y-69556310D01*
X207225000Y-68865750D01*
X207066250Y-68707000D01*
X205867000Y-68707000D01*
X205613000Y-68707000D01*
X204413750Y-68707000D01*
X204255000Y-68865750D01*
X199605000Y-68865750D01*
X199446250Y-68707000D01*
X198247000Y-68707000D01*
X197993000Y-68707000D01*
X196793750Y-68707000D01*
X196635000Y-68865750D01*
X194816000Y-68865750D01*
X194816000Y-54368116D01*
X195609401Y-53574715D01*
X195774148Y-53328153D01*
X195818647Y-53104442D01*
X196161029Y-52875670D01*
X196342000Y-52604828D01*
X196522971Y-52875670D01*
X197009152Y-53200526D01*
X197582641Y-53314600D01*
X197641359Y-53314600D01*
X198214848Y-53200526D01*
X198701029Y-52875670D01*
X198882000Y-52604828D01*
X199062971Y-52875670D01*
X199549152Y-53200526D01*
X200122641Y-53314600D01*
X200181359Y-53314600D01*
X200754848Y-53200526D01*
X201241029Y-52875670D01*
X201422000Y-52604828D01*
X201602971Y-52875670D01*
X202003537Y-53143320D01*
X202154599Y-53369401D01*
X202948000Y-54162802D01*
X202948000Y-59629198D01*
X202377198Y-60200000D01*
X199392954Y-60200000D01*
X199199147Y-59909946D01*
X198717378Y-59588039D01*
X198149093Y-59475000D01*
X198090907Y-59475000D01*
X197522622Y-59588039D01*
X197040853Y-59909946D01*
X196718946Y-60391715D01*
X196605907Y-60960000D01*
X196718946Y-61528285D01*
X197040853Y-62010054D01*
X197370026Y-62230000D01*
X197040853Y-62449946D01*
X196718946Y-62931715D01*
X196605907Y-63500000D01*
X196718946Y-64068285D01*
X197040853Y-64550054D01*
X197370026Y-64770000D01*
X197040853Y-64989946D01*
X196718946Y-65471715D01*
X196605907Y-66040000D01*
X196718946Y-66608285D01*
X197040853Y-67090054D01*
X197084777Y-67119403D01*
X196910302Y-67191673D01*
X196731673Y-67370301D01*
X196635000Y-67603690D01*
X196635000Y-68294250D01*
X196793750Y-68453000D01*
X197993000Y-68453000D01*
X197993000Y-68433000D01*
X198247000Y-68433000D01*
X198247000Y-68453000D01*
X199446250Y-68453000D01*
X199605000Y-68294250D01*
X199605000Y-67603690D01*
X199508327Y-67370301D01*
X199329698Y-67191673D01*
X199155223Y-67119403D01*
X199199147Y-67090054D01*
X199521054Y-66608285D01*
X199634093Y-66040000D01*
X199521054Y-65471715D01*
X199199147Y-64989946D01*
X198869974Y-64770000D01*
X199199147Y-64550054D01*
X199392954Y-64260000D01*
X202692000Y-64260000D01*
X202982839Y-64202148D01*
X203229401Y-64037401D01*
X204346717Y-62920085D01*
X204338946Y-62931715D01*
X204225907Y-63500000D01*
X204338946Y-64068285D01*
X204660853Y-64550054D01*
X204990026Y-64770000D01*
X204660853Y-64989946D01*
X204338946Y-65471715D01*
X204225907Y-66040000D01*
X204338946Y-66608285D01*
X204660853Y-67090054D01*
X204704777Y-67119403D01*
X204530302Y-67191673D01*
X204351673Y-67370301D01*
X204255000Y-67603690D01*
X204255000Y-68294250D01*
X204413750Y-68453000D01*
X205613000Y-68453000D01*
X205613000Y-68433000D01*
X205867000Y-68433000D01*
X205867000Y-68453000D01*
X207066250Y-68453000D01*
X207225000Y-68294250D01*
X207225000Y-67603690D01*
X207128327Y-67370301D01*
X206949698Y-67191673D01*
X206775223Y-67119403D01*
X206819147Y-67090054D01*
X207141054Y-66608285D01*
X207254093Y-66040000D01*
X207141054Y-65471715D01*
X206819147Y-64989946D01*
X206489974Y-64770000D01*
X206819147Y-64550054D01*
X207012954Y-64260000D01*
X207830420Y-64260000D01*
X208121259Y-64202148D01*
X208367821Y-64037401D01*
X209833401Y-62571821D01*
X209998148Y-62325259D01*
X210056000Y-62034420D01*
X210056000Y-54162802D01*
X210849401Y-53369401D01*
X211000463Y-53143320D01*
X211401029Y-52875670D01*
X211725885Y-52389489D01*
X211839959Y-51816000D01*
X211725885Y-51242511D01*
X211401029Y-50756330D01*
X210914848Y-50431474D01*
X210341359Y-50317400D01*
X210282641Y-50317400D01*
X209709152Y-50431474D01*
X209222971Y-50756330D01*
X209042000Y-51027172D01*
X208861029Y-50756330D01*
X208374848Y-50431474D01*
X207801359Y-50317400D01*
X207742641Y-50317400D01*
X207169152Y-50431474D01*
X206682971Y-50756330D01*
X206502000Y-51027172D01*
X206321029Y-50756330D01*
X205834848Y-50431474D01*
X205261359Y-50317400D01*
X205202641Y-50317400D01*
X204629152Y-50431474D01*
X204142971Y-50756330D01*
X203962000Y-51027172D01*
X203781029Y-50756330D01*
X203294848Y-50431474D01*
X202721359Y-50317400D01*
X202662641Y-50317400D01*
X202089152Y-50431474D01*
X201602971Y-50756330D01*
X201422000Y-51027172D01*
X201241029Y-50756330D01*
X200754848Y-50431474D01*
X200181359Y-50317400D01*
X200122641Y-50317400D01*
X199549152Y-50431474D01*
X199062971Y-50756330D01*
X198882000Y-51027172D01*
X198701029Y-50756330D01*
X198214848Y-50431474D01*
X197641359Y-50317400D01*
X197582641Y-50317400D01*
X197009152Y-50431474D01*
X196522971Y-50756330D01*
X196342000Y-51027172D01*
X196161029Y-50756330D01*
X195674848Y-50431474D01*
X195101359Y-50317400D01*
X195042641Y-50317400D01*
X194469152Y-50431474D01*
X193982971Y-50756330D01*
X193802000Y-51027172D01*
X193621029Y-50756330D01*
X193134848Y-50431474D01*
X192561359Y-50317400D01*
X192502641Y-50317400D01*
X191929152Y-50431474D01*
X191442971Y-50756330D01*
X191118115Y-51242511D01*
X191014454Y-51763652D01*
X190529401Y-51278599D01*
X190282839Y-51113852D01*
X189992000Y-51056000D01*
X189757262Y-51056000D01*
X189557029Y-50756330D01*
X189070848Y-50431474D01*
X188497359Y-50317400D01*
X188438641Y-50317400D01*
X187865152Y-50431474D01*
X187378971Y-50756330D01*
X187198000Y-51027172D01*
X187017029Y-50756330D01*
X186530848Y-50431474D01*
X185957359Y-50317400D01*
X185898641Y-50317400D01*
X185325152Y-50431474D01*
X184838971Y-50756330D01*
X184658000Y-51027172D01*
X184477029Y-50756330D01*
X183990848Y-50431474D01*
X183417359Y-50317400D01*
X183358641Y-50317400D01*
X182785152Y-50431474D01*
X182298971Y-50756330D01*
X182118000Y-51027172D01*
X181937029Y-50756330D01*
X181450848Y-50431474D01*
X180877359Y-50317400D01*
X180818641Y-50317400D01*
X180245152Y-50431474D01*
X179758971Y-50756330D01*
X179578000Y-51027172D01*
X179397029Y-50756330D01*
X178910848Y-50431474D01*
X178337359Y-50317400D01*
X178278641Y-50317400D01*
X177705152Y-50431474D01*
X177218971Y-50756330D01*
X177038000Y-51027172D01*
X176857029Y-50756330D01*
X176370848Y-50431474D01*
X175797359Y-50317400D01*
X175738641Y-50317400D01*
X175165152Y-50431474D01*
X174678971Y-50756330D01*
X174498008Y-51027161D01*
X174116490Y-50609179D01*
X173587027Y-50361032D01*
X173355000Y-50481531D01*
X173355000Y-51689000D01*
X173375000Y-51689000D01*
X173375000Y-51943000D01*
X173355000Y-51943000D01*
X173355000Y-53150469D01*
X173587027Y-53270968D01*
X174116490Y-53022821D01*
X174498008Y-52604839D01*
X174678971Y-52875670D01*
X175008000Y-53095520D01*
X175008000Y-57851198D01*
X170119198Y-62740000D01*
X168912954Y-62740000D01*
X168719147Y-62449946D01*
X168389974Y-62230000D01*
X168719147Y-62010054D01*
X169041054Y-61528285D01*
X169154093Y-60960000D01*
X169041054Y-60391715D01*
X168719147Y-59909946D01*
X168237378Y-59588039D01*
X167669093Y-59475000D01*
X167610907Y-59475000D01*
X167042622Y-59588039D01*
X166560853Y-59909946D01*
X166238946Y-60391715D01*
X166125907Y-60960000D01*
X147522000Y-60960000D01*
X147522000Y-59222092D01*
X148630091Y-58114000D01*
X156464000Y-58114000D01*
X156735705Y-58059954D01*
X156966046Y-57906046D01*
X158490043Y-56382048D01*
X158490046Y-56382046D01*
X158643954Y-56151705D01*
X158698000Y-55880000D01*
X158698000Y-51094092D01*
X159806091Y-49986000D01*
X160721668Y-49986000D01*
X160158364Y-50548321D01*
X160158364Y-50548321D01*
G37*
X160158364Y-50548321D02*
X159817389Y-51369481D01*
X159816613Y-52258619D01*
X160156155Y-53080372D01*
X160784321Y-53709636D01*
X161605481Y-54050611D01*
X162494619Y-54051387D01*
X163316372Y-53711845D01*
X163945636Y-53083679D01*
X164218645Y-52426200D01*
X164518971Y-52875670D01*
X165005152Y-53200526D01*
X165578641Y-53314600D01*
X165637359Y-53314600D01*
X166210848Y-53200526D01*
X166697029Y-52875670D01*
X166878000Y-52604828D01*
X167058971Y-52875670D01*
X167545152Y-53200526D01*
X168118641Y-53314600D01*
X168177359Y-53314600D01*
X168750848Y-53200526D01*
X169237029Y-52875670D01*
X169418000Y-52604828D01*
X169598971Y-52875670D01*
X170085152Y-53200526D01*
X170658641Y-53314600D01*
X170717359Y-53314600D01*
X171290848Y-53200526D01*
X171777029Y-52875670D01*
X171957992Y-52604839D01*
X172339510Y-53022821D01*
X172868973Y-53270968D01*
X173101000Y-53150469D01*
X173101000Y-51943000D01*
X173081000Y-51943000D01*
X173081000Y-51689000D01*
X173101000Y-51689000D01*
X173101000Y-50481531D01*
X172868973Y-50361032D01*
X172339510Y-50609179D01*
X171957992Y-51027161D01*
X171777029Y-50756330D01*
X171290848Y-50431474D01*
X170717359Y-50317400D01*
X170658641Y-50317400D01*
X170085152Y-50431474D01*
X169598971Y-50756330D01*
X169418000Y-51027172D01*
X169237029Y-50756330D01*
X168750848Y-50431474D01*
X168177359Y-50317400D01*
X168118641Y-50317400D01*
X167545152Y-50431474D01*
X167058971Y-50756330D01*
X166878000Y-51027172D01*
X166697029Y-50756330D01*
X166210848Y-50431474D01*
X165637359Y-50317400D01*
X165578641Y-50317400D01*
X165005152Y-50431474D01*
X164518971Y-50756330D01*
X164218335Y-51206263D01*
X163947845Y-50551628D01*
X163383204Y-49986000D01*
X211033908Y-49986000D01*
X212142000Y-51094091D01*
X212142000Y-61976000D01*
X212196046Y-62247705D01*
X212349954Y-62478046D01*
X214682000Y-64810091D01*
X214682000Y-65725668D01*
X214119679Y-65162364D01*
X213298519Y-64821389D01*
X212409381Y-64820613D01*
X211587628Y-65160155D01*
X210958364Y-65788321D01*
X210617389Y-66609481D01*
X210616613Y-67498619D01*
X210956155Y-68320372D01*
X211584321Y-68949636D01*
X212405481Y-69290611D01*
X213294619Y-69291387D01*
X214116372Y-68951845D01*
X214682000Y-68387204D01*
X214682000Y-93665668D01*
X214119679Y-93102364D01*
X213298519Y-92761389D01*
X212409381Y-92760613D01*
X211587628Y-93100155D01*
X210958364Y-93728321D01*
X210617389Y-94549481D01*
X210616613Y-95438619D01*
X210956155Y-96260372D01*
X211584321Y-96889636D01*
X212405481Y-97230611D01*
X213294619Y-97231387D01*
X214116372Y-96891845D01*
X214682000Y-96327204D01*
X214682000Y-98511909D01*
X212349954Y-100843954D01*
X212196046Y-101074295D01*
X212142000Y-101346000D01*
X212142000Y-101906000D01*
X162112332Y-101906000D01*
X162675636Y-101343679D01*
X163016611Y-100522519D01*
X163017000Y-100076000D01*
X173224041Y-100076000D01*
X173338115Y-100649489D01*
X173662971Y-101135670D01*
X174149152Y-101460526D01*
X174722641Y-101574600D01*
X174781359Y-101574600D01*
X175354848Y-101460526D01*
X175841029Y-101135670D01*
X176022000Y-100864828D01*
X176202971Y-101135670D01*
X176689152Y-101460526D01*
X177262641Y-101574600D01*
X177321359Y-101574600D01*
X177894848Y-101460526D01*
X178381029Y-101135670D01*
X178562000Y-100864828D01*
X178742971Y-101135670D01*
X179229152Y-101460526D01*
X179802641Y-101574600D01*
X179861359Y-101574600D01*
X180434848Y-101460526D01*
X180921029Y-101135670D01*
X181102000Y-100864828D01*
X181282971Y-101135670D01*
X181769152Y-101460526D01*
X182342641Y-101574600D01*
X182401359Y-101574600D01*
X182974848Y-101460526D01*
X183461029Y-101135670D01*
X183642000Y-100864828D01*
X183822971Y-101135670D01*
X184309152Y-101460526D01*
X184882641Y-101574600D01*
X184941359Y-101574600D01*
X185514848Y-101460526D01*
X186001029Y-101135670D01*
X186181992Y-100864839D01*
X186563510Y-101282821D01*
X187092973Y-101530968D01*
X187325000Y-101410469D01*
X187325000Y-100203000D01*
X187579000Y-100203000D01*
X187579000Y-101410469D01*
X187811027Y-101530968D01*
X188340490Y-101282821D01*
X188722000Y-100864848D01*
X189103510Y-101282821D01*
X189632973Y-101530968D01*
X189865000Y-101410469D01*
X189865000Y-100203000D01*
X187579000Y-100203000D01*
X187325000Y-100203000D01*
X187305000Y-100203000D01*
X187305000Y-99949000D01*
X187325000Y-99949000D01*
X187325000Y-98741531D01*
X187579000Y-98741531D01*
X187579000Y-99949000D01*
X189865000Y-99949000D01*
X189865000Y-98741531D01*
X190119000Y-98741531D01*
X190119000Y-99949000D01*
X190139000Y-99949000D01*
X190139000Y-100203000D01*
X190119000Y-100203000D01*
X190119000Y-101410469D01*
X190351027Y-101530968D01*
X190880490Y-101282821D01*
X191262008Y-100864839D01*
X191442971Y-101135670D01*
X191929152Y-101460526D01*
X192502641Y-101574600D01*
X192561359Y-101574600D01*
X193134848Y-101460526D01*
X193621029Y-101135670D01*
X193945885Y-100649489D01*
X194059959Y-100076000D01*
X193945885Y-99502511D01*
X193621029Y-99016330D01*
X193134848Y-98691474D01*
X192561359Y-98577400D01*
X192502641Y-98577400D01*
X191929152Y-98691474D01*
X191442971Y-99016330D01*
X191262008Y-99287161D01*
X190880490Y-98869179D01*
X190351027Y-98621032D01*
X190119000Y-98741531D01*
X189865000Y-98741531D01*
X189632973Y-98621032D01*
X189103510Y-98869179D01*
X188722000Y-99287152D01*
X188340490Y-98869179D01*
X187811027Y-98621032D01*
X187579000Y-98741531D01*
X187325000Y-98741531D01*
X187092973Y-98621032D01*
X186563510Y-98869179D01*
X186181992Y-99287161D01*
X186001029Y-99016330D01*
X185514848Y-98691474D01*
X184941359Y-98577400D01*
X184882641Y-98577400D01*
X184309152Y-98691474D01*
X183822971Y-99016330D01*
X183642000Y-99287172D01*
X183461029Y-99016330D01*
X182974848Y-98691474D01*
X182401359Y-98577400D01*
X182342641Y-98577400D01*
X181769152Y-98691474D01*
X181282971Y-99016330D01*
X181102000Y-99287172D01*
X180921029Y-99016330D01*
X180434848Y-98691474D01*
X179861359Y-98577400D01*
X179802641Y-98577400D01*
X179229152Y-98691474D01*
X178742971Y-99016330D01*
X178562000Y-99287172D01*
X178381029Y-99016330D01*
X177894848Y-98691474D01*
X177321359Y-98577400D01*
X177262641Y-98577400D01*
X176689152Y-98691474D01*
X176202971Y-99016330D01*
X176022000Y-99287172D01*
X175841029Y-99016330D01*
X175354848Y-98691474D01*
X174781359Y-98577400D01*
X174722641Y-98577400D01*
X174149152Y-98691474D01*
X173662971Y-99016330D01*
X173338115Y-99502511D01*
X173224041Y-100076000D01*
X163017000Y-100076000D01*
X163017387Y-99633381D01*
X162677845Y-98811628D01*
X162049679Y-98182364D01*
X161228519Y-97841389D01*
X160339381Y-97840613D01*
X159517628Y-98180155D01*
X158888364Y-98808321D01*
X158547389Y-99629481D01*
X158546613Y-100518619D01*
X158886155Y-101340372D01*
X159450796Y-101906000D01*
X147522000Y-101906000D01*
X147522000Y-91725750D01*
X166155000Y-91725750D01*
X166155000Y-92416310D01*
X166251673Y-92649699D01*
X166430302Y-92828327D01*
X166663691Y-92925000D01*
X167354250Y-92925000D01*
X167513000Y-92766250D01*
X167513000Y-91567000D01*
X166313750Y-91567000D01*
X166155000Y-91725750D01*
X147522000Y-91725750D01*
X147522000Y-90463690D01*
X166155000Y-90463690D01*
X166155000Y-91154250D01*
X166313750Y-91313000D01*
X167513000Y-91313000D01*
X167513000Y-89027000D01*
X166319845Y-89027000D01*
X166198524Y-89256890D01*
X166368355Y-89666924D01*
X166639878Y-89964864D01*
X166430302Y-90051673D01*
X166251673Y-90230301D01*
X166155000Y-90463690D01*
X147522000Y-90463690D01*
X147522000Y-68865750D01*
X166155000Y-68865750D01*
X166155000Y-69556310D01*
X166251673Y-69789699D01*
X166430302Y-69968327D01*
X166663691Y-70065000D01*
X167354250Y-70065000D01*
X167513000Y-69906250D01*
X167513000Y-68707000D01*
X167767000Y-68707000D01*
X167767000Y-69906250D01*
X167925750Y-70065000D01*
X168616309Y-70065000D01*
X168849698Y-69968327D01*
X169028327Y-69789699D01*
X169125000Y-69556310D01*
X169125000Y-68865750D01*
X168966250Y-68707000D01*
X167767000Y-68707000D01*
X167513000Y-68707000D01*
X166313750Y-68707000D01*
X166155000Y-68865750D01*
X147522000Y-68865750D01*
X147522000Y-67595750D01*
X155995000Y-67595750D01*
X155995000Y-68286310D01*
X156091673Y-68519699D01*
X156270302Y-68698327D01*
X156503691Y-68795000D01*
X157194250Y-68795000D01*
X157353000Y-68636250D01*
X157353000Y-67437000D01*
X157607000Y-67437000D01*
X157607000Y-68636250D01*
X157765750Y-68795000D01*
X158456309Y-68795000D01*
X158689698Y-68698327D01*
X158868327Y-68519699D01*
X158965000Y-68286310D01*
X158965000Y-67603690D01*
X166155000Y-67603690D01*
X166155000Y-68294250D01*
X166313750Y-68453000D01*
X167513000Y-68453000D01*
X167513000Y-66167000D01*
X167767000Y-66167000D01*
X167767000Y-68453000D01*
X168966250Y-68453000D01*
X169125000Y-68294250D01*
X169125000Y-67603690D01*
X169028327Y-67370301D01*
X168849698Y-67191673D01*
X168640122Y-67104864D01*
X168911645Y-66806924D01*
X169081476Y-66396890D01*
X168960155Y-66167000D01*
X167767000Y-66167000D01*
X167513000Y-66167000D01*
X166319845Y-66167000D01*
X166198524Y-66396890D01*
X166368355Y-66806924D01*
X166639878Y-67104864D01*
X166430302Y-67191673D01*
X166251673Y-67370301D01*
X166155000Y-67603690D01*
X158965000Y-67603690D01*
X158965000Y-67595750D01*
X158806250Y-67437000D01*
X157607000Y-67437000D01*
X157353000Y-67437000D01*
X156153750Y-67437000D01*
X155995000Y-67595750D01*
X147522000Y-67595750D01*
X147522000Y-64770000D01*
X155965907Y-64770000D01*
X156078946Y-65338285D01*
X156400853Y-65820054D01*
X156444777Y-65849403D01*
X156270302Y-65921673D01*
X156091673Y-66100301D01*
X155995000Y-66333690D01*
X155995000Y-67024250D01*
X156153750Y-67183000D01*
X157353000Y-67183000D01*
X157353000Y-67163000D01*
X157607000Y-67163000D01*
X157607000Y-67183000D01*
X158806250Y-67183000D01*
X158965000Y-67024250D01*
X158965000Y-66333690D01*
X158868327Y-66100301D01*
X158689698Y-65921673D01*
X158515223Y-65849403D01*
X158559147Y-65820054D01*
X158881054Y-65338285D01*
X158994093Y-64770000D01*
X158881054Y-64201715D01*
X158559147Y-63719946D01*
X158077378Y-63398039D01*
X157509093Y-63285000D01*
X157450907Y-63285000D01*
X156882622Y-63398039D01*
X156400853Y-63719946D01*
X156078946Y-64201715D01*
X155965907Y-64770000D01*
X147522000Y-64770000D01*
X147522000Y-60960000D01*
X166125907Y-60960000D01*
X166238946Y-61528285D01*
X166560853Y-62010054D01*
X166890026Y-62230000D01*
X166560853Y-62449946D01*
X166238946Y-62931715D01*
X166125907Y-63500000D01*
X166238946Y-64068285D01*
X166560853Y-64550054D01*
X166901553Y-64777702D01*
X166758642Y-64844817D01*
X166368355Y-65273076D01*
X166198524Y-65683110D01*
X166319845Y-65913000D01*
X167513000Y-65913000D01*
X167513000Y-65893000D01*
X167767000Y-65893000D01*
X167767000Y-65913000D01*
X168960155Y-65913000D01*
X169081476Y-65683110D01*
X168911645Y-65273076D01*
X168521358Y-64844817D01*
X168378447Y-64777702D01*
X168719147Y-64550054D01*
X168912954Y-64260000D01*
X170434000Y-64260000D01*
X170724839Y-64202148D01*
X170971401Y-64037401D01*
X176305401Y-58703401D01*
X176470148Y-58456839D01*
X176528000Y-58166000D01*
X176528000Y-53095520D01*
X176857029Y-52875670D01*
X177038000Y-52604828D01*
X177218971Y-52875670D01*
X177705152Y-53200526D01*
X178278641Y-53314600D01*
X178337359Y-53314600D01*
X178910848Y-53200526D01*
X179397029Y-52875670D01*
X179578000Y-52604828D01*
X179758971Y-52875670D01*
X180245152Y-53200526D01*
X180818641Y-53314600D01*
X180877359Y-53314600D01*
X180994498Y-53291300D01*
X182120000Y-54416802D01*
X182120000Y-77917198D01*
X179502101Y-80535097D01*
X179287160Y-80577852D01*
X179286953Y-80577990D01*
X170122010Y-80577990D01*
X169831171Y-80635842D01*
X169584609Y-80800589D01*
X167986969Y-82398229D01*
X167669093Y-82335000D01*
X167610907Y-82335000D01*
X167042622Y-82448039D01*
X166560853Y-82769946D01*
X166238946Y-83251715D01*
X166125907Y-83820000D01*
X166238946Y-84388285D01*
X166560853Y-84870054D01*
X166890026Y-85090000D01*
X166560853Y-85309946D01*
X166238946Y-85791715D01*
X166125907Y-86360000D01*
X166238946Y-86928285D01*
X166560853Y-87410054D01*
X166901553Y-87637702D01*
X166758642Y-87704817D01*
X166368355Y-88133076D01*
X166198524Y-88543110D01*
X166319845Y-88773000D01*
X167513000Y-88773000D01*
X167513000Y-88753000D01*
X167767000Y-88753000D01*
X167767000Y-88773000D01*
X167787000Y-88773000D01*
X167787000Y-89027000D01*
X167767000Y-89027000D01*
X167767000Y-91313000D01*
X167787000Y-91313000D01*
X167787000Y-91567000D01*
X167767000Y-91567000D01*
X167767000Y-92766250D01*
X167925750Y-92925000D01*
X168616309Y-92925000D01*
X168787512Y-92854085D01*
X168880599Y-92993401D01*
X171674599Y-95787401D01*
X171921161Y-95952148D01*
X172212000Y-96010000D01*
X193741198Y-96010000D01*
X196657583Y-98926385D01*
X196522971Y-99016330D01*
X196198115Y-99502511D01*
X196084041Y-100076000D01*
X196198115Y-100649489D01*
X196522971Y-101135670D01*
X197009152Y-101460526D01*
X197582641Y-101574600D01*
X197641359Y-101574600D01*
X198214848Y-101460526D01*
X198701029Y-101135670D01*
X198882000Y-100864828D01*
X199062971Y-101135670D01*
X199549152Y-101460526D01*
X200122641Y-101574600D01*
X200181359Y-101574600D01*
X200754848Y-101460526D01*
X201241029Y-101135670D01*
X201422000Y-100864828D01*
X201602971Y-101135670D01*
X202089152Y-101460526D01*
X202662641Y-101574600D01*
X202721359Y-101574600D01*
X203294848Y-101460526D01*
X203781029Y-101135670D01*
X203962000Y-100864828D01*
X204142971Y-101135670D01*
X204629152Y-101460526D01*
X205202641Y-101574600D01*
X205261359Y-101574600D01*
X205834848Y-101460526D01*
X206321029Y-101135670D01*
X206502000Y-100864828D01*
X206682971Y-101135670D01*
X207169152Y-101460526D01*
X207742641Y-101574600D01*
X207801359Y-101574600D01*
X208374848Y-101460526D01*
X208861029Y-101135670D01*
X209042000Y-100864828D01*
X209222971Y-101135670D01*
X209709152Y-101460526D01*
X210282641Y-101574600D01*
X210341359Y-101574600D01*
X210914848Y-101460526D01*
X211401029Y-101135670D01*
X211725885Y-100649489D01*
X211839959Y-100076000D01*
X211725885Y-99502511D01*
X211401029Y-99016330D01*
X211058647Y-98787558D01*
X211014148Y-98563847D01*
X210849401Y-98317285D01*
X208278000Y-95745884D01*
X208278000Y-88138000D01*
X208220148Y-87847161D01*
X208055401Y-87600599D01*
X207181210Y-86726408D01*
X207254093Y-86360000D01*
X207141054Y-85791715D01*
X206819147Y-85309946D01*
X206489974Y-85090000D01*
X206819147Y-84870054D01*
X207141054Y-84388285D01*
X207254093Y-83820000D01*
X207141054Y-83251715D01*
X206819147Y-82769946D01*
X206337378Y-82448039D01*
X205769093Y-82335000D01*
X205710907Y-82335000D01*
X205142622Y-82448039D01*
X204660853Y-82769946D01*
X204467046Y-83060000D01*
X202498802Y-83060000D01*
X194816000Y-75377198D01*
X194816000Y-72136000D01*
X208911041Y-72136000D01*
X209025115Y-72709489D01*
X209349971Y-73195670D01*
X209664752Y-73406000D01*
X209349971Y-73616330D01*
X209025115Y-74102511D01*
X208911041Y-74676000D01*
X209025115Y-75249489D01*
X209349971Y-75735670D01*
X209664752Y-75946000D01*
X209349971Y-76156330D01*
X209025115Y-76642511D01*
X208911041Y-77216000D01*
X209025115Y-77789489D01*
X209349971Y-78275670D01*
X209836152Y-78600526D01*
X210409641Y-78714600D01*
X210468359Y-78714600D01*
X211041848Y-78600526D01*
X211528029Y-78275670D01*
X211709000Y-78004828D01*
X211889971Y-78275670D01*
X212376152Y-78600526D01*
X212949641Y-78714600D01*
X213008359Y-78714600D01*
X213581848Y-78600526D01*
X214068029Y-78275670D01*
X214392885Y-77789489D01*
X214506959Y-77216000D01*
X214392885Y-76642511D01*
X214068029Y-76156330D01*
X213753248Y-75946000D01*
X214068029Y-75735670D01*
X214392885Y-75249489D01*
X214506959Y-74676000D01*
X214392885Y-74102511D01*
X214068029Y-73616330D01*
X213753248Y-73406000D01*
X214068029Y-73195670D01*
X214392885Y-72709489D01*
X214506959Y-72136000D01*
X214392885Y-71562511D01*
X214068029Y-71076330D01*
X213581848Y-70751474D01*
X213008359Y-70637400D01*
X212949641Y-70637400D01*
X212376152Y-70751474D01*
X211889971Y-71076330D01*
X211709000Y-71347172D01*
X211528029Y-71076330D01*
X211041848Y-70751474D01*
X210468359Y-70637400D01*
X210409641Y-70637400D01*
X209836152Y-70751474D01*
X209349971Y-71076330D01*
X209025115Y-71562511D01*
X208911041Y-72136000D01*
X194816000Y-72136000D01*
X194816000Y-68865750D01*
X196635000Y-68865750D01*
X196635000Y-69556310D01*
X196731673Y-69789699D01*
X196910302Y-69968327D01*
X197143691Y-70065000D01*
X197834250Y-70065000D01*
X197993000Y-69906250D01*
X197993000Y-68707000D01*
X198247000Y-68707000D01*
X198247000Y-69906250D01*
X198405750Y-70065000D01*
X199096309Y-70065000D01*
X199329698Y-69968327D01*
X199508327Y-69789699D01*
X199605000Y-69556310D01*
X199605000Y-68865750D01*
X204255000Y-68865750D01*
X204255000Y-69556310D01*
X204351673Y-69789699D01*
X204530302Y-69968327D01*
X204763691Y-70065000D01*
X205454250Y-70065000D01*
X205613000Y-69906250D01*
X205613000Y-68707000D01*
X205867000Y-68707000D01*
X205867000Y-69906250D01*
X206025750Y-70065000D01*
X206716309Y-70065000D01*
X206949698Y-69968327D01*
X207128327Y-69789699D01*
X207225000Y-69556310D01*
X207225000Y-68865750D01*
X207066250Y-68707000D01*
X205867000Y-68707000D01*
X205613000Y-68707000D01*
X204413750Y-68707000D01*
X204255000Y-68865750D01*
X199605000Y-68865750D01*
X199446250Y-68707000D01*
X198247000Y-68707000D01*
X197993000Y-68707000D01*
X196793750Y-68707000D01*
X196635000Y-68865750D01*
X194816000Y-68865750D01*
X194816000Y-54368116D01*
X195609401Y-53574715D01*
X195774148Y-53328153D01*
X195818647Y-53104442D01*
X196161029Y-52875670D01*
X196342000Y-52604828D01*
X196522971Y-52875670D01*
X197009152Y-53200526D01*
X197582641Y-53314600D01*
X197641359Y-53314600D01*
X198214848Y-53200526D01*
X198701029Y-52875670D01*
X198882000Y-52604828D01*
X199062971Y-52875670D01*
X199549152Y-53200526D01*
X200122641Y-53314600D01*
X200181359Y-53314600D01*
X200754848Y-53200526D01*
X201241029Y-52875670D01*
X201422000Y-52604828D01*
X201602971Y-52875670D01*
X202003537Y-53143320D01*
X202154599Y-53369401D01*
X202948000Y-54162802D01*
X202948000Y-59629198D01*
X202377198Y-60200000D01*
X199392954Y-60200000D01*
X199199147Y-59909946D01*
X198717378Y-59588039D01*
X198149093Y-59475000D01*
X198090907Y-59475000D01*
X197522622Y-59588039D01*
X197040853Y-59909946D01*
X196718946Y-60391715D01*
X196605907Y-60960000D01*
X196718946Y-61528285D01*
X197040853Y-62010054D01*
X197370026Y-62230000D01*
X197040853Y-62449946D01*
X196718946Y-62931715D01*
X196605907Y-63500000D01*
X196718946Y-64068285D01*
X197040853Y-64550054D01*
X197370026Y-64770000D01*
X197040853Y-64989946D01*
X196718946Y-65471715D01*
X196605907Y-66040000D01*
X196718946Y-66608285D01*
X197040853Y-67090054D01*
X197084777Y-67119403D01*
X196910302Y-67191673D01*
X196731673Y-67370301D01*
X196635000Y-67603690D01*
X196635000Y-68294250D01*
X196793750Y-68453000D01*
X197993000Y-68453000D01*
X197993000Y-68433000D01*
X198247000Y-68433000D01*
X198247000Y-68453000D01*
X199446250Y-68453000D01*
X199605000Y-68294250D01*
X199605000Y-67603690D01*
X199508327Y-67370301D01*
X199329698Y-67191673D01*
X199155223Y-67119403D01*
X199199147Y-67090054D01*
X199521054Y-66608285D01*
X199634093Y-66040000D01*
X199521054Y-65471715D01*
X199199147Y-64989946D01*
X198869974Y-64770000D01*
X199199147Y-64550054D01*
X199392954Y-64260000D01*
X202692000Y-64260000D01*
X202982839Y-64202148D01*
X203229401Y-64037401D01*
X204346717Y-62920085D01*
X204338946Y-62931715D01*
X204225907Y-63500000D01*
X204338946Y-64068285D01*
X204660853Y-64550054D01*
X204990026Y-64770000D01*
X204660853Y-64989946D01*
X204338946Y-65471715D01*
X204225907Y-66040000D01*
X204338946Y-66608285D01*
X204660853Y-67090054D01*
X204704777Y-67119403D01*
X204530302Y-67191673D01*
X204351673Y-67370301D01*
X204255000Y-67603690D01*
X204255000Y-68294250D01*
X204413750Y-68453000D01*
X205613000Y-68453000D01*
X205613000Y-68433000D01*
X205867000Y-68433000D01*
X205867000Y-68453000D01*
X207066250Y-68453000D01*
X207225000Y-68294250D01*
X207225000Y-67603690D01*
X207128327Y-67370301D01*
X206949698Y-67191673D01*
X206775223Y-67119403D01*
X206819147Y-67090054D01*
X207141054Y-66608285D01*
X207254093Y-66040000D01*
X207141054Y-65471715D01*
X206819147Y-64989946D01*
X206489974Y-64770000D01*
X206819147Y-64550054D01*
X207012954Y-64260000D01*
X207830420Y-64260000D01*
X208121259Y-64202148D01*
X208367821Y-64037401D01*
X209833401Y-62571821D01*
X209998148Y-62325259D01*
X210056000Y-62034420D01*
X210056000Y-54162802D01*
X210849401Y-53369401D01*
X211000463Y-53143320D01*
X211401029Y-52875670D01*
X211725885Y-52389489D01*
X211839959Y-51816000D01*
X211725885Y-51242511D01*
X211401029Y-50756330D01*
X210914848Y-50431474D01*
X210341359Y-50317400D01*
X210282641Y-50317400D01*
X209709152Y-50431474D01*
X209222971Y-50756330D01*
X209042000Y-51027172D01*
X208861029Y-50756330D01*
X208374848Y-50431474D01*
X207801359Y-50317400D01*
X207742641Y-50317400D01*
X207169152Y-50431474D01*
X206682971Y-50756330D01*
X206502000Y-51027172D01*
X206321029Y-50756330D01*
X205834848Y-50431474D01*
X205261359Y-50317400D01*
X205202641Y-50317400D01*
X204629152Y-50431474D01*
X204142971Y-50756330D01*
X203962000Y-51027172D01*
X203781029Y-50756330D01*
X203294848Y-50431474D01*
X202721359Y-50317400D01*
X202662641Y-50317400D01*
X202089152Y-50431474D01*
X201602971Y-50756330D01*
X201422000Y-51027172D01*
X201241029Y-50756330D01*
X200754848Y-50431474D01*
X200181359Y-50317400D01*
X200122641Y-50317400D01*
X199549152Y-50431474D01*
X199062971Y-50756330D01*
X198882000Y-51027172D01*
X198701029Y-50756330D01*
X198214848Y-50431474D01*
X197641359Y-50317400D01*
X197582641Y-50317400D01*
X197009152Y-50431474D01*
X196522971Y-50756330D01*
X196342000Y-51027172D01*
X196161029Y-50756330D01*
X195674848Y-50431474D01*
X195101359Y-50317400D01*
X195042641Y-50317400D01*
X194469152Y-50431474D01*
X193982971Y-50756330D01*
X193802000Y-51027172D01*
X193621029Y-50756330D01*
X193134848Y-50431474D01*
X192561359Y-50317400D01*
X192502641Y-50317400D01*
X191929152Y-50431474D01*
X191442971Y-50756330D01*
X191118115Y-51242511D01*
X191014454Y-51763652D01*
X190529401Y-51278599D01*
X190282839Y-51113852D01*
X189992000Y-51056000D01*
X189757262Y-51056000D01*
X189557029Y-50756330D01*
X189070848Y-50431474D01*
X188497359Y-50317400D01*
X188438641Y-50317400D01*
X187865152Y-50431474D01*
X187378971Y-50756330D01*
X187198000Y-51027172D01*
X187017029Y-50756330D01*
X186530848Y-50431474D01*
X185957359Y-50317400D01*
X185898641Y-50317400D01*
X185325152Y-50431474D01*
X184838971Y-50756330D01*
X184658000Y-51027172D01*
X184477029Y-50756330D01*
X183990848Y-50431474D01*
X183417359Y-50317400D01*
X183358641Y-50317400D01*
X182785152Y-50431474D01*
X182298971Y-50756330D01*
X182118000Y-51027172D01*
X181937029Y-50756330D01*
X181450848Y-50431474D01*
X180877359Y-50317400D01*
X180818641Y-50317400D01*
X180245152Y-50431474D01*
X179758971Y-50756330D01*
X179578000Y-51027172D01*
X179397029Y-50756330D01*
X178910848Y-50431474D01*
X178337359Y-50317400D01*
X178278641Y-50317400D01*
X177705152Y-50431474D01*
X177218971Y-50756330D01*
X177038000Y-51027172D01*
X176857029Y-50756330D01*
X176370848Y-50431474D01*
X175797359Y-50317400D01*
X175738641Y-50317400D01*
X175165152Y-50431474D01*
X174678971Y-50756330D01*
X174498008Y-51027161D01*
X174116490Y-50609179D01*
X173587027Y-50361032D01*
X173355000Y-50481531D01*
X173355000Y-51689000D01*
X173375000Y-51689000D01*
X173375000Y-51943000D01*
X173355000Y-51943000D01*
X173355000Y-53150469D01*
X173587027Y-53270968D01*
X174116490Y-53022821D01*
X174498008Y-52604839D01*
X174678971Y-52875670D01*
X175008000Y-53095520D01*
X175008000Y-57851198D01*
X170119198Y-62740000D01*
X168912954Y-62740000D01*
X168719147Y-62449946D01*
X168389974Y-62230000D01*
X168719147Y-62010054D01*
X169041054Y-61528285D01*
X169154093Y-60960000D01*
X169041054Y-60391715D01*
X168719147Y-59909946D01*
X168237378Y-59588039D01*
X167669093Y-59475000D01*
X167610907Y-59475000D01*
X167042622Y-59588039D01*
X166560853Y-59909946D01*
X166238946Y-60391715D01*
X166125907Y-60960000D01*
X147522000Y-60960000D01*
X147522000Y-59222092D01*
X148630091Y-58114000D01*
X156464000Y-58114000D01*
X156735705Y-58059954D01*
X156966046Y-57906046D01*
X158490043Y-56382048D01*
X158490046Y-56382046D01*
X158643954Y-56151705D01*
X158698000Y-55880000D01*
X158698000Y-51094092D01*
X159806091Y-49986000D01*
X160721668Y-49986000D01*
X160158364Y-50548321D01*
G36*
X201646599Y-84357401D02*
X201893161Y-84522148D01*
X202184000Y-84580000D01*
X204467046Y-84580000D01*
X204660853Y-84870054D01*
X204990026Y-85090000D01*
X204660853Y-85309946D01*
X204338946Y-85791715D01*
X204225907Y-86360000D01*
X204338946Y-86928285D01*
X204660853Y-87410054D01*
X205001553Y-87637702D01*
X204858642Y-87704817D01*
X204468355Y-88133076D01*
X204298524Y-88543110D01*
X204419845Y-88773000D01*
X205613000Y-88773000D01*
X205613000Y-88753000D01*
X205867000Y-88753000D01*
X205867000Y-88773000D01*
X205887000Y-88773000D01*
X205887000Y-89027000D01*
X205867000Y-89027000D01*
X205867000Y-91313000D01*
X205887000Y-91313000D01*
X205887000Y-91567000D01*
X205867000Y-91567000D01*
X205867000Y-92766250D01*
X206025750Y-92925000D01*
X206716309Y-92925000D01*
X206758000Y-92907731D01*
X206758000Y-96060686D01*
X206815852Y-96351525D01*
X206980599Y-96598087D01*
X209328398Y-98945886D01*
X209222971Y-99016330D01*
X209042000Y-99287172D01*
X208861029Y-99016330D01*
X208529816Y-98795020D01*
X208474148Y-98515161D01*
X208309401Y-98268599D01*
X201766552Y-91725750D01*
X204255000Y-91725750D01*
X204255000Y-92416310D01*
X204351673Y-92649699D01*
X204530302Y-92828327D01*
X204763691Y-92925000D01*
X205454250Y-92925000D01*
X205613000Y-92766250D01*
X205613000Y-91567000D01*
X204413750Y-91567000D01*
X204255000Y-91725750D01*
X201766552Y-91725750D01*
X200658000Y-90617198D01*
X200658000Y-90463690D01*
X204255000Y-90463690D01*
X204255000Y-91154250D01*
X204413750Y-91313000D01*
X205613000Y-91313000D01*
X205613000Y-89027000D01*
X204419845Y-89027000D01*
X204298524Y-89256890D01*
X204468355Y-89666924D01*
X204739878Y-89964864D01*
X204530302Y-90051673D01*
X204351673Y-90230301D01*
X204255000Y-90463690D01*
X200658000Y-90463690D01*
X200658000Y-88138000D01*
X200600148Y-87847161D01*
X200435401Y-87600599D01*
X199561210Y-86726408D01*
X199634093Y-86360000D01*
X199521054Y-85791715D01*
X199199147Y-85309946D01*
X198869974Y-85090000D01*
X199199147Y-84870054D01*
X199521054Y-84388285D01*
X199634093Y-83820000D01*
X199521054Y-83251715D01*
X199199147Y-82769946D01*
X198880000Y-82556699D01*
X198880000Y-81590802D01*
X201646599Y-84357401D01*
X201646599Y-84357401D01*
G37*
X201646599Y-84357401D02*
X201893161Y-84522148D01*
X202184000Y-84580000D01*
X204467046Y-84580000D01*
X204660853Y-84870054D01*
X204990026Y-85090000D01*
X204660853Y-85309946D01*
X204338946Y-85791715D01*
X204225907Y-86360000D01*
X204338946Y-86928285D01*
X204660853Y-87410054D01*
X205001553Y-87637702D01*
X204858642Y-87704817D01*
X204468355Y-88133076D01*
X204298524Y-88543110D01*
X204419845Y-88773000D01*
X205613000Y-88773000D01*
X205613000Y-88753000D01*
X205867000Y-88753000D01*
X205867000Y-88773000D01*
X205887000Y-88773000D01*
X205887000Y-89027000D01*
X205867000Y-89027000D01*
X205867000Y-91313000D01*
X205887000Y-91313000D01*
X205887000Y-91567000D01*
X205867000Y-91567000D01*
X205867000Y-92766250D01*
X206025750Y-92925000D01*
X206716309Y-92925000D01*
X206758000Y-92907731D01*
X206758000Y-96060686D01*
X206815852Y-96351525D01*
X206980599Y-96598087D01*
X209328398Y-98945886D01*
X209222971Y-99016330D01*
X209042000Y-99287172D01*
X208861029Y-99016330D01*
X208529816Y-98795020D01*
X208474148Y-98515161D01*
X208309401Y-98268599D01*
X201766552Y-91725750D01*
X204255000Y-91725750D01*
X204255000Y-92416310D01*
X204351673Y-92649699D01*
X204530302Y-92828327D01*
X204763691Y-92925000D01*
X205454250Y-92925000D01*
X205613000Y-92766250D01*
X205613000Y-91567000D01*
X204413750Y-91567000D01*
X204255000Y-91725750D01*
X201766552Y-91725750D01*
X200658000Y-90617198D01*
X200658000Y-90463690D01*
X204255000Y-90463690D01*
X204255000Y-91154250D01*
X204413750Y-91313000D01*
X205613000Y-91313000D01*
X205613000Y-89027000D01*
X204419845Y-89027000D01*
X204298524Y-89256890D01*
X204468355Y-89666924D01*
X204739878Y-89964864D01*
X204530302Y-90051673D01*
X204351673Y-90230301D01*
X204255000Y-90463690D01*
X200658000Y-90463690D01*
X200658000Y-88138000D01*
X200600148Y-87847161D01*
X200435401Y-87600599D01*
X199561210Y-86726408D01*
X199634093Y-86360000D01*
X199521054Y-85791715D01*
X199199147Y-85309946D01*
X198869974Y-85090000D01*
X199199147Y-84870054D01*
X199521054Y-84388285D01*
X199634093Y-83820000D01*
X199521054Y-83251715D01*
X199199147Y-82769946D01*
X198880000Y-82556699D01*
X198880000Y-81590802D01*
X201646599Y-84357401D01*
G36*
X197360000Y-80832802D02*
X197360000Y-82556699D01*
X197040853Y-82769946D01*
X196718946Y-83251715D01*
X196605907Y-83820000D01*
X196718946Y-84388285D01*
X197040853Y-84870054D01*
X197370026Y-85090000D01*
X197040853Y-85309946D01*
X196718946Y-85791715D01*
X196605907Y-86360000D01*
X196718946Y-86928285D01*
X197040853Y-87410054D01*
X197381553Y-87637702D01*
X197238642Y-87704817D01*
X196848355Y-88133076D01*
X196678524Y-88543110D01*
X196799845Y-88773000D01*
X197993000Y-88773000D01*
X197993000Y-88753000D01*
X198247000Y-88753000D01*
X198247000Y-88773000D01*
X198267000Y-88773000D01*
X198267000Y-89027000D01*
X198247000Y-89027000D01*
X198247000Y-91313000D01*
X198267000Y-91313000D01*
X198267000Y-91567000D01*
X198247000Y-91567000D01*
X198247000Y-92766250D01*
X198405750Y-92925000D01*
X199096309Y-92925000D01*
X199329698Y-92828327D01*
X199508327Y-92649699D01*
X199605000Y-92416310D01*
X199605000Y-91725750D01*
X199446252Y-91567002D01*
X199458200Y-91567002D01*
X206817583Y-98926385D01*
X206682971Y-99016330D01*
X206502000Y-99287172D01*
X206321029Y-99016330D01*
X205989816Y-98795020D01*
X205934148Y-98515161D01*
X205769401Y-98268599D01*
X200689401Y-93188599D01*
X200442839Y-93023852D01*
X200152000Y-92966000D01*
X193862802Y-92966000D01*
X193038000Y-92141198D01*
X193038000Y-91725750D01*
X196635000Y-91725750D01*
X196635000Y-92416310D01*
X196731673Y-92649699D01*
X196910302Y-92828327D01*
X197143691Y-92925000D01*
X197834250Y-92925000D01*
X197993000Y-92766250D01*
X197993000Y-91567000D01*
X196793750Y-91567000D01*
X196635000Y-91725750D01*
X193038000Y-91725750D01*
X193038000Y-90463690D01*
X196635000Y-90463690D01*
X196635000Y-91154250D01*
X196793750Y-91313000D01*
X197993000Y-91313000D01*
X197993000Y-89027000D01*
X196799845Y-89027000D01*
X196678524Y-89256890D01*
X196848355Y-89666924D01*
X197119878Y-89964864D01*
X196910302Y-90051673D01*
X196731673Y-90230301D01*
X196635000Y-90463690D01*
X193038000Y-90463690D01*
X193038000Y-88138000D01*
X192980148Y-87847161D01*
X192815401Y-87600599D01*
X191941210Y-86726408D01*
X192014093Y-86360000D01*
X191901054Y-85791715D01*
X191579147Y-85309946D01*
X191249974Y-85090000D01*
X191579147Y-84870054D01*
X191901054Y-84388285D01*
X192014093Y-83820000D01*
X191901054Y-83251715D01*
X191579147Y-82769946D01*
X191260000Y-82556699D01*
X191260000Y-78800802D01*
X193294000Y-76766802D01*
X197360000Y-80832802D01*
X197360000Y-80832802D01*
G37*
X197360000Y-80832802D02*
X197360000Y-82556699D01*
X197040853Y-82769946D01*
X196718946Y-83251715D01*
X196605907Y-83820000D01*
X196718946Y-84388285D01*
X197040853Y-84870054D01*
X197370026Y-85090000D01*
X197040853Y-85309946D01*
X196718946Y-85791715D01*
X196605907Y-86360000D01*
X196718946Y-86928285D01*
X197040853Y-87410054D01*
X197381553Y-87637702D01*
X197238642Y-87704817D01*
X196848355Y-88133076D01*
X196678524Y-88543110D01*
X196799845Y-88773000D01*
X197993000Y-88773000D01*
X197993000Y-88753000D01*
X198247000Y-88753000D01*
X198247000Y-88773000D01*
X198267000Y-88773000D01*
X198267000Y-89027000D01*
X198247000Y-89027000D01*
X198247000Y-91313000D01*
X198267000Y-91313000D01*
X198267000Y-91567000D01*
X198247000Y-91567000D01*
X198247000Y-92766250D01*
X198405750Y-92925000D01*
X199096309Y-92925000D01*
X199329698Y-92828327D01*
X199508327Y-92649699D01*
X199605000Y-92416310D01*
X199605000Y-91725750D01*
X199446252Y-91567002D01*
X199458200Y-91567002D01*
X206817583Y-98926385D01*
X206682971Y-99016330D01*
X206502000Y-99287172D01*
X206321029Y-99016330D01*
X205989816Y-98795020D01*
X205934148Y-98515161D01*
X205769401Y-98268599D01*
X200689401Y-93188599D01*
X200442839Y-93023852D01*
X200152000Y-92966000D01*
X193862802Y-92966000D01*
X193038000Y-92141198D01*
X193038000Y-91725750D01*
X196635000Y-91725750D01*
X196635000Y-92416310D01*
X196731673Y-92649699D01*
X196910302Y-92828327D01*
X197143691Y-92925000D01*
X197834250Y-92925000D01*
X197993000Y-92766250D01*
X197993000Y-91567000D01*
X196793750Y-91567000D01*
X196635000Y-91725750D01*
X193038000Y-91725750D01*
X193038000Y-90463690D01*
X196635000Y-90463690D01*
X196635000Y-91154250D01*
X196793750Y-91313000D01*
X197993000Y-91313000D01*
X197993000Y-89027000D01*
X196799845Y-89027000D01*
X196678524Y-89256890D01*
X196848355Y-89666924D01*
X197119878Y-89964864D01*
X196910302Y-90051673D01*
X196731673Y-90230301D01*
X196635000Y-90463690D01*
X193038000Y-90463690D01*
X193038000Y-88138000D01*
X192980148Y-87847161D01*
X192815401Y-87600599D01*
X191941210Y-86726408D01*
X192014093Y-86360000D01*
X191901054Y-85791715D01*
X191579147Y-85309946D01*
X191249974Y-85090000D01*
X191579147Y-84870054D01*
X191901054Y-84388285D01*
X192014093Y-83820000D01*
X191901054Y-83251715D01*
X191579147Y-82769946D01*
X191260000Y-82556699D01*
X191260000Y-78800802D01*
X193294000Y-76766802D01*
X197360000Y-80832802D01*
G36*
X175606969Y-82398229D02*
X175289093Y-82335000D01*
X175230907Y-82335000D01*
X174662622Y-82448039D01*
X174180853Y-82769946D01*
X173858946Y-83251715D01*
X173745907Y-83820000D01*
X173858946Y-84388285D01*
X174180853Y-84870054D01*
X174510026Y-85090000D01*
X174180853Y-85309946D01*
X173858946Y-85791715D01*
X173745907Y-86360000D01*
X173858946Y-86928285D01*
X174180853Y-87410054D01*
X174521553Y-87637702D01*
X174378642Y-87704817D01*
X173988355Y-88133076D01*
X173818524Y-88543110D01*
X173939845Y-88773000D01*
X175133000Y-88773000D01*
X175133000Y-88753000D01*
X175387000Y-88753000D01*
X175387000Y-88773000D01*
X175407000Y-88773000D01*
X175407000Y-89027000D01*
X175387000Y-89027000D01*
X175387000Y-91313000D01*
X175407000Y-91313000D01*
X175407000Y-91567000D01*
X175387000Y-91567000D01*
X175387000Y-92766250D01*
X175545750Y-92925000D01*
X176236309Y-92925000D01*
X176407512Y-92854085D01*
X176500599Y-92993401D01*
X177997198Y-94490000D01*
X172526802Y-94490000D01*
X170178000Y-92141198D01*
X170178000Y-91725750D01*
X173775000Y-91725750D01*
X173775000Y-92416310D01*
X173871673Y-92649699D01*
X174050302Y-92828327D01*
X174283691Y-92925000D01*
X174974250Y-92925000D01*
X175133000Y-92766250D01*
X175133000Y-91567000D01*
X173933750Y-91567000D01*
X173775000Y-91725750D01*
X170178000Y-91725750D01*
X170178000Y-90463690D01*
X173775000Y-90463690D01*
X173775000Y-91154250D01*
X173933750Y-91313000D01*
X175133000Y-91313000D01*
X175133000Y-89027000D01*
X173939845Y-89027000D01*
X173818524Y-89256890D01*
X173988355Y-89666924D01*
X174259878Y-89964864D01*
X174050302Y-90051673D01*
X173871673Y-90230301D01*
X173775000Y-90463690D01*
X170178000Y-90463690D01*
X170178000Y-88138000D01*
X170120148Y-87847161D01*
X169955401Y-87600599D01*
X169081210Y-86726408D01*
X169154093Y-86360000D01*
X169041054Y-85791715D01*
X168719147Y-85309946D01*
X168389974Y-85090000D01*
X168719147Y-84870054D01*
X169041054Y-84388285D01*
X169154093Y-83820000D01*
X169081210Y-83453592D01*
X170436812Y-82097990D01*
X175907208Y-82097990D01*
X175606969Y-82398229D01*
X175606969Y-82398229D01*
G37*
X175606969Y-82398229D02*
X175289093Y-82335000D01*
X175230907Y-82335000D01*
X174662622Y-82448039D01*
X174180853Y-82769946D01*
X173858946Y-83251715D01*
X173745907Y-83820000D01*
X173858946Y-84388285D01*
X174180853Y-84870054D01*
X174510026Y-85090000D01*
X174180853Y-85309946D01*
X173858946Y-85791715D01*
X173745907Y-86360000D01*
X173858946Y-86928285D01*
X174180853Y-87410054D01*
X174521553Y-87637702D01*
X174378642Y-87704817D01*
X173988355Y-88133076D01*
X173818524Y-88543110D01*
X173939845Y-88773000D01*
X175133000Y-88773000D01*
X175133000Y-88753000D01*
X175387000Y-88753000D01*
X175387000Y-88773000D01*
X175407000Y-88773000D01*
X175407000Y-89027000D01*
X175387000Y-89027000D01*
X175387000Y-91313000D01*
X175407000Y-91313000D01*
X175407000Y-91567000D01*
X175387000Y-91567000D01*
X175387000Y-92766250D01*
X175545750Y-92925000D01*
X176236309Y-92925000D01*
X176407512Y-92854085D01*
X176500599Y-92993401D01*
X177997198Y-94490000D01*
X172526802Y-94490000D01*
X170178000Y-92141198D01*
X170178000Y-91725750D01*
X173775000Y-91725750D01*
X173775000Y-92416310D01*
X173871673Y-92649699D01*
X174050302Y-92828327D01*
X174283691Y-92925000D01*
X174974250Y-92925000D01*
X175133000Y-92766250D01*
X175133000Y-91567000D01*
X173933750Y-91567000D01*
X173775000Y-91725750D01*
X170178000Y-91725750D01*
X170178000Y-90463690D01*
X173775000Y-90463690D01*
X173775000Y-91154250D01*
X173933750Y-91313000D01*
X175133000Y-91313000D01*
X175133000Y-89027000D01*
X173939845Y-89027000D01*
X173818524Y-89256890D01*
X173988355Y-89666924D01*
X174259878Y-89964864D01*
X174050302Y-90051673D01*
X173871673Y-90230301D01*
X173775000Y-90463690D01*
X170178000Y-90463690D01*
X170178000Y-88138000D01*
X170120148Y-87847161D01*
X169955401Y-87600599D01*
X169081210Y-86726408D01*
X169154093Y-86360000D01*
X169041054Y-85791715D01*
X168719147Y-85309946D01*
X168389974Y-85090000D01*
X168719147Y-84870054D01*
X169041054Y-84388285D01*
X169154093Y-83820000D01*
X169081210Y-83453592D01*
X170436812Y-82097990D01*
X175907208Y-82097990D01*
X175606969Y-82398229D01*
G36*
X182120000Y-82556699D02*
X181800853Y-82769946D01*
X181478946Y-83251715D01*
X181365907Y-83820000D01*
X181478946Y-84388285D01*
X181800853Y-84870054D01*
X182130026Y-85090000D01*
X181800853Y-85309946D01*
X181478946Y-85791715D01*
X181365907Y-86360000D01*
X181478946Y-86928285D01*
X181800853Y-87410054D01*
X182141553Y-87637702D01*
X181998642Y-87704817D01*
X181608355Y-88133076D01*
X181438524Y-88543110D01*
X181559845Y-88773000D01*
X182753000Y-88773000D01*
X182753000Y-88753000D01*
X183007000Y-88753000D01*
X183007000Y-88773000D01*
X183027000Y-88773000D01*
X183027000Y-89027000D01*
X183007000Y-89027000D01*
X183007000Y-91313000D01*
X183027000Y-91313000D01*
X183027000Y-91567000D01*
X183007000Y-91567000D01*
X183007000Y-92766250D01*
X183165750Y-92925000D01*
X183856309Y-92925000D01*
X184027512Y-92854085D01*
X184120599Y-92993401D01*
X185109198Y-93982000D01*
X179638802Y-93982000D01*
X177798000Y-92141198D01*
X177798000Y-91725750D01*
X181395000Y-91725750D01*
X181395000Y-92416310D01*
X181491673Y-92649699D01*
X181670302Y-92828327D01*
X181903691Y-92925000D01*
X182594250Y-92925000D01*
X182753000Y-92766250D01*
X182753000Y-91567000D01*
X181553750Y-91567000D01*
X181395000Y-91725750D01*
X177798000Y-91725750D01*
X177798000Y-90463690D01*
X181395000Y-90463690D01*
X181395000Y-91154250D01*
X181553750Y-91313000D01*
X182753000Y-91313000D01*
X182753000Y-89027000D01*
X181559845Y-89027000D01*
X181438524Y-89256890D01*
X181608355Y-89666924D01*
X181879878Y-89964864D01*
X181670302Y-90051673D01*
X181491673Y-90230301D01*
X181395000Y-90463690D01*
X177798000Y-90463690D01*
X177798000Y-88138000D01*
X177740148Y-87847161D01*
X177575401Y-87600599D01*
X176701210Y-86726408D01*
X176774093Y-86360000D01*
X176661054Y-85791715D01*
X176339147Y-85309946D01*
X176009974Y-85090000D01*
X176339147Y-84870054D01*
X176661054Y-84388285D01*
X176774093Y-83820000D01*
X176701210Y-83453592D01*
X177606802Y-82548000D01*
X180086000Y-82548000D01*
X180376839Y-82490148D01*
X180623401Y-82325401D01*
X182120000Y-80828802D01*
X182120000Y-82556699D01*
X182120000Y-82556699D01*
G37*
X182120000Y-82556699D02*
X181800853Y-82769946D01*
X181478946Y-83251715D01*
X181365907Y-83820000D01*
X181478946Y-84388285D01*
X181800853Y-84870054D01*
X182130026Y-85090000D01*
X181800853Y-85309946D01*
X181478946Y-85791715D01*
X181365907Y-86360000D01*
X181478946Y-86928285D01*
X181800853Y-87410054D01*
X182141553Y-87637702D01*
X181998642Y-87704817D01*
X181608355Y-88133076D01*
X181438524Y-88543110D01*
X181559845Y-88773000D01*
X182753000Y-88773000D01*
X182753000Y-88753000D01*
X183007000Y-88753000D01*
X183007000Y-88773000D01*
X183027000Y-88773000D01*
X183027000Y-89027000D01*
X183007000Y-89027000D01*
X183007000Y-91313000D01*
X183027000Y-91313000D01*
X183027000Y-91567000D01*
X183007000Y-91567000D01*
X183007000Y-92766250D01*
X183165750Y-92925000D01*
X183856309Y-92925000D01*
X184027512Y-92854085D01*
X184120599Y-92993401D01*
X185109198Y-93982000D01*
X179638802Y-93982000D01*
X177798000Y-92141198D01*
X177798000Y-91725750D01*
X181395000Y-91725750D01*
X181395000Y-92416310D01*
X181491673Y-92649699D01*
X181670302Y-92828327D01*
X181903691Y-92925000D01*
X182594250Y-92925000D01*
X182753000Y-92766250D01*
X182753000Y-91567000D01*
X181553750Y-91567000D01*
X181395000Y-91725750D01*
X177798000Y-91725750D01*
X177798000Y-90463690D01*
X181395000Y-90463690D01*
X181395000Y-91154250D01*
X181553750Y-91313000D01*
X182753000Y-91313000D01*
X182753000Y-89027000D01*
X181559845Y-89027000D01*
X181438524Y-89256890D01*
X181608355Y-89666924D01*
X181879878Y-89964864D01*
X181670302Y-90051673D01*
X181491673Y-90230301D01*
X181395000Y-90463690D01*
X177798000Y-90463690D01*
X177798000Y-88138000D01*
X177740148Y-87847161D01*
X177575401Y-87600599D01*
X176701210Y-86726408D01*
X176774093Y-86360000D01*
X176661054Y-85791715D01*
X176339147Y-85309946D01*
X176009974Y-85090000D01*
X176339147Y-84870054D01*
X176661054Y-84388285D01*
X176774093Y-83820000D01*
X176701210Y-83453592D01*
X177606802Y-82548000D01*
X180086000Y-82548000D01*
X180376839Y-82490148D01*
X180623401Y-82325401D01*
X182120000Y-80828802D01*
X182120000Y-82556699D01*
G36*
X187378971Y-52875670D02*
X187865152Y-53200526D01*
X188438641Y-53314600D01*
X188497359Y-53314600D01*
X189070848Y-53200526D01*
X189557029Y-52875670D01*
X189725193Y-52623995D01*
X192280000Y-55178802D01*
X192280000Y-75631198D01*
X189962599Y-77948599D01*
X189797852Y-78195161D01*
X189740000Y-78486000D01*
X189740000Y-82556699D01*
X189420853Y-82769946D01*
X189098946Y-83251715D01*
X188985907Y-83820000D01*
X189098946Y-84388285D01*
X189420853Y-84870054D01*
X189750026Y-85090000D01*
X189420853Y-85309946D01*
X189098946Y-85791715D01*
X188985907Y-86360000D01*
X189098946Y-86928285D01*
X189420853Y-87410054D01*
X189761553Y-87637702D01*
X189618642Y-87704817D01*
X189228355Y-88133076D01*
X189058524Y-88543110D01*
X189179845Y-88773000D01*
X190373000Y-88773000D01*
X190373000Y-88753000D01*
X190627000Y-88753000D01*
X190627000Y-88773000D01*
X190647000Y-88773000D01*
X190647000Y-89027000D01*
X190627000Y-89027000D01*
X190627000Y-91313000D01*
X190647000Y-91313000D01*
X190647000Y-91567000D01*
X190627000Y-91567000D01*
X190627000Y-92766250D01*
X190785750Y-92925000D01*
X191476309Y-92925000D01*
X191647512Y-92854085D01*
X191740599Y-92993401D01*
X192221198Y-93474000D01*
X186750802Y-93474000D01*
X185418000Y-92141198D01*
X185418000Y-91725750D01*
X189015000Y-91725750D01*
X189015000Y-92416310D01*
X189111673Y-92649699D01*
X189290302Y-92828327D01*
X189523691Y-92925000D01*
X190214250Y-92925000D01*
X190373000Y-92766250D01*
X190373000Y-91567000D01*
X189173750Y-91567000D01*
X189015000Y-91725750D01*
X185418000Y-91725750D01*
X185418000Y-90463690D01*
X189015000Y-90463690D01*
X189015000Y-91154250D01*
X189173750Y-91313000D01*
X190373000Y-91313000D01*
X190373000Y-89027000D01*
X189179845Y-89027000D01*
X189058524Y-89256890D01*
X189228355Y-89666924D01*
X189499878Y-89964864D01*
X189290302Y-90051673D01*
X189111673Y-90230301D01*
X189015000Y-90463690D01*
X185418000Y-90463690D01*
X185418000Y-88138000D01*
X185360148Y-87847161D01*
X185195401Y-87600599D01*
X184321210Y-86726408D01*
X184394093Y-86360000D01*
X184281054Y-85791715D01*
X183959147Y-85309946D01*
X183629974Y-85090000D01*
X183959147Y-84870054D01*
X184281054Y-84388285D01*
X184394093Y-83820000D01*
X184281054Y-83251715D01*
X183959147Y-82769946D01*
X183640000Y-82556699D01*
X183640000Y-80070802D01*
X184433401Y-79277401D01*
X184598148Y-79030839D01*
X184656000Y-78740000D01*
X184656000Y-54416802D01*
X185781502Y-53291300D01*
X185898641Y-53314600D01*
X185957359Y-53314600D01*
X186530848Y-53200526D01*
X187017029Y-52875670D01*
X187198000Y-52604828D01*
X187378971Y-52875670D01*
X187378971Y-52875670D01*
G37*
X187378971Y-52875670D02*
X187865152Y-53200526D01*
X188438641Y-53314600D01*
X188497359Y-53314600D01*
X189070848Y-53200526D01*
X189557029Y-52875670D01*
X189725193Y-52623995D01*
X192280000Y-55178802D01*
X192280000Y-75631198D01*
X189962599Y-77948599D01*
X189797852Y-78195161D01*
X189740000Y-78486000D01*
X189740000Y-82556699D01*
X189420853Y-82769946D01*
X189098946Y-83251715D01*
X188985907Y-83820000D01*
X189098946Y-84388285D01*
X189420853Y-84870054D01*
X189750026Y-85090000D01*
X189420853Y-85309946D01*
X189098946Y-85791715D01*
X188985907Y-86360000D01*
X189098946Y-86928285D01*
X189420853Y-87410054D01*
X189761553Y-87637702D01*
X189618642Y-87704817D01*
X189228355Y-88133076D01*
X189058524Y-88543110D01*
X189179845Y-88773000D01*
X190373000Y-88773000D01*
X190373000Y-88753000D01*
X190627000Y-88753000D01*
X190627000Y-88773000D01*
X190647000Y-88773000D01*
X190647000Y-89027000D01*
X190627000Y-89027000D01*
X190627000Y-91313000D01*
X190647000Y-91313000D01*
X190647000Y-91567000D01*
X190627000Y-91567000D01*
X190627000Y-92766250D01*
X190785750Y-92925000D01*
X191476309Y-92925000D01*
X191647512Y-92854085D01*
X191740599Y-92993401D01*
X192221198Y-93474000D01*
X186750802Y-93474000D01*
X185418000Y-92141198D01*
X185418000Y-91725750D01*
X189015000Y-91725750D01*
X189015000Y-92416310D01*
X189111673Y-92649699D01*
X189290302Y-92828327D01*
X189523691Y-92925000D01*
X190214250Y-92925000D01*
X190373000Y-92766250D01*
X190373000Y-91567000D01*
X189173750Y-91567000D01*
X189015000Y-91725750D01*
X185418000Y-91725750D01*
X185418000Y-90463690D01*
X189015000Y-90463690D01*
X189015000Y-91154250D01*
X189173750Y-91313000D01*
X190373000Y-91313000D01*
X190373000Y-89027000D01*
X189179845Y-89027000D01*
X189058524Y-89256890D01*
X189228355Y-89666924D01*
X189499878Y-89964864D01*
X189290302Y-90051673D01*
X189111673Y-90230301D01*
X189015000Y-90463690D01*
X185418000Y-90463690D01*
X185418000Y-88138000D01*
X185360148Y-87847161D01*
X185195401Y-87600599D01*
X184321210Y-86726408D01*
X184394093Y-86360000D01*
X184281054Y-85791715D01*
X183959147Y-85309946D01*
X183629974Y-85090000D01*
X183959147Y-84870054D01*
X184281054Y-84388285D01*
X184394093Y-83820000D01*
X184281054Y-83251715D01*
X183959147Y-82769946D01*
X183640000Y-82556699D01*
X183640000Y-80070802D01*
X184433401Y-79277401D01*
X184598148Y-79030839D01*
X184656000Y-78740000D01*
X184656000Y-54416802D01*
X185781502Y-53291300D01*
X185898641Y-53314600D01*
X185957359Y-53314600D01*
X186530848Y-53200526D01*
X187017029Y-52875670D01*
X187198000Y-52604828D01*
X187378971Y-52875670D01*
M02*
